SplineFontDB: 3.0
FontName: HussainiNastaleeq
FullName: Hussaini Nastaleeq
FamilyName: Hussaini Nastaleeq
Weight: Regular
Copyright: Copyright (c) www.crulp.org, 2003. All rights reserved. Portions copyright (c) 2008, 2012 by Khaled Hosny <khaledhosny@eglug.org>.
Version: 0.02
ItalicAngle: 0
UnderlinePosition: -154
UnderlineWidth: 102
Ascent: 1638
Descent: 410
LayerCount: 2
Layer: 0 1 "Back"  1
Layer: 1 1 "Fore"  0
FSType: 0
OS2Version: 0
OS2_WeightWidthSlopeOnly: 0
OS2_UseTypoMetrics: 1
CreationTime: 1051668545
PfmFamily: 17
TTFWeight: 400
TTFWidth: 5
LineGap: 102
VLineGap: 0
OS2TypoAscent: 1536
OS2TypoAOffset: 0
OS2TypoDescent: -197
OS2TypoDOffset: 0
OS2TypoLinegap: 102
OS2WinAscent: 0
OS2WinAOffset: 1
OS2WinDescent: 0
OS2WinDOffset: 1
HheadAscent: 1536
HheadAOffset: 0
HheadDescent: -197
HheadDOffset: 0
OS2SubXSize: 205
OS2SubYSize: 205
OS2SubXOff: 0
OS2SubYOff: 287
OS2SupXSize: 205
OS2SupYSize: 205
OS2SupXOff: 0
OS2SupYOff: 287
OS2StrikeYSize: 102
OS2StrikeYPos: 512
OS2Vendor: 'CRLP'
Lookup: 1 8 0 "'locl' Localized Forms in Arabic lookup 213"  {"'locl' Localized Forms in Arabic lookup 213-1"  } ['locl' ('arab' <'dflt' > ) ]
Lookup: 2 9 0 "'isol' Isolated Forms in Arabic lookup 0"  {"'isol' Isolated Forms in Arabic lookup 0 subtable"  } ['isol' ('arab' <'dflt' > ) ]
Lookup: 2 1 0 "'fina' Terminal Forms in Arabic lookup 1"  {"'fina' Terminal Forms in Arabic lookup 1 subtable"  } ['fina' ('arab' <'dflt' > ) ]
Lookup: 2 1 0 "'init' Initial Forms in Arabic lookup 2"  {"'init' Initial Forms in Arabic lookup 2 subtable"  } ['init' ('arab' <'dflt' > ) ]
Lookup: 2 1 0 "'medi' Medial Forms in Arabic lookup 3"  {"'medi' Medial Forms in Arabic lookup 3 subtable"  } ['medi' ('arab' <'dflt' > ) ]
Lookup: 6 9 0 "'calt' Contextual Alternates in Arabic lookup 4"  {"'calt' Contextual Alternates in Arabic lookup 4 subtable"  } ['calt' ('arab' <'dflt' > ) ]

StartChar: uni0622
Encoding: 1570 1570 1
Width: 465
GlyphClass: 2
Flags: W
AnchorPoint: "Anchor-38" 286 -81 basechar 0
AnchorPoint: "Anchor-37" 409 2478 basechar 0
LayerCount: 2
Fore
SplineSet
123 2271 m 0,0,1
 154 2271 154 2271 179.5 2260 c 128,-1,2
 205 2249 205 2249 231 2236 c 1,3,4
 307 2206 307 2206 388 2215 c 128,-1,5
 469 2224 469 2224 541.5 2261 c 128,-1,6
 614 2298 614 2298 672.5 2355.5 c 128,-1,7
 731 2413 731 2413 766 2480 c 1,8,9
 778 2492 778 2492 780 2480 c 1,10,11
 780 2437 780 2437 766 2396 c 128,-1,12
 752 2355 752 2355 733 2314 c 0,13,14
 698 2238 698 2238 647 2165.5 c 128,-1,15
 596 2093 596 2093 531.5 2035.5 c 128,-1,16
 467 1978 467 1978 389 1943.5 c 128,-1,17
 311 1909 311 1909 221 1909 c 0,18,19
 158 1909 158 1909 105.5 1933.5 c 128,-1,20
 53 1958 53 1958 0 1989 c 1,21,22
 -39 2001 -39 2001 -71.5 1985.5 c 128,-1,23
 -104 1970 -104 1970 -131 1942.5 c 128,-1,24
 -158 1915 -158 1915 -180.5 1882 c 128,-1,25
 -203 1849 -203 1849 -219 1827 c 1,26,27
 -227 1812 -227 1812 -238 1812 c 1,28,29
 -238 1870 -238 1870 -205 1949 c 128,-1,30
 -172 2028 -172 2028 -120 2099.5 c 128,-1,31
 -68 2171 -68 2171 -3.5 2221 c 128,-1,32
 61 2271 61 2271 123 2271 c 0,0,1
197 111 m 1,33,34
 190 100 190 100 185 102 c 128,-1,35
 180 104 180 104 182 121 c 2,36,-1
 193 274 l 1,37,38
 190 467 190 467 189 613.5 c 128,-1,39
 188 760 188 760 187 868.5 c 128,-1,40
 186 977 186 977 185 1050.5 c 128,-1,41
 184 1124 184 1124 182 1169 c 1,42,43
 178 1194 178 1194 180 1233 c 128,-1,44
 182 1272 182 1272 184 1311 c 128,-1,45
 186 1350 186 1350 189.5 1380.5 c 128,-1,46
 193 1411 193 1411 193 1415 c 0,47,48
 195 1440 195 1440 208 1482 c 128,-1,49
 221 1524 221 1524 237.5 1570 c 128,-1,50
 254 1616 254 1616 268.5 1659 c 128,-1,51
 283 1702 283 1702 289 1729 c 1,52,53
 299 1763 299 1763 306 1767.5 c 128,-1,54
 313 1772 313 1772 309 1745 c 1,55,56
 313 1454 313 1454 314 1178.5 c 128,-1,57
 315 903 315 903 315 612 c 0,58,59
 315 481 315 481 283.5 355 c 128,-1,60
 252 229 252 229 197 111 c 1,33,34
EndSplineSet
Substitution2: "Single Substitution lookup 210 subtable" glyph931
MultipleSubs2: "'fina' Terminal Forms in Arabic lookup 1 subtable" glyph984
EndChar

StartChar: uni0627
Encoding: 1575 1575 2
Width: 420
GlyphClass: 2
Flags: W
AnchorPoint: "Anchor-38" 163 -30 basechar 0
AnchorPoint: "Anchor-37" 266 1966 basechar 0
LayerCount: 2
Fore
SplineSet
154 408 m 0,0,1
 154 588 154 588 145.5 766 c 128,-1,2
 137 944 137 944 137 1124 c 0,3,4
 137 1184 137 1184 136 1254.5 c 128,-1,5
 135 1325 135 1325 154 1384 c 2,6,-1
 244 1677 l 1,7,8
 248 1673 248 1673 251 1631 c 128,-1,9
 254 1589 254 1589 256 1523.5 c 128,-1,10
 258 1458 258 1458 260 1376 c 128,-1,11
 262 1294 262 1294 263 1210 c 128,-1,12
 264 1126 264 1126 266 1048.5 c 128,-1,13
 268 971 268 971 270 913 c 1,14,-1
 270 731 l 2,15,16
 270 598 270 598 257 470 c 128,-1,17
 244 342 244 342 195 211 c 0,18,19
 188 195 188 195 174 163 c 128,-1,20
 160 131 160 131 147 119 c 1,21,22
 147 190 147 190 150.5 263 c 128,-1,23
 154 336 154 336 154 408 c 0,0,1
EndSplineSet
MultipleSubs2: "'fina' Terminal Forms in Arabic lookup 1 subtable" glyph47
EndChar

StartChar: uni062D
Encoding: 1581 1581 10
Width: 1587
GlyphClass: 2
Flags: W
AnchorPoint: "Anchor-38" 921 -747 basechar 0
AnchorPoint: "Anchor-37" 563 1484 basechar 0
LayerCount: 2
Fore
SplineSet
158 -39 m 1,0,1
 158 27 158 27 167 97.5 c 128,-1,2
 176 168 176 168 192.5 240.5 c 128,-1,3
 209 313 209 313 232.5 386 c 128,-1,4
 256 459 256 459 287.5 527.5 c 128,-1,5
 319 596 319 596 357 656.5 c 128,-1,6
 395 717 395 717 440 764 c 1,7,8
 446 772 446 772 460.5 788.5 c 128,-1,9
 475 805 475 805 497.5 827.5 c 128,-1,10
 520 850 520 850 550 878.5 c 128,-1,11
 580 907 580 907 618 938 c 1,12,13
 631 946 631 946 633 952 c 128,-1,14
 635 958 635 958 633 963.5 c 128,-1,15
 631 969 631 969 622.5 971 c 128,-1,16
 614 973 614 973 604 975 c 0,17,18
 578 979 578 979 551 981 c 128,-1,19
 524 983 524 983 498 983 c 0,20,21
 471 983 471 983 444.5 982 c 128,-1,22
 418 981 418 981 389 979 c 0,23,24
 340 975 340 975 307 959.5 c 128,-1,25
 274 944 274 944 248.5 923.5 c 128,-1,26
 223 903 223 903 202.5 878.5 c 128,-1,27
 182 854 182 854 158 829 c 1,28,29
 147 823 147 823 145 825 c 128,-1,30
 143 827 143 827 146.5 834.5 c 128,-1,31
 150 842 150 842 155 852 c 128,-1,32
 160 862 160 862 166 872.5 c 128,-1,33
 172 883 172 883 177 891 c 128,-1,34
 182 899 182 899 184 903 c 0,35,36
 219 950 219 950 247.5 985 c 128,-1,37
 276 1020 276 1020 303 1045.5 c 128,-1,38
 330 1071 330 1071 359.5 1086.5 c 128,-1,39
 389 1102 389 1102 424 1112 c 128,-1,40
 459 1122 459 1122 502 1125 c 128,-1,41
 545 1128 545 1128 602 1128 c 0,42,43
 610 1128 610 1128 631 1128 c 0,44,45
 651 1128 651 1128 676 1128 c 0,46,47
 702 1128 702 1128 730 1125 c 128,-1,48
 758 1122 758 1122 781.5 1117 c 128,-1,49
 805 1112 805 1112 820.5 1102 c 128,-1,50
 836 1092 836 1092 836 1077 c 0,51,52
 836 1063 836 1063 830.5 1049.5 c 128,-1,53
 825 1036 825 1036 817 1024 c 128,-1,54
 809 1012 809 1012 798.5 1001.5 c 128,-1,55
 788 991 788 991 778 979 c 1,56,57
 711 924 711 924 647.5 866.5 c 128,-1,58
 584 809 584 809 526.5 749.5 c 128,-1,59
 469 690 469 690 420 626.5 c 128,-1,60
 371 563 371 563 336 491.5 c 128,-1,61
 301 420 301 420 280.5 340 c 128,-1,62
 260 260 260 260 260 168 c 0,63,64
 260 74 260 74 280.5 -3 c 128,-1,65
 301 -80 301 -80 338 -138.5 c 128,-1,66
 375 -197 375 -197 425 -239 c 128,-1,67
 475 -281 475 -281 534.5 -303.5 c 128,-1,68
 594 -326 594 -326 658.5 -332 c 128,-1,69
 723 -338 723 -338 789.5 -325.5 c 128,-1,70
 856 -313 856 -313 921.5 -284.5 c 128,-1,71
 987 -256 987 -256 1047 -209 c 0,72,73
 1087 -178 1087 -178 1126 -136 c 128,-1,74
 1165 -94 1165 -94 1202 -46 c 128,-1,75
 1239 2 1239 2 1272 55.5 c 128,-1,76
 1305 109 1305 109 1332.5 161 c 128,-1,77
 1360 213 1360 213 1381.5 263 c 128,-1,78
 1403 313 1403 313 1417 354 c 1,79,80
 1430 371 1430 371 1436 371 c 256,81,82
 1442 371 1442 371 1443 360.5 c 128,-1,83
 1444 350 1444 350 1442 330.5 c 128,-1,84
 1440 311 1440 311 1435 287.5 c 128,-1,85
 1430 264 1430 264 1423.5 237.5 c 128,-1,86
 1417 211 1417 211 1410 187.5 c 128,-1,87
 1403 164 1403 164 1397 143.5 c 128,-1,88
 1391 123 1391 123 1386 109 c 0,89,90
 1337 -47 1337 -47 1263.5 -176 c 128,-1,91
 1190 -305 1190 -305 1096 -410 c 0,92,93
 1032 -481 1032 -481 958.5 -530.5 c 128,-1,94
 885 -580 885 -580 808 -607.5 c 128,-1,95
 731 -635 731 -635 653 -639 c 128,-1,96
 575 -643 575 -643 503.5 -622.5 c 128,-1,97
 432 -602 432 -602 369.5 -557 c 128,-1,98
 307 -512 307 -512 261 -439.5 c 128,-1,99
 215 -367 215 -367 187.5 -267.5 c 128,-1,100
 160 -168 160 -168 158 -39 c 1,0,1
EndSplineSet
MultipleSubs2: "'medi' Medial Forms in Arabic lookup 3 subtable" glyph491
MultipleSubs2: "'init' Initial Forms in Arabic lookup 2 subtable" glyph135
MultipleSubs2: "'fina' Terminal Forms in Arabic lookup 1 subtable" glyph60
EndChar

StartChar: uni062F
Encoding: 1583 1583 12
Width: 672
GlyphClass: 2
Flags: W
AnchorPoint: "Anchor-38" 204 -184 basechar 0
AnchorPoint: "Anchor-37" 317 1198 basechar 0
LayerCount: 2
Fore
SplineSet
385 244 m 1,0,1
 391 309 391 309 372.5 361.5 c 128,-1,2
 354 414 354 414 319.5 455 c 128,-1,3
 285 496 285 496 235.5 526.5 c 128,-1,4
 186 557 186 557 129 582 c 0,5,6
 125 584 125 584 125 588 c 256,7,8
 125 592 125 592 125 596 c 1,9,10
 127 602 127 602 134 616.5 c 128,-1,11
 141 631 141 631 148.5 647.5 c 128,-1,12
 156 664 156 664 162 678 c 128,-1,13
 168 692 168 692 170 698 c 0,14,15
 172 702 172 702 176 712.5 c 128,-1,16
 180 723 180 723 184 737.5 c 128,-1,17
 188 752 188 752 193.5 768 c 128,-1,18
 199 784 199 784 204 798.5 c 128,-1,19
 209 813 209 813 212 823.5 c 128,-1,20
 215 834 215 834 217 838 c 0,21,22
 219 846 219 846 222 854 c 128,-1,23
 225 862 225 862 238 862 c 1,24,25
 279 854 279 854 317.5 836.5 c 128,-1,26
 356 819 356 819 390 793.5 c 128,-1,27
 424 768 424 768 451.5 735 c 128,-1,28
 479 702 479 702 498.5 664.5 c 128,-1,29
 518 627 518 627 529.5 585 c 128,-1,30
 541 543 541 543 541 498 c 1,31,32
 539 453 539 453 527.5 411 c 128,-1,33
 516 369 516 369 498.5 327 c 128,-1,34
 481 285 481 285 457.5 245 c 128,-1,35
 434 205 434 205 412 166 c 0,36,37
 410 164 410 164 400.5 149.5 c 128,-1,38
 391 135 391 135 375.5 113.5 c 128,-1,39
 360 92 360 92 342 67.5 c 128,-1,40
 324 43 324 43 305 16 c 1,41,42
 289 12 289 12 260 4 c 128,-1,43
 231 -4 231 -4 197.5 -13.5 c 128,-1,44
 164 -23 164 -23 128 -32 c 128,-1,45
 92 -41 92 -41 60.5 -50 c 128,-1,46
 29 -59 29 -59 6.5 -64.5 c 128,-1,47
 -16 -70 -16 -70 -25 -72 c 0,48,49
 -27 -72 -27 -72 -38 -74 c 128,-1,50
 -49 -76 -49 -76 -57 -76 c 0,51,52
 -66 -76 -66 -76 -68 -72 c 128,-1,53
 -70 -68 -70 -68 -53 -57 c 1,54,55
 -41 -45 -41 -45 -13.5 -26.5 c 128,-1,56
 14 -8 14 -8 52 16.5 c 128,-1,57
 90 41 90 41 134 69.5 c 128,-1,58
 178 98 178 98 223 128 c 128,-1,59
 268 158 268 158 310 187.5 c 128,-1,60
 352 217 352 217 385 244 c 1,0,1
EndSplineSet
MultipleSubs2: "'fina' Terminal Forms in Arabic lookup 1 subtable" glyph62
EndChar

StartChar: uni0631
Encoding: 1585 1585 15
Width: 575
GlyphClass: 2
Flags: W
AnchorPoint: "Anchor-38" 143 -184 basechar 0
AnchorPoint: "Anchor-37" 399 1075 basechar 0
LayerCount: 2
Fore
SplineSet
422 709 m 1,0,1
 434 737 434 737 444.5 733 c 128,-1,2
 455 729 455 729 455 707 c 0,3,4
 453 635 453 635 444.5 568.5 c 128,-1,5
 436 502 436 502 424 436 c 0,6,7
 406 336 406 336 376 230.5 c 128,-1,8
 346 125 346 125 295 31 c 1,9,10
 283 6 283 6 251 -7 c 128,-1,11
 219 -20 219 -20 197 -29 c 1,12,13
 166 -39 166 -39 120 -53.5 c 128,-1,14
 74 -68 74 -68 31 -82 c 128,-1,15
 -12 -96 -12 -96 -45 -105.5 c 128,-1,16
 -78 -115 -78 -115 -80 -115 c 0,17,18
 -102 -123 -102 -123 -90 -104 c 1,19,20
 -16 -43 -16 -43 56.5 20.5 c 128,-1,21
 129 84 129 84 191.5 154.5 c 128,-1,22
 254 225 254 225 303 306 c 128,-1,23
 352 387 352 387 377 483 c 1,24,25
 389 539 389 539 398.5 596 c 128,-1,26
 408 653 408 653 422 709 c 1,0,1
EndSplineSet
MultipleSubs2: "'fina' Terminal Forms in Arabic lookup 1 subtable" uni0631.1
EndChar

StartChar: uni0633
Encoding: 1587 1587 19
Width: 1980
GlyphClass: 2
Flags: W
AnchorPoint: "Anchor-38" 983 -727 basechar 0
AnchorPoint: "Anchor-37" 634 1464 basechar 0
LayerCount: 2
Fore
SplineSet
147 -4 m 1,0,1
 147 156 147 156 179 310.5 c 128,-1,2
 211 465 211 465 266 614 c 0,3,4
 270 623 270 623 276.5 626 c 128,-1,5
 283 629 283 629 286 625 c 128,-1,6
 289 621 289 621 288 606.5 c 128,-1,7
 287 592 287 592 281 567 c 1,8,9
 268 524 268 524 259 482 c 128,-1,10
 250 440 250 440 243 398 c 128,-1,11
 236 356 236 356 232.5 314 c 128,-1,12
 229 272 229 272 229 229 c 0,13,14
 229 96 229 96 257 -4 c 128,-1,15
 285 -104 285 -104 333 -174 c 128,-1,16
 381 -244 381 -244 445.5 -284 c 128,-1,17
 510 -324 510 -324 583.5 -337 c 128,-1,18
 657 -350 657 -350 735 -339 c 128,-1,19
 813 -328 813 -328 890 -293 c 128,-1,20
 967 -258 967 -258 1036.5 -201.5 c 128,-1,21
 1106 -145 1106 -145 1163.5 -70.5 c 128,-1,22
 1221 4 1221 4 1259.5 96 c 128,-1,23
 1298 188 1298 188 1313 295 c 1,24,25
 1317 332 1317 332 1318 376 c 128,-1,26
 1319 420 1319 420 1318 468 c 128,-1,27
 1317 516 1317 516 1314 567 c 128,-1,28
 1311 618 1311 618 1305.5 666.5 c 128,-1,29
 1300 715 1300 715 1295 759 c 128,-1,30
 1290 803 1290 803 1284 840 c 0,31,32
 1284 842 1284 842 1282 853 c 128,-1,33
 1280 864 1280 864 1277 877.5 c 128,-1,34
 1274 891 1274 891 1272 902 c 128,-1,35
 1270 913 1270 913 1270 915 c 0,36,37
 1268 924 1268 924 1267 937 c 128,-1,38
 1266 950 1266 950 1267 966.5 c 128,-1,39
 1268 983 1268 983 1270 999.5 c 128,-1,40
 1272 1016 1272 1016 1277 1029 c 128,-1,41
 1282 1042 1282 1042 1289 1050.5 c 128,-1,42
 1296 1059 1296 1059 1307 1059 c 0,43,44
 1311 1059 1311 1059 1316 1055 c 128,-1,45
 1321 1051 1321 1051 1326 1045.5 c 128,-1,46
 1331 1040 1331 1040 1336 1035 c 128,-1,47
 1341 1030 1341 1030 1346 1028 c 0,48,49
 1374 1020 1374 1020 1400.5 1021 c 128,-1,50
 1427 1022 1427 1022 1451 1030 c 128,-1,51
 1475 1038 1475 1038 1495.5 1051.5 c 128,-1,52
 1516 1065 1516 1065 1528 1079 c 0,53,54
 1544 1096 1544 1096 1558.5 1111 c 128,-1,55
 1573 1126 1573 1126 1587.5 1137.5 c 128,-1,56
 1602 1149 1602 1149 1618 1156 c 128,-1,57
 1634 1163 1634 1163 1657 1163 c 0,58,59
 1669 1163 1669 1163 1679.5 1160 c 128,-1,60
 1690 1157 1690 1157 1701 1154 c 128,-1,61
 1712 1151 1712 1151 1722.5 1148 c 128,-1,62
 1733 1145 1733 1145 1745 1145 c 0,63,64
 1761 1145 1761 1145 1772.5 1151 c 128,-1,65
 1784 1157 1784 1157 1791 1167.5 c 128,-1,66
 1798 1178 1798 1178 1802 1189 c 128,-1,67
 1806 1200 1806 1200 1810 1212 c 1,68,69
 1815 1223 1815 1223 1819 1230 c 128,-1,70
 1823 1237 1823 1237 1827 1238 c 128,-1,71
 1831 1239 1831 1239 1834 1234 c 128,-1,72
 1837 1229 1837 1229 1837 1217 c 0,73,74
 1837 1202 1837 1202 1833 1181.5 c 128,-1,75
 1829 1161 1829 1161 1822 1137.5 c 128,-1,76
 1815 1114 1815 1114 1804.5 1090.5 c 128,-1,77
 1794 1067 1794 1067 1779.5 1048.5 c 128,-1,78
 1765 1030 1765 1030 1750 1019 c 128,-1,79
 1735 1008 1735 1008 1716 1008 c 0,80,81
 1702 1008 1702 1008 1687.5 1014 c 128,-1,82
 1673 1020 1673 1020 1657.5 1026 c 128,-1,83
 1642 1032 1642 1032 1627 1037 c 128,-1,84
 1612 1042 1612 1042 1595 1040 c 1,85,86
 1585 1040 1585 1040 1577 1035 c 128,-1,87
 1569 1030 1569 1030 1560.5 1023 c 128,-1,88
 1552 1016 1552 1016 1546 1007.5 c 128,-1,89
 1540 999 1540 999 1532 989 c 1,90,91
 1518 963 1518 963 1505.5 944.5 c 128,-1,92
 1493 926 1493 926 1479.5 911.5 c 128,-1,93
 1466 897 1466 897 1446.5 882.5 c 128,-1,94
 1427 868 1427 868 1399 850 c 1,95,96
 1401 721 1401 721 1396 588 c 128,-1,97
 1391 455 1391 455 1372 328 c 1,98,99
 1354 147 1354 147 1308 2 c 128,-1,100
 1262 -143 1262 -143 1196 -256 c 128,-1,101
 1130 -369 1130 -369 1050.5 -447.5 c 128,-1,102
 971 -526 971 -526 884 -572 c 128,-1,103
 797 -618 797 -618 706.5 -631.5 c 128,-1,104
 616 -645 616 -645 534.5 -627.5 c 128,-1,105
 453 -610 453 -610 380 -562 c 128,-1,106
 307 -514 307 -514 255 -436 c 128,-1,107
 203 -358 203 -358 173 -249.5 c 128,-1,108
 143 -141 143 -141 147 -4 c 1,0,1
EndSplineSet
MultipleSubs2: "'medi' Medial Forms in Arabic lookup 3 subtable" glyph517
MultipleSubs2: "'init' Initial Forms in Arabic lookup 2 subtable" glyph161
MultipleSubs2: "'fina' Terminal Forms in Arabic lookup 1 subtable" glyph81
EndChar

StartChar: uni0635
Encoding: 1589 1589 21
Width: 2263
GlyphClass: 2
Flags: W
AnchorPoint: "Anchor-38" 983 -727 basechar 0
AnchorPoint: "Anchor-37" 696 1382 basechar 0
LayerCount: 2
Fore
SplineSet
1935 1270 m 0,0,1
 1880 1270 1880 1270 1834 1239 c 128,-1,2
 1788 1208 1788 1208 1749 1174 c 1,3,4
 1706 1133 1706 1133 1652.5 1076.5 c 128,-1,5
 1599 1020 1599 1020 1561 973 c 1,6,7
 1622 969 1622 969 1691.5 981 c 128,-1,8
 1761 993 1761 993 1826.5 1018.5 c 128,-1,9
 1892 1044 1892 1044 1952.5 1082 c 128,-1,10
 2013 1120 2013 1120 2056 1167 c 1,11,12
 2060 1194 2060 1194 2049 1213.5 c 128,-1,13
 2038 1233 2038 1233 2019.5 1245 c 128,-1,14
 2001 1257 2001 1257 1978.5 1263.5 c 128,-1,15
 1956 1270 1956 1270 1935 1270 c 0,0,1
141 -39 m 0,16,17
 141 137 141 137 185 301 c 128,-1,18
 229 465 229 465 301 625 c 0,19,20
 303 629 303 629 310 645.5 c 128,-1,21
 317 662 317 662 322 666 c 1,22,23
 324 672 324 672 328 676 c 128,-1,24
 332 680 332 680 335 679 c 128,-1,25
 338 678 338 678 338 668 c 0,26,27
 338 659 338 659 332 635 c 1,28,29
 295 518 295 518 269.5 412.5 c 128,-1,30
 244 307 244 307 244 184 c 0,31,32
 244 86 244 86 269.5 -8 c 128,-1,33
 295 -102 295 -102 347 -174 c 128,-1,34
 399 -246 399 -246 478 -290 c 128,-1,35
 557 -334 557 -334 666 -334 c 0,36,37
 856 -334 856 -334 997.5 -235.5 c 128,-1,38
 1139 -137 1139 -137 1237 20 c 0,39,40
 1313 141 1313 141 1334.5 267 c 128,-1,41
 1356 393 1356 393 1356 526 c 0,42,43
 1356 610 1356 610 1353 693 c 128,-1,44
 1350 776 1350 776 1339 862 c 1,45,46
 1333 879 1333 879 1335 903.5 c 128,-1,47
 1337 928 1337 928 1343.5 951.5 c 128,-1,48
 1350 975 1350 975 1362 992.5 c 128,-1,49
 1374 1010 1374 1010 1391 1014 c 1,50,51
 1409 979 1409 979 1449 974 c 128,-1,52
 1489 969 1489 969 1524 973 c 1,53,54
 1581 1051 1581 1051 1646.5 1123.5 c 128,-1,55
 1712 1196 1712 1196 1776 1266 c 0,56,57
 1817 1311 1817 1311 1874 1346.5 c 128,-1,58
 1931 1382 1931 1382 1995 1382 c 0,59,60
 2060 1382 2060 1382 2092 1335 c 128,-1,61
 2124 1288 2124 1288 2118 1229 c 0,62,63
 2105 1110 2105 1110 2047 1003.5 c 128,-1,64
 1989 897 1989 897 1903 825 c 1,65,66
 1808 748 1808 748 1689.5 712 c 128,-1,67
 1571 676 1571 676 1452 666 c 1,68,69
 1448 627 1448 627 1444 583 c 128,-1,70
 1440 539 1440 539 1436 495 c 128,-1,71
 1432 451 1432 451 1425.5 409 c 128,-1,72
 1419 367 1419 367 1411 334 c 1,73,74
 1393 238 1393 238 1360 128 c 128,-1,75
 1327 18 1327 18 1279 -89.5 c 128,-1,76
 1231 -197 1231 -197 1165.5 -295 c 128,-1,77
 1100 -393 1100 -393 1018 -469 c 128,-1,78
 936 -545 936 -545 834.5 -590 c 128,-1,79
 733 -635 733 -635 612 -635 c 0,80,81
 496 -635 496 -635 406.5 -580.5 c 128,-1,82
 317 -526 317 -526 259 -440 c 128,-1,83
 201 -354 201 -354 171 -247.5 c 128,-1,84
 141 -141 141 -141 141 -39 c 0,16,17
EndSplineSet
MultipleSubs2: "'medi' Medial Forms in Arabic lookup 3 subtable" glyph543
MultipleSubs2: "'init' Initial Forms in Arabic lookup 2 subtable" glyph187
MultipleSubs2: "'fina' Terminal Forms in Arabic lookup 1 subtable" glyph83
EndChar

StartChar: uni0637
Encoding: 1591 1591 23
Width: 885
GlyphClass: 2
Flags: W
AnchorPoint: "Anchor-38" 286 -194 basechar 0
AnchorPoint: "Anchor-37" 614 1720 basechar 0
LayerCount: 2
Fore
SplineSet
201 61 m 2,0,1
 203 61 203 61 231.5 77.5 c 128,-1,2
 260 94 260 94 297 116.5 c 128,-1,3
 334 139 334 139 371 161.5 c 128,-1,4
 408 184 408 184 430 199 c 0,5,6
 494 240 494 240 549 281 c 128,-1,7
 604 322 604 322 651 379 c 0,8,9
 672 406 672 406 673 435.5 c 128,-1,10
 674 465 674 465 659.5 489.5 c 128,-1,11
 645 514 645 514 620.5 530.5 c 128,-1,12
 596 547 596 547 563 547 c 0,13,14
 528 547 528 547 493.5 533.5 c 128,-1,15
 459 520 459 520 428 496.5 c 128,-1,16
 397 473 397 473 372.5 443.5 c 128,-1,17
 348 414 348 414 334 383 c 1,18,19
 289 299 289 299 251 214 c 128,-1,20
 213 129 213 129 178 51 c 1,21,-1
 201 61 l 2,0,1
129 31 m 1,22,23
 147 74 147 74 165.5 123 c 128,-1,24
 184 172 184 172 200.5 225.5 c 128,-1,25
 217 279 217 279 228.5 332 c 128,-1,26
 240 385 240 385 246 434 c 1,27,28
 254 618 254 618 260 798.5 c 128,-1,29
 266 979 266 979 272 1161 c 1,30,31
 274 1169 274 1169 275 1175.5 c 128,-1,32
 276 1182 276 1182 276 1188 c 1,33,34
 297 1251 297 1251 324.5 1318.5 c 128,-1,35
 352 1386 352 1386 389 1489 c 0,36,37
 399 1518 399 1518 402.5 1505.5 c 128,-1,38
 406 1493 406 1493 406 1468 c 0,39,40
 399 1270 399 1270 393 1074.5 c 128,-1,41
 387 879 387 879 379 680 c 0,42,43
 379 670 379 670 377 648.5 c 128,-1,44
 375 627 375 627 372 602.5 c 128,-1,45
 369 578 369 578 364.5 554 c 128,-1,46
 360 530 360 530 358 516 c 1,47,48
 383 545 383 545 408.5 574.5 c 128,-1,49
 434 604 434 604 461.5 627.5 c 128,-1,50
 489 651 489 651 523 666.5 c 128,-1,51
 557 682 557 682 598 682 c 0,52,53
 670 682 670 682 706.5 632 c 128,-1,54
 743 582 743 582 743 514 c 0,55,56
 743 463 743 463 713.5 391 c 128,-1,57
 684 319 684 319 641 248.5 c 128,-1,58
 598 178 598 178 548 117.5 c 128,-1,59
 498 57 498 57 457 31 c 1,60,61
 444 20 444 20 417.5 12 c 128,-1,62
 391 4 391 4 379 0 c 0,63,64
 268 -31 268 -31 156.5 -61.5 c 128,-1,65
 45 -92 45 -92 -66 -123 c 0,66,67
 -82 -127 -82 -127 -90 -124 c 128,-1,68
 -98 -121 -98 -121 -80 -104 c 0,69,70
 -66 -90 -66 -90 -34 -70.5 c 128,-1,71
 -2 -51 -2 -51 30.5 -32.5 c 128,-1,72
 63 -14 63 -14 91 2 c 128,-1,73
 119 18 119 18 129 31 c 1,22,23
EndSplineSet
MultipleSubs2: "'medi' Medial Forms in Arabic lookup 3 subtable" glyph569
MultipleSubs2: "'init' Initial Forms in Arabic lookup 2 subtable" glyph213
MultipleSubs2: "'fina' Terminal Forms in Arabic lookup 1 subtable" glyph85
EndChar

StartChar: uni0639
Encoding: 1593 1593 25
Width: 1559
GlyphClass: 2
Flags: W
AnchorPoint: "Anchor-38" 819 -788 basechar 0
AnchorPoint: "Anchor-37" 614 1576 basechar 0
LayerCount: 2
Fore
SplineSet
145 -45 m 0,0,1
 145 141 145 141 201.5 319.5 c 128,-1,2
 258 498 258 498 369 649 c 1,3,4
 369 651 369 651 372 655 c 128,-1,5
 375 659 375 659 365 664 c 1,6,7
 346 678 346 678 325.5 693.5 c 128,-1,8
 305 709 305 709 287.5 727 c 128,-1,9
 270 745 270 745 259 768 c 128,-1,10
 248 791 248 791 248 817 c 0,11,12
 248 836 248 836 258 852 c 1,13,14
 262 856 262 856 271.5 867.5 c 128,-1,15
 281 879 281 879 292 893 c 128,-1,16
 303 907 303 907 311 918.5 c 128,-1,17
 319 930 319 930 324 934 c 1,18,19
 360 985 360 985 393 1041.5 c 128,-1,20
 426 1098 426 1098 463 1147 c 128,-1,21
 500 1196 500 1196 545 1228 c 128,-1,22
 590 1260 590 1260 651 1260 c 0,23,24
 672 1260 672 1260 695.5 1253.5 c 128,-1,25
 719 1247 719 1247 739.5 1235 c 128,-1,26
 760 1223 760 1223 774 1204.5 c 128,-1,27
 788 1186 788 1186 791 1163 c 1,28,29
 793 1137 793 1137 770.5 1122.5 c 128,-1,30
 748 1108 748 1108 725 1108 c 0,31,32
 700 1108 700 1108 683 1113 c 128,-1,33
 666 1118 666 1118 650.5 1123 c 128,-1,34
 635 1128 635 1128 619.5 1133.5 c 128,-1,35
 604 1139 604 1139 586 1139 c 0,36,37
 563 1139 563 1139 527.5 1124.5 c 128,-1,38
 492 1110 492 1110 455 1067 c 1,39,40
 436 1047 436 1047 439 1029.5 c 128,-1,41
 442 1012 442 1012 457 997 c 1,42,43
 489 956 489 956 534.5 923.5 c 128,-1,44
 580 891 580 891 629 891 c 0,45,46
 645 891 645 891 659.5 893 c 128,-1,47
 674 895 674 895 688 903 c 0,48,49
 700 911 700 911 724 925.5 c 128,-1,50
 748 940 748 940 771.5 954.5 c 128,-1,51
 795 969 795 969 812 979 c 128,-1,52
 829 989 829 989 831 991 c 0,53,54
 838 995 838 995 854 1007.5 c 128,-1,55
 870 1020 870 1020 888.5 1033.5 c 128,-1,56
 907 1047 907 1047 924.5 1058 c 128,-1,57
 942 1069 942 1069 948 1073 c 0,58,59
 967 1083 967 1083 971 1077 c 128,-1,60
 975 1071 975 1071 972 1064 c 128,-1,61
 969 1057 969 1057 955.5 1041.5 c 128,-1,62
 942 1026 942 1026 934 1016 c 1,63,64
 928 1012 928 1012 919.5 1002.5 c 128,-1,65
 911 993 911 993 902 984 c 128,-1,66
 893 975 893 975 886 968 c 128,-1,67
 879 961 879 961 877 961 c 1,68,69
 854 940 854 940 837.5 926.5 c 128,-1,70
 821 913 821 913 807 901 c 128,-1,71
 793 889 793 889 778.5 877.5 c 128,-1,72
 764 866 764 866 743 850 c 0,73,74
 702 819 702 819 671.5 796.5 c 128,-1,75
 641 774 641 774 610.5 749.5 c 128,-1,76
 580 725 580 725 545 697.5 c 128,-1,77
 510 670 510 670 463 627 c 1,78,79
 358 539 358 539 304 427 c 128,-1,80
 250 315 250 315 252 174 c 1,81,82
 252 70 252 70 277.5 -24.5 c 128,-1,83
 303 -119 303 -119 356.5 -188.5 c 128,-1,84
 410 -258 410 -258 491.5 -299 c 128,-1,85
 573 -340 573 -340 688 -336 c 0,86,87
 829 -332 829 -332 942 -278.5 c 128,-1,88
 1055 -225 1055 -225 1142 -137 c 128,-1,89
 1229 -49 1229 -49 1291.5 63.5 c 128,-1,90
 1354 176 1354 176 1395 301 c 0,91,92
 1401 319 1401 319 1407 314 c 128,-1,93
 1413 309 1413 309 1415 289 c 0,94,95
 1415 279 1415 279 1413 263.5 c 128,-1,96
 1411 248 1411 248 1408 231.5 c 128,-1,97
 1405 215 1405 215 1402 198.5 c 128,-1,98
 1399 182 1399 182 1395 172 c 0,99,100
 1366 78 1366 78 1328 -18.5 c 128,-1,101
 1290 -115 1290 -115 1239 -204 c 128,-1,102
 1188 -293 1188 -293 1124.5 -372 c 128,-1,103
 1061 -451 1061 -451 981 -509 c 128,-1,104
 901 -567 901 -567 807 -600 c 128,-1,105
 713 -633 713 -633 602 -633 c 0,106,107
 526 -633 526 -633 466 -610.5 c 128,-1,108
 406 -588 406 -588 344 -545 c 0,109,110
 285 -504 285 -504 246 -445.5 c 128,-1,111
 207 -387 207 -387 184.5 -321.5 c 128,-1,112
 162 -256 162 -256 153.5 -185.5 c 128,-1,113
 145 -115 145 -115 145 -45 c 0,0,1
EndSplineSet
MultipleSubs2: "'medi' Medial Forms in Arabic lookup 3 subtable" glyph595
MultipleSubs2: "'init' Initial Forms in Arabic lookup 2 subtable" glyph239
MultipleSubs2: "'fina' Terminal Forms in Arabic lookup 1 subtable" glyph87
EndChar

StartChar: uni0641
Encoding: 1601 1601 27
Width: 2263
GlyphClass: 2
Flags: W
AnchorPoint: "Anchor-38" 1105 -348 basechar 0
AnchorPoint: "Anchor-37" 1044 1372 basechar 0
LayerCount: 2
Fore
SplineSet
150 123 m 1,0,1
 137 233 137 233 153.5 326.5 c 128,-1,2
 170 420 170 420 190 522 c 0,3,4
 195 551 195 551 205 552 c 128,-1,5
 215 553 215 553 215 532 c 2,6,-1
 215 510 l 1,7,-1
 215 475 l 1,8,-1
 215 438 l 1,9,-1
 215 416 l 1,10,11
 217 350 217 350 262 309 c 128,-1,12
 307 268 307 268 369.5 243.5 c 128,-1,13
 432 219 432 219 499.5 206 c 128,-1,14
 567 193 567 193 614 184 c 0,15,16
 678 172 678 172 785.5 169 c 128,-1,17
 893 166 893 166 1020 172 c 128,-1,18
 1147 178 1147 178 1285 191.5 c 128,-1,19
 1423 205 1423 205 1549 226.5 c 128,-1,20
 1675 248 1675 248 1778.5 275.5 c 128,-1,21
 1882 303 1882 303 1942 338 c 0,22,23
 1954 346 1954 346 1974.5 357.5 c 128,-1,24
 1995 369 1995 369 2013.5 383 c 128,-1,25
 2032 397 2032 397 2045 413.5 c 128,-1,26
 2058 430 2058 430 2058 449 c 0,27,28
 2058 457 2058 457 2050 467 c 128,-1,29
 2042 477 2042 477 2029.5 486.5 c 128,-1,30
 2017 496 2017 496 2005 502 c 128,-1,31
 1993 508 1993 508 1985 508 c 2,32,-1
 1982 508 l 1,33,34
 1944 457 1944 457 1878 457 c 0,35,36
 1821 457 1821 457 1776 500 c 128,-1,37
 1731 543 1731 543 1731 600 c 2,38,-1
 1731 610 l 1,39,-1
 1731 621 l 1,40,41
 1735 631 1735 631 1743 656.5 c 128,-1,42
 1751 682 1751 682 1759 709.5 c 128,-1,43
 1767 737 1767 737 1775.5 762.5 c 128,-1,44
 1784 788 1784 788 1788 799 c 0,45,46
 1794 821 1794 821 1799 851 c 128,-1,47
 1804 881 1804 881 1815.5 906.5 c 128,-1,48
 1827 932 1827 932 1845.5 950.5 c 128,-1,49
 1864 969 1864 969 1898 969 c 0,50,51
 1956 969 1956 969 1997 921.5 c 128,-1,52
 2038 874 2038 874 2065.5 809.5 c 128,-1,53
 2093 745 2093 745 2106.5 677.5 c 128,-1,54
 2120 610 2120 610 2120 569 c 0,55,56
 2120 508 2120 508 2107.5 449.5 c 128,-1,57
 2095 391 2095 391 2075 334 c 1,58,59
 2013 182 2013 182 1887 97 c 128,-1,60
 1761 12 1761 12 1608 -25 c 1,61,62
 1436 -68 1436 -68 1266 -91.5 c 128,-1,63
 1096 -115 1096 -115 940 -122 c 128,-1,64
 784 -129 784 -129 649 -122 c 128,-1,65
 514 -115 514 -115 410 -96 c 0,66,67
 371 -88 371 -88 326 -71.5 c 128,-1,68
 281 -55 281 -55 242 -28.5 c 128,-1,69
 203 -2 203 -2 176.5 36 c 128,-1,70
 150 74 150 74 150 123 c 1,0,1
1243 907 m 0,71,72
 1251 899 1251 899 1252 897 c 128,-1,73
 1253 895 1253 895 1245 885 c 0,74,75
 1202 838 1202 838 1158 790.5 c 128,-1,76
 1114 743 1114 743 1071 696 c 0,77,78
 1061 686 1061 686 1059 685 c 128,-1,79
 1057 684 1057 684 1047 694 c 0,80,81
 1006 733 1006 733 968 772 c 128,-1,82
 930 811 930 811 891 850 c 0,83,84
 881 860 881 860 881 864 c 0,85,86
 881 870 881 870 891 881 c 0,87,88
 934 928 934 928 978 975 c 128,-1,89
 1022 1022 1022 1022 1065 1069 c 0,90,91
 1071 1077 1071 1077 1079 1069 c 0,92,93
 1120 1028 1120 1028 1161 988 c 128,-1,94
 1202 948 1202 948 1243 907 c 0,71,72
EndSplineSet
MultipleSubs2: "'medi' Medial Forms in Arabic lookup 3 subtable" glyph621 glyph836
MultipleSubs2: "'init' Initial Forms in Arabic lookup 2 subtable" glyph265 glyph836
MultipleSubs2: "'fina' Terminal Forms in Arabic lookup 1 subtable" glyph89
EndChar

StartChar: uni0642
Encoding: 1602 1602 28
Width: 1556
GlyphClass: 2
Flags: W
AnchorPoint: "Anchor-38" 983 -747 basechar 0
AnchorPoint: "Anchor-37" 696 1843 basechar 0
LayerCount: 2
Fore
SplineSet
358 1356 m 0,0,1
 346 1368 346 1368 358 1380 c 0,2,3
 410 1432 410 1432 459 1484 c 128,-1,4
 508 1536 508 1536 561 1589 c 0,5,6
 569 1597 569 1597 569 1593 c 0,7,8
 569 1591 569 1591 578 1581 c 1,9,10
 643 1487 643 1487 731 1419 c 1,11,12
 774 1464 774 1464 817 1508 c 128,-1,13
 860 1552 860 1552 903 1595 c 0,14,15
 913 1606 913 1606 915.5 1607 c 128,-1,16
 918 1608 918 1608 930 1595 c 0,17,18
 971 1554 971 1554 1007.5 1516.5 c 128,-1,19
 1044 1479 1044 1479 1085 1438 c 1,20,21
 1098 1430 1098 1430 1087 1419 c 0,22,23
 1042 1372 1042 1372 998 1325 c 128,-1,24
 954 1278 954 1278 911 1231 c 0,25,26
 901 1221 901 1221 898 1220 c 128,-1,27
 895 1219 895 1219 885 1229 c 0,28,29
 866 1247 866 1247 844.5 1268.5 c 128,-1,30
 823 1290 823 1290 800.5 1311.5 c 128,-1,31
 778 1333 778 1333 758.5 1350.5 c 128,-1,32
 739 1368 739 1368 725 1378 c 1,33,34
 682 1333 682 1333 639 1289 c 128,-1,35
 596 1245 596 1245 551 1200 c 1,36,37
 543 1190 543 1190 530 1198 c 1,38,39
 489 1231 489 1231 440 1276 c 128,-1,40
 391 1321 391 1321 358 1356 c 0,0,1
143 -37 m 1,41,42
 147 104 147 104 174 232 c 128,-1,43
 201 360 201 360 246 487 c 0,44,45
 246 489 246 489 254 507.5 c 128,-1,46
 262 526 262 526 271.5 550.5 c 128,-1,47
 281 575 281 575 291 601 c 128,-1,48
 301 627 301 627 307 641 c 0,49,50
 324 684 324 684 334 680 c 128,-1,51
 344 676 344 676 332 641 c 1,52,53
 297 524 297 524 268.5 417.5 c 128,-1,54
 240 311 240 311 240 188 c 0,55,56
 240 86 240 86 266.5 -8 c 128,-1,57
 293 -102 293 -102 348 -174 c 128,-1,58
 403 -246 403 -246 486 -289 c 128,-1,59
 569 -332 569 -332 684 -332 c 0,60,61
 780 -332 780 -332 864 -300 c 128,-1,62
 948 -268 948 -268 1019 -215 c 128,-1,63
 1090 -162 1090 -162 1148 -91 c 128,-1,64
 1206 -20 1206 -20 1253 57 c 1,65,66
 1294 129 1294 129 1317.5 194.5 c 128,-1,67
 1341 260 1341 260 1341 344 c 0,68,69
 1341 391 1341 391 1334 436 c 128,-1,70
 1327 481 1327 481 1290 518 c 1,71,72
 1278 528 1278 528 1268 528 c 0,73,74
 1245 528 1245 528 1225.5 515 c 128,-1,75
 1206 502 1206 502 1178 502 c 0,76,77
 1106 502 1106 502 1057 551 c 128,-1,78
 1008 600 1008 600 1008 670 c 2,79,-1
 1008 692 l 1,80,81
 1030 756 1030 756 1051.5 819.5 c 128,-1,82
 1073 883 1073 883 1096 948 c 0,83,84
 1108 983 1108 983 1133.5 1008.5 c 128,-1,85
 1159 1034 1159 1034 1198 1034 c 0,86,87
 1264 1034 1264 1034 1302.5 990 c 128,-1,88
 1341 946 1341 946 1363.5 884.5 c 128,-1,89
 1386 823 1386 823 1396.5 756.5 c 128,-1,90
 1407 690 1407 690 1410 667.5 c 128,-1,91
 1413 645 1413 645 1413 625 c 0,92,93
 1413 604 1413 604 1412 576.5 c 128,-1,94
 1411 549 1411 549 1410 519 c 128,-1,95
 1409 489 1409 489 1409 471 c 0,96,97
 1407 373 1407 373 1384.5 253 c 128,-1,98
 1362 133 1362 133 1319 10 c 128,-1,99
 1276 -113 1276 -113 1212.5 -229.5 c 128,-1,100
 1149 -346 1149 -346 1064 -436 c 128,-1,101
 979 -526 979 -526 873.5 -580.5 c 128,-1,102
 768 -635 768 -635 643 -635 c 0,103,104
 516 -635 516 -635 423 -585 c 128,-1,105
 330 -535 330 -535 267.5 -452 c 128,-1,106
 205 -369 205 -369 174 -261.5 c 128,-1,107
 143 -154 143 -154 143 -37 c 1,41,42
EndSplineSet
MultipleSubs2: "'medi' Medial Forms in Arabic lookup 3 subtable" glyph621 glyph837
MultipleSubs2: "'init' Initial Forms in Arabic lookup 2 subtable" glyph265 glyph837
MultipleSubs2: "'fina' Terminal Forms in Arabic lookup 1 subtable" glyph90
EndChar

StartChar: uni06A9
Encoding: 1705 1705 29
Width: 1661
GlyphClass: 2
Flags: W
AnchorPoint: "Anchor-38" 819 -276 basechar 0
AnchorPoint: "Anchor-37" 614 1443 basechar 0
LayerCount: 2
Fore
SplineSet
143 186 m 0,0,1
 143 274 143 274 162.5 367.5 c 128,-1,2
 182 461 182 461 211 545 c 1,3,4
 217 559 217 559 229 559 c 0,5,6
 242 559 242 559 236 535 c 0,7,8
 231 514 231 514 229 493.5 c 128,-1,9
 227 473 227 473 227 451 c 0,10,11
 227 381 227 381 259 335 c 128,-1,12
 291 289 291 289 341 258 c 128,-1,13
 391 227 391 227 451.5 212 c 128,-1,14
 512 197 512 197 569 193 c 1,15,16
 760 176 760 176 933 208 c 128,-1,17
 1106 240 1106 240 1276 315 c 0,18,19
 1315 332 1315 332 1339.5 352.5 c 128,-1,20
 1364 373 1364 373 1378.5 399.5 c 128,-1,21
 1393 426 1393 426 1399 457.5 c 128,-1,22
 1405 489 1405 489 1405 530 c 2,23,-1
 1405 1677 l 2,24,25
 1405 1729 1405 1729 1419.5 1800.5 c 128,-1,26
 1434 1872 1434 1872 1457.5 1944.5 c 128,-1,27
 1481 2017 1481 2017 1514.5 2081.5 c 128,-1,28
 1548 2146 1548 2146 1587 2185 c 1,29,30
 1665 2255 1665 2255 1719.5 2301 c 128,-1,31
 1774 2347 1774 2347 1821 2384 c 128,-1,32
 1868 2421 1868 2421 1916 2456.5 c 128,-1,33
 1964 2492 1964 2492 2029.5 2539.5 c 128,-1,34
 2095 2587 2095 2587 2185 2653.5 c 128,-1,35
 2275 2720 2275 2720 2408 2818 c 0,36,37
 2413 2822 2413 2822 2421 2829 c 128,-1,38
 2429 2836 2429 2836 2439 2844.5 c 128,-1,39
 2449 2853 2449 2853 2457.5 2860 c 128,-1,40
 2466 2867 2466 2867 2470 2869 c 0,41,42
 2484 2879 2484 2879 2487 2875 c 128,-1,43
 2490 2871 2490 2871 2480 2855 c 0,44,45
 2445 2798 2445 2798 2401 2734.5 c 128,-1,46
 2357 2671 2357 2671 2316 2623 c 1,47,48
 2279 2583 2279 2583 2230 2540 c 128,-1,49
 2181 2497 2181 2497 2105.5 2439.5 c 128,-1,50
 2030 2382 2030 2382 1920 2299 c 128,-1,51
 1810 2216 1810 2216 1655 2097 c 0,52,53
 1632 2079 1632 2079 1607.5 2058.5 c 128,-1,54
 1583 2038 1583 2038 1562.5 2015.5 c 128,-1,55
 1542 1993 1542 1993 1526.5 1965 c 128,-1,56
 1511 1937 1511 1937 1507 1907 c 1,57,-1
 1507 1761 l 2,58,59
 1507 1595 1507 1595 1509 1433.5 c 128,-1,60
 1511 1272 1511 1272 1511 1106 c 2,61,-1
 1511 893 l 2,62,63
 1511 879 1511 879 1509 838 c 128,-1,64
 1507 797 1507 797 1505 753 c 128,-1,65
 1503 709 1503 709 1500 668 c 128,-1,66
 1497 627 1497 627 1497 612 c 1,67,68
 1477 479 1477 479 1446 370.5 c 128,-1,69
 1415 262 1415 262 1359 178 c 128,-1,70
 1303 94 1303 94 1214.5 33.5 c 128,-1,71
 1126 -27 1126 -27 989 -63 c 1,72,73
 891 -90 891 -90 787.5 -102.5 c 128,-1,74
 684 -115 684 -115 580 -115 c 0,75,76
 504 -115 504 -115 426 -102.5 c 128,-1,77
 348 -90 348 -90 285.5 -56.5 c 128,-1,78
 223 -23 223 -23 183 35.5 c 128,-1,79
 143 94 143 94 143 186 c 0,0,1
EndSplineSet
MultipleSubs2: "'medi' Medial Forms in Arabic lookup 3 subtable" glyph647
MultipleSubs2: "'init' Initial Forms in Arabic lookup 2 subtable" glyph291
MultipleSubs2: "'fina' Terminal Forms in Arabic lookup 1 subtable" glyph92
EndChar

StartChar: uni06AF
Encoding: 1711 1711 30
Width: 1661
GlyphClass: 2
Flags: W
AnchorPoint: "Anchor-38" 819 -276 basechar 0
AnchorPoint: "Anchor-37" 614 1443 basechar 0
LayerCount: 2
Fore
SplineSet
1589 2441 m 0,0,1
 1706 2533 1706 2533 1818.5 2615 c 0,2,3
 1931 2697 1931 2697 2048 2783 c 0,4,5
 2103 2824 2103 2824 2153.5 2856 c 0,6,7
 2204 2888 2204 2888 2245 2914 c 1,8,9
 2249 2918 2249 2918 2253 2918 c 256,10,11
 2257 2918 2257 2918 2253 2908 c 1,12,13
 2218 2855 2218 2855 2176 2801.5 c 0,14,15
 2134 2748 2134 2748 2087 2707 c 1,16,17
 1935 2599 1935 2599 1838 2525 c 0,18,19
 1741 2451 1741 2451 1673 2396 c 0,20,21
 1608 2343 1608 2343 1560.5 2303 c 0,22,23
 1513 2263 1513 2263 1489 2241 c 1,24,25
 1464 2220 1464 2220 1457 2215 c 0,26,27
 1450 2210 1450 2210 1444 2206 c 0,28,29
 1440 2204 1440 2204 1439 2209 c 0,30,31
 1438 2214 1438 2214 1450 2234 c 1,32,33
 1454 2245 1454 2245 1460 2259 c 0,34,35
 1466 2273 1466 2273 1470 2281 c 0,36,37
 1499 2335 1499 2335 1521.5 2370.5 c 0,38,39
 1544 2406 1544 2406 1589 2441 c 0,0,1
EndSplineSet
Refer: 29 1705 N 1 0 0 1 0 0 3
MultipleSubs2: "'medi' Medial Forms in Arabic lookup 3 subtable" glyph665
MultipleSubs2: "'init' Initial Forms in Arabic lookup 2 subtable" uni06AF.1
MultipleSubs2: "'fina' Terminal Forms in Arabic lookup 1 subtable" glyph93
EndChar

StartChar: uni0644
Encoding: 1604 1604 31
Width: 1614
GlyphClass: 2
Flags: W
AnchorPoint: "Anchor-38" 983 -757 basechar 0
AnchorPoint: "Anchor-37" 665 1576 basechar 0
LayerCount: 2
Fore
SplineSet
143 -33 m 1,0,1
 145 76 145 76 165.5 178.5 c 128,-1,2
 186 281 186 281 211 375 c 1,3,4
 246 485 246 485 270.5 547.5 c 128,-1,5
 295 610 295 610 310.5 636 c 128,-1,6
 326 662 326 662 330 653.5 c 128,-1,7
 334 645 334 645 328 614 c 1,8,9
 313 561 313 561 298 511 c 128,-1,10
 283 461 283 461 271.5 411.5 c 128,-1,11
 260 362 260 362 253 312 c 128,-1,12
 246 262 246 262 246 209 c 0,13,14
 246 109 246 109 269.5 12.5 c 128,-1,15
 293 -84 293 -84 342 -161 c 128,-1,16
 391 -238 391 -238 471 -286 c 128,-1,17
 551 -334 551 -334 664 -338 c 1,18,19
 776 -340 776 -340 880.5 -297 c 128,-1,20
 985 -254 985 -254 1073 -180 c 128,-1,21
 1161 -106 1161 -106 1227.5 -9 c 128,-1,22
 1294 88 1294 88 1331 195 c 1,23,24
 1348 240 1348 240 1354 287 c 128,-1,25
 1360 334 1360 334 1361 382 c 128,-1,26
 1362 430 1362 430 1361 479 c 128,-1,27
 1360 528 1360 528 1362 580 c 1,28,29
 1362 825 1362 825 1351.5 1070 c 128,-1,30
 1341 1315 1341 1315 1341 1563 c 0,31,32
 1341 1575 1341 1575 1342 1604.5 c 128,-1,33
 1343 1634 1343 1634 1348 1659 c 1,34,35
 1360 1696 1360 1696 1370 1726.5 c 128,-1,36
 1380 1757 1380 1757 1390.5 1787 c 128,-1,37
 1401 1817 1401 1817 1411 1846.5 c 128,-1,38
 1421 1876 1421 1876 1436 1913 c 1,39,40
 1440 1931 1440 1931 1446 1945.5 c 128,-1,41
 1452 1960 1452 1960 1457 1963 c 128,-1,42
 1462 1966 1462 1966 1465 1954 c 128,-1,43
 1468 1942 1468 1942 1466 1911 c 1,44,45
 1470 1833 1470 1833 1467 1739 c 128,-1,46
 1464 1645 1464 1645 1464 1556 c 2,47,-1
 1464 788 l 1,48,49
 1462 772 1462 772 1460 729 c 128,-1,50
 1458 686 1458 686 1455 638 c 128,-1,51
 1452 590 1452 590 1449 547 c 128,-1,52
 1446 504 1446 504 1444 487 c 0,53,54
 1436 397 1436 397 1417.5 305 c 128,-1,55
 1399 213 1399 213 1372 129 c 1,56,57
 1350 43 1350 43 1314 -47 c 128,-1,58
 1278 -137 1278 -137 1228 -221 c 128,-1,59
 1178 -305 1178 -305 1114.5 -381 c 128,-1,60
 1051 -457 1051 -457 975 -513 c 128,-1,61
 899 -569 899 -569 811 -602 c 128,-1,62
 723 -635 723 -635 625 -635 c 0,63,64
 500 -635 500 -635 409.5 -581.5 c 128,-1,65
 319 -528 319 -528 260 -444 c 128,-1,66
 201 -360 201 -360 172 -251.5 c 128,-1,67
 143 -143 143 -143 143 -33 c 1,0,1
EndSplineSet
MultipleSubs2: "'medi' Medial Forms in Arabic lookup 3 subtable" glyph719
MultipleSubs2: "'init' Initial Forms in Arabic lookup 2 subtable" glyph363
MultipleSubs2: "'fina' Terminal Forms in Arabic lookup 1 subtable" glyph94
EndChar

StartChar: uni0645
Encoding: 1605 1605 32
Width: 1237
GlyphClass: 2
Flags: W
AnchorPoint: "Anchor-38" 624 -481 basechar 0
AnchorPoint: "Anchor-37" 573 1310 basechar 0
LayerCount: 2
Fore
SplineSet
180 -1513 m 1,0,1
 168 -1286 168 -1286 155.5 -1061 c 128,-1,2
 143 -836 143 -836 143 -608 c 0,3,4
 143 -434 143 -434 148.5 -259 c 128,-1,5
 154 -84 154 -84 201 84 c 0,6,7
 231 193 231 193 279.5 289 c 128,-1,8
 328 385 328 385 395.5 462 c 128,-1,9
 463 539 463 539 552 591 c 128,-1,10
 641 643 641 643 756 666 c 1,11,12
 743 678 743 678 727 682 c 128,-1,13
 711 686 711 686 719 709 c 1,14,15
 741 756 741 756 767 800 c 128,-1,16
 793 844 793 844 815 887 c 0,17,18
 825 907 825 907 836.5 928.5 c 128,-1,19
 848 950 848 950 864 950 c 0,20,21
 899 950 899 950 940 931.5 c 128,-1,22
 981 913 981 913 1016 882.5 c 128,-1,23
 1051 852 1051 852 1074.5 815 c 128,-1,24
 1098 778 1098 778 1098 741 c 0,25,26
 1098 707 1098 707 1087.5 676 c 128,-1,27
 1077 645 1077 645 1061 616 c 0,28,29
 1014 530 1014 530 930 479 c 128,-1,30
 846 428 846 428 750 412 c 1,31,32
 743 412 743 412 724 409 c 128,-1,33
 705 406 705 406 682 401.5 c 128,-1,34
 659 397 659 397 640 394 c 128,-1,35
 621 391 621 391 616 391 c 0,36,37
 561 381 561 381 503.5 355.5 c 128,-1,38
 446 330 446 330 396 291 c 128,-1,39
 346 252 346 252 311 201 c 128,-1,40
 276 150 276 150 268 88 c 1,41,42
 258 37 258 37 254 -11 c 128,-1,43
 250 -59 250 -59 248 -111 c 0,44,45
 248 -113 248 -113 247 -165 c 128,-1,46
 246 -217 246 -217 244 -289.5 c 128,-1,47
 242 -362 242 -362 240 -440 c 128,-1,48
 238 -518 238 -518 238 -567 c 1,49,50
 233 -809 233 -809 229 -1048.5 c 128,-1,51
 225 -1288 225 -1288 221 -1530 c 1,52,53
 219 -1552 219 -1552 217 -1578 c 128,-1,54
 215 -1604 215 -1604 211 -1626 c 1,55,-1
 207 -1622 l 1,56,57
 195 -1593 195 -1593 189.5 -1568.5 c 128,-1,58
 184 -1544 184 -1544 180 -1513 c 1,0,1
EndSplineSet
MultipleSubs2: "'medi' Medial Forms in Arabic lookup 3 subtable" glyph744
MultipleSubs2: "'init' Initial Forms in Arabic lookup 2 subtable" glyph387
MultipleSubs2: "'fina' Terminal Forms in Arabic lookup 1 subtable" glyph95
EndChar

StartChar: uni06BA
Encoding: 1722 1722 34
Width: 1561
GlyphClass: 2
Flags: W
AnchorPoint: "Anchor-38" 1013 -768 basechar 0
AnchorPoint: "Anchor-37" 737 1454 basechar 0
LayerCount: 2
Fore
SplineSet
143 0 m 0,0,1
 143 156 143 156 183 306.5 c 128,-1,2
 223 457 223 457 287 600 c 0,3,4
 303 635 303 635 312.5 643 c 128,-1,5
 322 651 322 651 325 643 c 128,-1,6
 328 635 328 635 325 614.5 c 128,-1,7
 322 594 322 594 313 569 c 0,8,9
 301 537 301 537 287.5 491.5 c 128,-1,10
 274 446 274 446 264 395 c 128,-1,11
 254 344 254 344 247 291 c 128,-1,12
 240 238 240 238 240 188 c 0,13,14
 240 90 240 90 266.5 -3 c 128,-1,15
 293 -96 293 -96 345 -170 c 128,-1,16
 397 -244 397 -244 478 -288 c 128,-1,17
 559 -332 559 -332 668 -332 c 0,18,19
 754 -332 754 -332 829.5 -310.5 c 128,-1,20
 905 -289 905 -289 971.5 -250 c 128,-1,21
 1038 -211 1038 -211 1095.5 -154.5 c 128,-1,22
 1153 -98 1153 -98 1202 -29 c 1,23,24
 1243 27 1243 27 1277 92.5 c 128,-1,25
 1311 158 1311 158 1315 227 c 0,26,27
 1315 236 1315 236 1316 254 c 128,-1,28
 1317 272 1317 272 1317 293 c 0,29,30
 1317 313 1317 313 1317 330 c 0,31,32
 1317 350 1317 350 1317 358 c 0,33,34
 1317 489 1317 489 1306.5 619.5 c 128,-1,35
 1296 750 1296 750 1300 883 c 1,36,37
 1317 958 1317 958 1335.5 1035 c 128,-1,38
 1354 1112 1354 1112 1372 1190 c 0,39,40
 1374 1202 1374 1202 1379 1204 c 128,-1,41
 1384 1206 1384 1206 1386 1194 c 0,42,43
 1389 1178 1389 1178 1391 1137 c 128,-1,44
 1393 1096 1393 1096 1395 1050 c 128,-1,45
 1397 1004 1397 1004 1400 962 c 128,-1,46
 1403 920 1403 920 1403 903 c 2,47,-1
 1403 877 l 2,48,49
 1403 870 1403 870 1404 847.5 c 128,-1,50
 1405 825 1405 825 1407 796.5 c 128,-1,51
 1409 768 1409 768 1411 734 c 128,-1,52
 1413 700 1413 700 1414 670.5 c 128,-1,53
 1415 641 1415 641 1416 618.5 c 128,-1,54
 1417 596 1417 596 1417 590 c 2,55,-1
 1417 588 l 2,56,57
 1417 518 1417 518 1414 447.5 c 128,-1,58
 1411 377 1411 377 1397 309 c 0,59,60
 1374 195 1374 195 1342.5 90.5 c 128,-1,61
 1311 -14 1311 -14 1264 -121 c 1,62,63
 1225 -213 1225 -213 1161.5 -303 c 128,-1,64
 1098 -393 1098 -393 1016 -467 c 128,-1,65
 934 -541 934 -541 836.5 -587 c 128,-1,66
 739 -633 739 -633 631 -633 c 0,67,68
 563 -633 563 -633 496.5 -611.5 c 128,-1,69
 430 -590 430 -590 372.5 -551 c 128,-1,70
 315 -512 315 -512 270 -459 c 128,-1,71
 225 -406 225 -406 199 -342 c 0,72,73
 166 -260 166 -260 154.5 -173 c 128,-1,74
 143 -86 143 -86 143 0 c 0,0,1
EndSplineSet
MultipleSubs2: "'medi' Medial Forms in Arabic lookup 3 subtable" glyph465 glyph836
MultipleSubs2: "'init' Initial Forms in Arabic lookup 2 subtable" glyph109 glyph836
MultipleSubs2: "'fina' Terminal Forms in Arabic lookup 1 subtable" glyph97
EndChar

StartChar: uni0648
Encoding: 1608 1608 35
Width: 606
GlyphClass: 2
Flags: W
AnchorPoint: "Anchor-38" 184 -215 basechar 0
AnchorPoint: "Anchor-37" 215 1198 basechar 0
LayerCount: 2
Fore
SplineSet
293 16 m 1,0,1
 283 -6 283 -6 266 -10 c 1,2,3
 180 -37 180 -37 94 -62.5 c 128,-1,4
 8 -88 8 -88 -82 -117 c 1,5,6
 -96 -117 -96 -117 -97 -113 c 128,-1,7
 -98 -109 -98 -109 -92 -101.5 c 128,-1,8
 -86 -94 -86 -94 -77 -87 c 128,-1,9
 -68 -80 -68 -80 -61 -76 c 1,10,11
 -14 -39 -14 -39 40 -1 c 128,-1,12
 94 37 94 37 149.5 77 c 128,-1,13
 205 117 205 117 259 160 c 128,-1,14
 313 203 313 203 360 250 c 1,15,16
 377 281 377 281 360.5 298 c 128,-1,17
 344 315 344 315 317 319 c 1,18,19
 295 309 295 309 276.5 301 c 128,-1,20
 258 293 258 293 233 293 c 0,21,22
 203 293 203 293 172 306 c 128,-1,23
 141 319 141 319 118.5 340.5 c 128,-1,24
 96 362 96 362 82 391 c 128,-1,25
 68 420 68 420 68 451 c 0,26,27
 68 467 68 467 68 475 c 256,28,29
 68 483 68 483 72 498 c 1,30,31
 94 563 94 563 117.5 625.5 c 128,-1,32
 141 688 141 688 164 754 c 0,33,34
 174 782 174 782 201.5 803.5 c 128,-1,35
 229 825 229 825 262 825 c 0,36,37
 317 825 317 825 355 784 c 128,-1,38
 393 743 393 743 417.5 685 c 128,-1,39
 442 627 442 627 452.5 564.5 c 128,-1,40
 463 502 463 502 463 461 c 0,41,42
 463 428 463 428 460 396.5 c 128,-1,43
 457 365 457 365 446 334 c 0,44,45
 430 287 430 287 413.5 249 c 128,-1,46
 397 211 397 211 378.5 174 c 128,-1,47
 360 137 360 137 338.5 99 c 128,-1,48
 317 61 317 61 293 16 c 1,0,1
EndSplineSet
MultipleSubs2: "'fina' Terminal Forms in Arabic lookup 1 subtable" glyph98
EndChar

StartChar: uni06C1
Encoding: 1729 1729 37
Width: 651
GlyphClass: 2
Flags: W
AnchorPoint: "Anchor-38" 307 -296 basechar 0
AnchorPoint: "Anchor-37" 296 952 basechar 0
LayerCount: 2
Fore
SplineSet
166 131 m 0,0,1
 166 111 166 111 170 91.5 c 128,-1,2
 174 72 174 72 185.5 56.5 c 128,-1,3
 197 41 197 41 213 32 c 128,-1,4
 229 23 229 23 252 23 c 0,5,6
 283 23 283 23 313.5 40 c 128,-1,7
 344 57 344 57 367.5 84 c 128,-1,8
 391 111 391 111 406.5 142.5 c 128,-1,9
 422 174 422 174 422 205 c 256,10,11
 422 236 422 236 401.5 265.5 c 128,-1,12
 381 295 381 295 351.5 315.5 c 128,-1,13
 322 336 322 336 287 343 c 128,-1,14
 252 350 252 350 221 336 c 1,15,16
 211 328 211 328 200.5 301 c 128,-1,17
 190 274 190 274 182 241.5 c 128,-1,18
 174 209 174 209 170 178 c 128,-1,19
 166 147 166 147 166 131 c 0,0,1
94 27 m 0,20,21
 94 72 94 72 99 111 c 128,-1,22
 104 150 104 150 119 193 c 1,23,24
 121 195 121 195 126 210 c 128,-1,25
 131 225 131 225 137 242.5 c 128,-1,26
 143 260 143 260 148.5 275.5 c 128,-1,27
 154 291 154 291 156 295 c 0,28,29
 158 301 158 301 162 314.5 c 128,-1,30
 166 328 166 328 166 330 c 0,31,32
 176 401 176 401 185.5 472 c 128,-1,33
 195 543 195 543 197 616 c 1,34,35
 201 631 201 631 213 638 c 128,-1,36
 225 645 225 645 241.5 649 c 128,-1,37
 258 653 258 653 272 653 c 0,38,39
 289 653 289 653 301 653 c 0,40,41
 358 653 358 653 400 632.5 c 128,-1,42
 442 612 442 612 470 578.5 c 128,-1,43
 498 545 498 545 511 499 c 128,-1,44
 524 453 524 453 524 399 c 2,45,-1
 524 350 l 1,46,47
 522 319 522 319 509 272 c 128,-1,48
 496 225 496 225 475.5 173 c 128,-1,49
 455 121 455 121 427 67.5 c 128,-1,50
 399 14 399 14 365.5 -27 c 128,-1,51
 332 -68 332 -68 294 -94.5 c 128,-1,52
 256 -121 256 -121 215 -121 c 0,53,54
 184 -121 184 -121 161.5 -107.5 c 128,-1,55
 139 -94 139 -94 124 -73.5 c 128,-1,56
 109 -53 109 -53 101.5 -27.5 c 128,-1,57
 94 -2 94 -2 94 27 c 0,20,21
EndSplineSet
MultipleSubs2: "'medi' Medial Forms in Arabic lookup 3 subtable" glyph772
MultipleSubs2: "'init' Initial Forms in Arabic lookup 2 subtable" glyph413 glyph844
MultipleSubs2: "'fina' Terminal Forms in Arabic lookup 1 subtable" uni06C1.1
EndChar

StartChar: uni06BE
Encoding: 1726 1726 39
Width: 915
GlyphClass: 2
Flags: W
AnchorPoint: "Anchor-38" 296 -256 basechar 0
AnchorPoint: "Anchor-37" 450 952 basechar 0
LayerCount: 2
Fore
SplineSet
625 305 m 0,0,1
 586 305 586 305 551 282.5 c 128,-1,2
 516 260 516 260 494 229 c 1,3,4
 455 180 455 180 418 132 c 128,-1,5
 381 84 381 84 342 35 c 1,6,7
 373 43 373 43 433.5 57.5 c 128,-1,8
 494 72 494 72 555 94.5 c 128,-1,9
 616 117 616 117 665.5 150.5 c 128,-1,10
 715 184 715 184 721 231 c 1,11,12
 721 272 721 272 689 288.5 c 128,-1,13
 657 305 657 305 625 305 c 0,0,1
403 383 m 0,14,15
 356 383 356 383 308 336 c 128,-1,16
 260 289 260 289 218 225.5 c 128,-1,17
 176 162 176 162 144.5 95.5 c 128,-1,18
 113 29 113 29 98 -6 c 1,19,20
 111 0 111 0 138.5 17.5 c 128,-1,21
 166 35 166 35 196.5 52.5 c 128,-1,22
 227 70 227 70 253 88 c 128,-1,23
 279 106 279 106 291 113 c 1,24,25
 307 125 307 125 340 147.5 c 128,-1,26
 373 170 373 170 405.5 197.5 c 128,-1,27
 438 225 438 225 461.5 256 c 128,-1,28
 485 287 485 287 485 313 c 0,29,30
 485 350 485 350 461.5 366.5 c 128,-1,31
 438 383 438 383 403 383 c 0,14,15
449 553 m 1,32,33
 510 553 510 553 537.5 511 c 128,-1,34
 565 469 565 469 567 410 c 1,35,-1
 569 410 l 1,36,37
 596 422 596 422 626.5 442.5 c 128,-1,38
 657 463 657 463 702 463 c 0,39,40
 756 463 756 463 785.5 423 c 128,-1,41
 815 383 815 383 811 334 c 0,42,43
 805 256 805 256 757 185.5 c 128,-1,44
 709 115 709 115 655 47 c 0,45,46
 631 16 631 16 600 -9.5 c 128,-1,47
 569 -35 569 -35 535 -45 c 1,48,49
 393 -70 393 -70 255 -95.5 c 128,-1,50
 117 -121 117 -121 -25 -145 c 0,51,52
 -33 -147 -33 -147 -58.5 -151.5 c 128,-1,53
 -84 -156 -84 -156 -104 -156 c 0,54,55
 -123 -156 -123 -156 -132 -150.5 c 128,-1,56
 -141 -145 -141 -145 -119 -131 c 1,57,58
 -90 -106 -90 -106 -56.5 -91 c 128,-1,59
 -23 -76 -23 -76 8 -55 c 1,60,61
 68 41 68 41 122 141.5 c 128,-1,62
 176 242 176 242 238 340 c 1,63,64
 256 371 256 371 276.5 406.5 c 128,-1,65
 297 442 297 442 321.5 474 c 128,-1,66
 346 506 346 506 377 528.5 c 128,-1,67
 408 551 408 551 449 553 c 1,32,33
EndSplineSet
MultipleSubs2: "'medi' Medial Forms in Arabic lookup 3 subtable" glyph798
MultipleSubs2: "'init' Initial Forms in Arabic lookup 2 subtable" glyph439
MultipleSubs2: "'fina' Terminal Forms in Arabic lookup 1 subtable" uni06BE.1
EndChar

StartChar: uni0621
Encoding: 1569 1569 40
Width: 985
GlyphClass: 2
Flags: W
AnchorPoint: "Anchor-38" 491 -133 basechar 0
AnchorPoint: "Anchor-37" 450 1105 basechar 0
LayerCount: 2
Fore
SplineSet
276 172 m 1,0,1
 258 182 258 182 221 203.5 c 128,-1,2
 184 225 184 225 158 270 c 0,3,4
 123 328 123 328 158 385 c 0,5,6
 168 401 168 401 188.5 436 c 128,-1,7
 209 471 209 471 236.5 513 c 128,-1,8
 264 555 264 555 286.5 588 c 128,-1,9
 309 621 309 621 319 635 c 0,10,11
 350 678 350 678 401.5 723 c 128,-1,12
 453 768 453 768 516 768 c 0,13,14
 555 768 555 768 600 742.5 c 128,-1,15
 645 717 645 717 645 670 c 0,16,17
 645 635 645 635 614.5 612.5 c 128,-1,18
 584 590 584 590 551 590 c 0,19,20
 526 590 526 590 501.5 608.5 c 128,-1,21
 477 627 477 627 436 627 c 0,22,23
 397 627 397 627 359.5 606.5 c 128,-1,24
 322 586 322 586 315 537 c 1,25,26
 311 518 311 518 329.5 494.5 c 128,-1,27
 348 471 348 471 375.5 449.5 c 128,-1,28
 403 428 403 428 438 417 c 128,-1,29
 473 406 473 406 504 406 c 1,30,31
 580 418 580 418 642.5 464 c 128,-1,32
 705 510 705 510 762 553 c 1,33,34
 862 614 862 614 776 502 c 1,35,36
 725 432 725 432 661.5 378 c 128,-1,37
 598 324 598 324 533.5 273.5 c 128,-1,38
 469 223 469 223 401.5 167 c 128,-1,39
 334 111 334 111 274 35 c 1,40,41
 262 18 262 18 240.5 -9.5 c 128,-1,42
 219 -37 219 -37 197 -92 c 1,43,44
 188 -119 188 -119 171 -134.5 c 128,-1,45
 154 -150 154 -150 145 -133 c 1,46,47
 137 -47 137 -47 182 28.5 c 128,-1,48
 227 104 227 104 276 172 c 1,0,1
EndSplineSet
EndChar

StartChar: uniFEFB
Encoding: 65275 65275 41
Width: 913
GlyphClass: 3
Flags: W
AnchorPoint: "Anchor-40" 450 -307 baselig 0
AnchorPoint: "Anchor-39" 430 1628 baselig 0
AnchorPoint: "Anchor-40" 450 -307 baselig 1
AnchorPoint: "Anchor-39" 430 1628 baselig 1
LayerCount: 2
Fore
SplineSet
178 45 m 1,0,1
 143 100 143 100 174 106 c 1,2,3
 197 104 197 104 211 95 c 128,-1,4
 225 86 225 86 254 82 c 1,5,6
 295 166 295 166 312.5 276.5 c 128,-1,7
 330 387 330 387 335 506 c 128,-1,8
 340 625 340 625 337 743.5 c 128,-1,9
 334 862 334 862 334 963 c 0,10,11
 334 1004 334 1004 336 1040.5 c 128,-1,12
 338 1077 338 1077 342 1110 c 1,13,14
 367 1188 367 1188 391.5 1262.5 c 128,-1,15
 416 1337 416 1337 438 1413 c 0,16,17
 442 1425 442 1425 449.5 1427.5 c 128,-1,18
 457 1430 457 1430 457 1399 c 2,19,-1
 457 1343 l 2,20,21
 457 1307 457 1307 458 1264 c 128,-1,22
 459 1221 459 1221 459 1182 c 2,23,-1
 459 1126 l 1,24,-1
 459 1020 l 1,25,-1
 459 895 l 1,26,-1
 459 766 l 1,27,-1
 459 649 l 2,28,29
 459 608 459 608 456 552 c 128,-1,30
 453 496 453 496 435.5 424 c 128,-1,31
 418 352 418 352 382 264 c 128,-1,32
 346 176 346 176 281 72 c 1,33,34
 346 59 346 59 410.5 68.5 c 128,-1,35
 475 78 475 78 530 113 c 1,36,37
 565 133 565 133 594 159.5 c 128,-1,38
 623 186 623 186 629 229 c 1,39,40
 635 287 635 287 639 373 c 128,-1,41
 643 459 643 459 646 557 c 128,-1,42
 649 655 649 655 650 756.5 c 128,-1,43
 651 858 651 858 653 947 c 128,-1,44
 655 1036 655 1036 656 1102.5 c 128,-1,45
 657 1169 657 1169 659 1198 c 1,46,47
 682 1278 682 1278 705.5 1359 c 128,-1,48
 729 1440 729 1440 752 1520 c 1,49,50
 760 1528 760 1528 761 1520.5 c 128,-1,51
 762 1513 762 1513 766 1479 c 1,52,53
 766 1468 766 1468 767 1434.5 c 128,-1,54
 768 1401 768 1401 768 1360 c 2,55,-1
 768 1280 l 1,56,-1
 768 1221 l 2,57,58
 768 1106 768 1106 769 1023 c 128,-1,59
 770 940 770 940 769 865.5 c 128,-1,60
 768 791 768 791 764 712 c 128,-1,61
 760 633 760 633 752 526 c 1,62,63
 743 434 743 434 728 344 c 128,-1,64
 713 254 713 254 676 172 c 1,65,66
 666 147 666 147 650.5 118.5 c 128,-1,67
 635 90 635 90 615.5 59.5 c 128,-1,68
 596 29 596 29 571.5 0 c 128,-1,69
 547 -29 547 -29 520 -51 c 1,70,71
 498 -74 498 -74 468 -93.5 c 128,-1,72
 438 -113 438 -113 403 -113 c 0,73,74
 367 -113 367 -113 334 -99.5 c 128,-1,75
 301 -86 301 -86 271.5 -63.5 c 128,-1,76
 242 -41 242 -41 218.5 -12.5 c 128,-1,77
 195 16 195 16 178 45 c 1,0,1
EndSplineSet
Ligature2: "'rlig' Required Ligatures in Arabic lookup 105 subtable" glyph363 glyph47
EndChar

StartChar: uni06CC
Encoding: 1740 1740 42
Width: 1778
GlyphClass: 2
Flags: W
AnchorPoint: "Anchor-38" 983 -768 basechar 0
AnchorPoint: "Anchor-37" 665 1351 basechar 0
LayerCount: 2
Fore
SplineSet
143 -2 m 1,0,1
 145 90 145 90 153.5 168 c 128,-1,2
 162 246 162 246 179.5 322.5 c 128,-1,3
 197 399 197 399 225.5 484 c 128,-1,4
 254 569 254 569 301 680 c 1,5,6
 313 713 313 713 327.5 719 c 128,-1,7
 342 725 342 725 334 684 c 1,8,9
 299 567 299 567 267.5 441 c 128,-1,10
 236 315 236 315 236 190 c 0,11,12
 236 98 236 98 261.5 4 c 128,-1,13
 287 -90 287 -90 339 -165 c 128,-1,14
 391 -240 391 -240 470 -287 c 128,-1,15
 549 -334 549 -334 653 -334 c 0,16,17
 834 -334 834 -334 964 -246 c 128,-1,18
 1094 -158 1094 -158 1194 -16 c 0,19,20
 1210 8 1210 8 1233.5 44 c 128,-1,21
 1257 80 1257 80 1270.5 116 c 128,-1,22
 1284 152 1284 152 1276 181.5 c 128,-1,23
 1268 211 1268 211 1219 223 c 1,24,25
 1165 227 1165 227 1117 240.5 c 128,-1,26
 1069 254 1069 254 1034 280.5 c 128,-1,27
 999 307 999 307 978.5 350 c 128,-1,28
 958 393 958 393 958 459 c 0,29,30
 958 575 958 575 988 686 c 128,-1,31
 1018 797 1018 797 1071 898 c 128,-1,32
 1124 999 1124 999 1200 1086.5 c 128,-1,33
 1276 1174 1276 1174 1368 1243 c 1,34,35
 1374 1249 1374 1249 1395.5 1263.5 c 128,-1,36
 1417 1278 1417 1278 1447 1293.5 c 128,-1,37
 1477 1309 1477 1309 1509.5 1323 c 128,-1,38
 1542 1337 1542 1337 1569.5 1342.5 c 128,-1,39
 1597 1348 1597 1348 1615.5 1339.5 c 128,-1,40
 1634 1331 1634 1331 1634 1305 c 2,41,-1
 1634 1298 l 1,42,43
 1620 1237 1620 1237 1599.5 1178.5 c 128,-1,44
 1579 1120 1579 1120 1556 1059 c 1,45,46
 1550 1032 1550 1032 1543 1029 c 128,-1,47
 1536 1026 1536 1026 1526 1032 c 128,-1,48
 1516 1038 1516 1038 1502.5 1046.5 c 128,-1,49
 1489 1055 1489 1055 1473 1053 c 0,50,51
 1419 1047 1419 1047 1364 1015 c 128,-1,52
 1309 983 1309 983 1255.5 938 c 128,-1,53
 1202 893 1202 893 1156 840.5 c 128,-1,54
 1110 788 1110 788 1075 741 c 1,55,56
 1065 725 1065 725 1054.5 706.5 c 128,-1,57
 1044 688 1044 688 1044 670 c 0,58,59
 1044 627 1044 627 1070 601 c 128,-1,60
 1096 575 1096 575 1132.5 560 c 128,-1,61
 1169 545 1169 545 1210 538.5 c 128,-1,62
 1251 532 1251 532 1280 530 c 1,63,64
 1307 512 1307 512 1323 477 c 128,-1,65
 1339 442 1339 442 1348.5 402 c 128,-1,66
 1358 362 1358 362 1361 322.5 c 128,-1,67
 1364 283 1364 283 1364 256 c 0,68,69
 1364 197 1364 197 1351.5 142.5 c 128,-1,70
 1339 88 1339 88 1321 33 c 0,71,72
 1284 -78 1284 -78 1220.5 -195.5 c 128,-1,73
 1157 -313 1157 -313 1071 -411.5 c 128,-1,74
 985 -510 985 -510 874.5 -573.5 c 128,-1,75
 764 -637 764 -637 631 -637 c 0,76,77
 500 -637 500 -637 411 -581.5 c 128,-1,78
 322 -526 322 -526 256 -436 c 1,79,80
 203 -350 203 -350 175 -241.5 c 128,-1,81
 147 -133 147 -133 143 -2 c 1,0,1
EndSplineSet
MultipleSubs2: "'medi' Medial Forms in Arabic lookup 3 subtable" glyph465 glyph840
MultipleSubs2: "'init' Initial Forms in Arabic lookup 2 subtable" glyph109 glyph840
MultipleSubs2: "'fina' Terminal Forms in Arabic lookup 1 subtable" glyph106
EndChar

StartChar: uni06D2
Encoding: 1746 1746 43
Width: 2513
GlyphClass: 2
Flags: W
AnchorPoint: "Anchor-38" 1126 -296 basechar 0
AnchorPoint: "Anchor-37" 460 1105 basechar 0
LayerCount: 2
Fore
SplineSet
143 264 m 0,0,1
 147 270 147 270 168.5 299 c 128,-1,2
 190 328 190 328 209 350 c 0,3,4
 258 410 258 410 311.5 461 c 128,-1,5
 365 512 365 512 440 543 c 0,6,7
 483 561 483 561 529 574.5 c 128,-1,8
 575 588 575 588 620.5 604.5 c 128,-1,9
 666 621 666 621 707 643.5 c 128,-1,10
 748 666 748 666 778 702 c 0,11,12
 782 707 782 707 790.5 716 c 128,-1,13
 799 725 799 725 807 735 c 128,-1,14
 815 745 815 745 822 753.5 c 128,-1,15
 829 762 829 762 829 764 c 1,16,17
 831 766 831 766 836.5 776 c 128,-1,18
 842 786 842 786 848 796.5 c 128,-1,19
 854 807 854 807 859 817 c 128,-1,20
 864 827 864 827 866 829 c 1,21,22
 868 834 868 834 873.5 839 c 128,-1,23
 879 844 879 844 881 846 c 1,24,25
 881 844 881 844 882 839 c 128,-1,26
 883 834 883 834 883 831 c 0,27,28
 883 793 883 793 855 750 c 128,-1,29
 827 707 827 707 809 676 c 0,30,31
 770 610 770 610 702.5 548.5 c 128,-1,32
 635 487 635 487 559 467 c 2,33,-1
 399 426 l 2,34,35
 358 416 358 416 325.5 396.5 c 128,-1,36
 293 377 293 377 264 350 c 1,37,38
 254 336 254 336 238.5 320.5 c 128,-1,39
 223 305 223 305 240 285 c 0,40,41
 274 242 274 242 334.5 215 c 128,-1,42
 395 188 395 188 463.5 175 c 128,-1,43
 532 162 532 162 601 156 c 128,-1,44
 670 150 670 150 721 147 c 0,45,46
 901 135 901 135 1075 130 c 128,-1,47
 1249 125 1249 125 1430 125 c 0,48,49
 1444 125 1444 125 1468 125 c 0,50,51
 1493 125 1493 125 1536 127 c 128,-1,52
 1579 129 1579 129 1646.5 132 c 128,-1,53
 1714 135 1714 135 1814.5 141 c 128,-1,54
 1915 147 1915 147 2054 156.5 c 128,-1,55
 2193 166 2193 166 2380 178 c 1,56,57
 2410 182 2410 182 2420.5 180 c 128,-1,58
 2431 178 2431 178 2431 174 c 256,59,60
 2431 170 2431 170 2421 162 c 0,61,62
 2281 47 2281 47 2126.5 -2 c 128,-1,63
 1972 -51 1972 -51 1796 -74 c 1,64,65
 1548 -90 1548 -90 1302.5 -94 c 128,-1,66
 1057 -98 1057 -98 809 -98 c 1,67,68
 655 -100 655 -100 501.5 -88 c 128,-1,69
 348 -76 348 -76 219 -47 c 0,70,71
 195 -41 195 -41 159 -30.5 c 128,-1,72
 123 -20 123 -20 91 -3 c 128,-1,73
 59 14 59 14 36.5 38.5 c 128,-1,74
 14 63 14 63 14 98 c 1,75,76
 20 123 20 123 34.5 145.5 c 128,-1,77
 49 168 49 168 67.5 187.5 c 128,-1,78
 86 207 86 207 106.5 226.5 c 128,-1,79
 127 246 127 246 143 264 c 0,0,1
EndSplineSet
MultipleSubs2: "'medi' Medial Forms in Arabic lookup 3 subtable" glyph465 glyph840
MultipleSubs2: "'init' Initial Forms in Arabic lookup 2 subtable" glyph109 glyph840
MultipleSubs2: "'fina' Terminal Forms in Arabic lookup 1 subtable" glyph108
EndChar

StartChar: glyph47
Encoding: 65539 -1 44
Width: 213
GlyphClass: 2
Flags: W
AnchorPoint: "Anchor-38" 276 -798 basechar 0
AnchorPoint: "Anchor-37" 296 2119 basechar 0
LayerCount: 2
Fore
SplineSet
147 504 m 0,0,1
 147 512 147 512 150.5 549 c 128,-1,2
 154 586 154 586 157 633 c 128,-1,3
 160 680 160 680 163 727 c 128,-1,4
 166 774 166 774 168 803 c 0,5,6
 170 842 170 842 173 883 c 128,-1,7
 176 924 176 924 182 980 c 128,-1,8
 188 1036 188 1036 195.5 1111 c 128,-1,9
 203 1186 203 1186 215 1292 c 0,10,11
 215 1294 215 1294 223 1309.5 c 128,-1,12
 231 1325 231 1325 236 1333 c 0,13,14
 268 1393 268 1393 297 1448 c 128,-1,15
 326 1503 326 1503 348 1565 c 0,16,17
 354 1581 354 1581 358 1571 c 1,18,-1
 358 1518 l 1,19,20
 336 1331 336 1331 314.5 1147 c 128,-1,21
 293 963 293 963 270 776 c 1,22,23
 266 735 266 735 266 696 c 0,24,25
 266 659 266 659 266 618 c 0,26,27
 266 578 266 578 262 535 c 128,-1,28
 258 492 258 492 266 451 c 1,29,30
 238 385 238 385 215.5 319.5 c 128,-1,31
 193 254 193 254 164 188 c 1,32,33
 158 211 158 211 155 233.5 c 128,-1,34
 152 256 152 256 147 279 c 1,35,36
 147 285 147 285 146 301 c 128,-1,37
 145 317 145 317 144 335.5 c 128,-1,38
 143 354 143 354 143 369 c 0,39,40
 143 385 143 385 143 391 c 0,41,42
 143 401 143 401 144 419.5 c 128,-1,43
 145 438 145 438 145 457 c 0,44,45
 145 475 145 475 146 488.5 c 128,-1,46
 147 502 147 502 147 504 c 0,0,1
EndSplineSet
EndChar

StartChar: glyph60
Encoding: 65552 -1 57
Width: 240
GlyphClass: 2
Flags: W
AnchorPoint: "Anchor-38" 942 -768 basechar 0
AnchorPoint: "Anchor-37" 122 1976 basechar 0
LayerCount: 2
Fore
SplineSet
268 1059 m 1,0,-1
 268 1055 l 1,1,2
 358 1073 358 1073 445 1084.5 c 128,-1,3
 532 1096 532 1096 623 1096 c 1,4,5
 666 1098 666 1098 698.5 1092.5 c 128,-1,6
 731 1087 731 1087 749.5 1073 c 128,-1,7
 768 1059 768 1059 768 1036 c 0,8,9
 768 1016 768 1016 743 983 c 1,10,11
 635 877 635 877 542 785.5 c 128,-1,12
 449 694 449 694 381 602 c 128,-1,13
 313 510 313 510 274.5 405.5 c 128,-1,14
 236 301 236 301 236 170 c 0,15,16
 236 72 236 72 261.5 -20.5 c 128,-1,17
 287 -113 287 -113 339 -185.5 c 128,-1,18
 391 -258 391 -258 472 -301 c 128,-1,19
 553 -344 553 -344 662 -344 c 0,20,21
 791 -344 791 -344 897.5 -296 c 128,-1,22
 1004 -248 1004 -248 1090 -167 c 128,-1,23
 1176 -86 1176 -86 1240.5 18.5 c 128,-1,24
 1305 123 1305 123 1348 236 c 0,25,26
 1350 240 1350 240 1356 260.5 c 128,-1,27
 1362 281 1362 281 1370 304.5 c 128,-1,28
 1378 328 1378 328 1384.5 348.5 c 128,-1,29
 1391 369 1391 369 1393 373 c 0,30,31
 1397 389 1397 389 1403 394 c 128,-1,32
 1409 399 1409 399 1413 390 c 128,-1,33
 1417 381 1417 381 1417 358 c 0,34,35
 1417 336 1417 336 1409 297 c 0,36,37
 1391 207 1391 207 1358 100.5 c 128,-1,38
 1325 -6 1325 -6 1277 -111.5 c 128,-1,39
 1229 -217 1229 -217 1165.5 -314.5 c 128,-1,40
 1102 -412 1102 -412 1021 -486.5 c 128,-1,41
 940 -561 940 -561 844 -606 c 128,-1,42
 748 -651 748 -651 633 -651 c 0,43,44
 504 -651 504 -651 411.5 -600 c 128,-1,45
 319 -549 319 -549 260 -464 c 128,-1,46
 201 -379 201 -379 172 -270.5 c 128,-1,47
 143 -162 143 -162 143 -45 c 0,48,49
 143 53 143 53 158.5 156.5 c 128,-1,50
 174 260 174 260 205 361.5 c 128,-1,51
 236 463 236 463 283 558 c 128,-1,52
 330 653 330 653 395 733 c 0,53,54
 434 780 434 780 485.5 832.5 c 128,-1,55
 537 885 537 885 584 932 c 1,56,57
 588 938 588 938 580.5 942 c 128,-1,58
 573 946 573 946 569 946 c 0,59,60
 541 952 541 952 514 952 c 256,61,62
 487 952 487 952 459 952 c 0,63,64
 381 952 381 952 308.5 943 c 128,-1,65
 236 934 236 934 158 905 c 1,66,67
 170 983 170 983 201 1049 c 1,68,-1
 268 1059 l 1,0,-1
EndSplineSet
EndChar

StartChar: glyph62
Encoding: 65554 -1 59
Width: 453
GlyphClass: 2
Flags: W
AnchorPoint: "Anchor-38" 143 -225 basechar 0
AnchorPoint: "Anchor-37" 378 1177 basechar 0
LayerCount: 2
Fore
SplineSet
494 557 m 1,0,1
 487 516 487 516 493.5 479 c 128,-1,2
 500 442 500 442 510 408 c 1,3,-1
 391 246 l 1,4,5
 389 248 389 248 389 254 c 2,6,-1
 389 252 l 1,7,-1
 387 250 l 1,8,9
 373 223 373 223 359.5 185 c 128,-1,10
 346 147 346 147 329.5 110.5 c 128,-1,11
 313 74 313 74 293.5 44 c 128,-1,12
 274 14 274 14 250 6 c 0,13,14
 231 0 231 0 186 -14.5 c 128,-1,15
 141 -29 141 -29 91 -44 c 128,-1,16
 41 -59 41 -59 -4 -72.5 c 128,-1,17
 -49 -86 -49 -86 -68 -92 c 0,18,19
 -106 -104 -106 -104 -117.5 -101 c 128,-1,20
 -129 -98 -129 -98 -88 -61 c 1,21,22
 20 18 20 18 108.5 97 c 128,-1,23
 197 176 197 176 267.5 268 c 128,-1,24
 338 360 338 360 394.5 471 c 128,-1,25
 451 582 451 582 496 725 c 0,26,27
 504 748 504 748 513 738.5 c 128,-1,28
 522 729 522 729 518 715 c 1,29,30
 514 680 514 680 507 640 c 128,-1,31
 500 600 500 600 494 557 c 1,0,1
EndSplineSet
EndChar

StartChar: glyph65
Encoding: 65557 -1 62
Width: 455
GlyphClass: 2
Flags: W
AnchorPoint: "Anchor-38" 153 -307 basechar 0
AnchorPoint: "Anchor-37" 204 1095 basechar 0
LayerCount: 2
Fore
SplineSet
301 137 m 1,0,1
 336 170 336 170 375 213 c 128,-1,2
 414 256 414 256 438 303 c 1,3,-1
 483 303 l 1,4,5
 465 258 465 258 448.5 199.5 c 128,-1,6
 432 141 432 141 414.5 88 c 128,-1,7
 397 35 397 35 375.5 -7 c 128,-1,8
 354 -49 354 -49 322 -61 c 0,9,10
 303 -68 303 -68 258 -82 c 128,-1,11
 213 -96 213 -96 163 -111.5 c 128,-1,12
 113 -127 113 -127 68 -140.5 c 128,-1,13
 23 -154 23 -154 4 -160 c 0,14,15
 -35 -172 -35 -172 -46 -169 c 128,-1,16
 -57 -166 -57 -166 -16 -129 c 1,17,18
 63 -63 63 -63 142 3.5 c 128,-1,19
 221 70 221 70 301 137 c 1,0,1
EndSplineSet
EndChar

StartChar: glyph69
Encoding: 65561 -1 66
Width: 444
GlyphClass: 2
Flags: W
AnchorPoint: "Anchor-38" -235 -1024 basechar 0
AnchorPoint: "Anchor-37" 0 839 basechar 0
LayerCount: 2
Fore
SplineSet
498 195 m 1,0,1
 379 160 379 160 303 61 c 1,2,3
 205 -72 205 -72 110.5 -205 c 128,-1,4
 16 -338 16 -338 -90 -467 c 0,5,6
 -109 -489 -109 -489 -125 -506.5 c 128,-1,7
 -141 -524 -141 -524 -156.5 -540.5 c 128,-1,8
 -172 -557 -172 -557 -190.5 -574.5 c 128,-1,9
 -209 -592 -209 -592 -233 -614 c 0,10,11
 -258 -637 -258 -637 -279.5 -653.5 c 128,-1,12
 -301 -670 -301 -670 -316.5 -677 c 128,-1,13
 -332 -684 -332 -684 -339 -683 c 128,-1,14
 -346 -682 -346 -682 -342 -672 c 1,15,16
 -330 -659 -330 -659 -302 -628.5 c 128,-1,17
 -274 -598 -274 -598 -243.5 -562 c 128,-1,18
 -213 -526 -213 -526 -185.5 -494.5 c 128,-1,19
 -158 -463 -158 -463 -147 -451 c 1,20,21
 -117 -412 -117 -412 -79 -359.5 c 128,-1,22
 -41 -307 -41 -307 -3 -250 c 128,-1,23
 35 -193 35 -193 73 -132.5 c 128,-1,24
 111 -72 111 -72 141 -14 c 1,25,26
 176 51 176 51 207 108.5 c 128,-1,27
 238 166 238 166 252 188 c 1,28,29
 297 266 297 266 358.5 334.5 c 128,-1,30
 420 403 420 403 498 449 c 1,31,-1
 498 195 l 1,0,1
EndSplineSet
EndChar

StartChar: uni0631.1
Encoding: 65565 -1 70
Width: 352
GlyphClass: 2
Flags: W
AnchorPoint: "Anchor-38" -215 -1003 basechar 0
AnchorPoint: "Anchor-37" 0 942 basechar 0
LayerCount: 2
Fore
SplineSet
375 141 m 1,0,1
 369 137 369 137 363.5 131 c 128,-1,2
 358 125 358 125 352 121 c 0,3,4
 295 72 295 72 248 13.5 c 128,-1,5
 201 -45 201 -45 158 -106.5 c 128,-1,6
 115 -168 115 -168 72 -230.5 c 128,-1,7
 29 -293 29 -293 -20 -354 c 1,8,9
 -45 -383 -45 -383 -74.5 -419 c 128,-1,10
 -104 -455 -104 -455 -135 -491.5 c 128,-1,11
 -166 -528 -166 -528 -196.5 -561 c 128,-1,12
 -227 -594 -227 -594 -252 -616 c 1,13,14
 -262 -627 -262 -627 -278.5 -640 c 128,-1,15
 -295 -653 -295 -653 -311.5 -663.5 c 128,-1,16
 -328 -674 -328 -674 -341 -678 c 128,-1,17
 -354 -682 -354 -682 -358 -672 c 1,18,19
 -336 -647 -336 -647 -306 -615.5 c 128,-1,20
 -276 -584 -276 -584 -256 -559 c 0,21,22
 -168 -449 -168 -449 -74 -332 c 128,-1,23
 20 -215 20 -215 94 -92 c 1,24,25
 127 -35 127 -35 160 24.5 c 128,-1,26
 193 84 193 84 226.5 142.5 c 128,-1,27
 260 201 260 201 296 256 c 128,-1,28
 332 311 332 311 375 360 c 1,29,-1
 375 141 l 1,0,1
EndSplineSet
Substitution2: "Single Substitution lookup 112 subtable" glyph65
Substitution2: "Single Substitution lookup 113 subtable" glyph69
Substitution2: "Single Substitution lookup 114 subtable" uni0691.2
EndChar

StartChar: uni0691.2
Encoding: 65569 -1 74
Width: 422
GlyphClass: 2
Flags: W
AnchorPoint: "Anchor-38" -61 -870 basechar 0
AnchorPoint: "Anchor-37" 40 1126 basechar 0
LayerCount: 2
Fore
SplineSet
473 354 m 1,0,1
 414 326 414 326 365.5 275.5 c 128,-1,2
 317 225 317 225 283 176 c 0,3,4
 233 106 233 106 188 7 c 128,-1,5
 143 -92 143 -92 86 -204.5 c 128,-1,6
 29 -317 29 -317 -45 -433 c 128,-1,7
 -119 -549 -119 -549 -225 -649 c 1,8,9
 -272 -688 -272 -688 -293.5 -690 c 128,-1,10
 -315 -692 -315 -692 -279 -657 c 1,11,12
 -201 -561 -201 -561 -132 -461.5 c 128,-1,13
 -63 -362 -63 -362 -4 -244 c 1,14,15
 49 -109 49 -109 105.5 26.5 c 128,-1,16
 162 162 162 162 221 299 c 1,17,18
 240 340 240 340 264.5 386 c 128,-1,19
 289 432 289 432 320.5 476 c 128,-1,20
 352 520 352 520 391 559 c 128,-1,21
 430 598 430 598 473 623 c 1,22,-1
 473 354 l 1,0,1
EndSplineSet
EndChar

StartChar: glyph81
Encoding: 65573 -1 78
Width: 1860
GlyphClass: 2
Flags: W
AnchorPoint: "Anchor-38" 993 -747 basechar 0
AnchorPoint: "Anchor-37" 675 1413 basechar 0
AnchorPoint: "Cursive-23" 1873 0 entry 0
LayerCount: 2
Fore
SplineSet
1884 938 m 1,0,1
 1874 934 1874 934 1862.5 919.5 c 128,-1,2
 1851 905 1851 905 1841 901 c 0,3,4
 1747 866 1747 866 1657 836.5 c 128,-1,5
 1567 807 1567 807 1473 778 c 1,6,-1
 1466 774 l 1,7,8
 1454 569 1454 569 1418 378.5 c 128,-1,9
 1382 188 1382 188 1319 -4 c 0,10,11
 1282 -117 1282 -117 1221.5 -219.5 c 128,-1,12
 1161 -322 1161 -322 1083 -410 c 1,13,14
 989 -518 989 -518 870.5 -581.5 c 128,-1,15
 752 -645 752 -645 606 -645 c 0,16,17
 483 -645 483 -645 396 -588.5 c 128,-1,18
 309 -532 309 -532 253 -443 c 128,-1,19
 197 -354 197 -354 170 -244.5 c 128,-1,20
 143 -135 143 -135 145 -31 c 1,21,22
 145 125 145 125 190.5 272.5 c 128,-1,23
 236 420 236 420 289 563 c 0,24,25
 291 567 291 567 302 594 c 128,-1,26
 313 621 313 621 319 635 c 1,27,28
 324 643 324 643 330 645 c 128,-1,29
 336 647 336 647 336 635 c 256,30,31
 336 623 336 623 330 593 c 128,-1,32
 324 563 324 563 319 553 c 1,33,34
 291 455 291 455 267.5 365.5 c 128,-1,35
 244 276 244 276 244 172 c 0,36,37
 244 72 244 72 268.5 -21.5 c 128,-1,38
 293 -115 293 -115 343 -186.5 c 128,-1,39
 393 -258 393 -258 472 -301 c 128,-1,40
 551 -344 551 -344 662 -344 c 0,41,42
 778 -344 778 -344 880.5 -304 c 128,-1,43
 983 -264 983 -264 1067 -195.5 c 128,-1,44
 1151 -127 1151 -127 1214.5 -34 c 128,-1,45
 1278 59 1278 59 1319 164 c 0,46,47
 1354 252 1354 252 1355 343 c 128,-1,48
 1356 434 1356 434 1356 530 c 0,49,50
 1356 590 1356 590 1355 663.5 c 128,-1,51
 1354 737 1354 737 1350 799 c 0,52,53
 1350 803 1350 803 1348 813 c 128,-1,54
 1346 823 1346 823 1344.5 835.5 c 128,-1,55
 1343 848 1343 848 1341 857 c 128,-1,56
 1339 866 1339 866 1339 870 c 0,57,58
 1339 913 1339 913 1352.5 953 c 128,-1,59
 1366 993 1366 993 1391 993 c 0,60,61
 1397 993 1397 993 1407 980 c 128,-1,62
 1417 967 1417 967 1421 963 c 0,63,64
 1436 950 1436 950 1457.5 947 c 128,-1,65
 1479 944 1479 944 1502.5 946 c 128,-1,66
 1526 948 1526 948 1547.5 954.5 c 128,-1,67
 1569 961 1569 961 1585 969 c 1,68,69
 1593 971 1593 971 1606.5 983 c 128,-1,70
 1620 995 1620 995 1632.5 1007.5 c 128,-1,71
 1645 1020 1645 1020 1665 1040 c 1,72,73
 1673 1040 1673 1040 1673 1030 c 0,74,75
 1673 1024 1673 1024 1670 1018 c 128,-1,76
 1667 1012 1667 1012 1667 1006 c 0,77,78
 1667 995 1667 995 1681.5 991 c 128,-1,79
 1696 987 1696 987 1704 987 c 0,80,81
 1788 987 1788 987 1821 1065 c 0,82,83
 1825 1075 1825 1075 1831 1065 c 1,84,85
 1837 1057 1837 1057 1843 1047.5 c 128,-1,86
 1849 1038 1849 1038 1866 1038 c 0,87,88
 1870 1038 1870 1038 1876 1039 c 128,-1,89
 1882 1040 1882 1040 1890 1040 c 1,90,-1
 1884 938 l 1,0,1
EndSplineSet
EndChar

StartChar: glyph83
Encoding: 65575 -1 80
Width: 1741
GlyphClass: 2
Flags: W
AnchorPoint: "Anchor-38" 983 -747 basechar 0
AnchorPoint: "Anchor-37" 675 1413 basechar 0
LayerCount: 2
Fore
SplineSet
1937 1257 m 0,0,1
 1882 1257 1882 1257 1836 1226.5 c 128,-1,2
 1790 1196 1790 1196 1751 1161 c 1,3,4
 1708 1120 1708 1120 1657 1064 c 128,-1,5
 1606 1008 1606 1008 1567 961 c 1,6,7
 1628 956 1628 956 1696.5 968.5 c 128,-1,8
 1765 981 1765 981 1830.5 1006.5 c 128,-1,9
 1896 1032 1896 1032 1955.5 1070 c 128,-1,10
 2015 1108 2015 1108 2058 1155 c 1,11,12
 2062 1182 2062 1182 2051 1201.5 c 128,-1,13
 2040 1221 2040 1221 2021.5 1233 c 128,-1,14
 2003 1245 2003 1245 1980.5 1251 c 128,-1,15
 1958 1257 1958 1257 1937 1257 c 0,0,1
143 -51 m 0,16,17
 143 127 143 127 187 290 c 128,-1,18
 231 453 231 453 303 612 c 0,19,20
 305 616 305 616 312 632.5 c 128,-1,21
 319 649 319 649 324 653 c 1,22,23
 328 664 328 664 334 668 c 128,-1,24
 340 672 340 672 340 655 c 0,25,26
 340 647 340 647 334 623 c 1,27,28
 297 506 297 506 271.5 400.5 c 128,-1,29
 246 295 246 295 246 172 c 0,30,31
 246 74 246 74 271.5 -20.5 c 128,-1,32
 297 -115 297 -115 349 -186.5 c 128,-1,33
 401 -258 401 -258 480 -302 c 128,-1,34
 559 -346 559 -346 668 -346 c 0,35,36
 858 -346 858 -346 999.5 -248 c 128,-1,37
 1141 -150 1141 -150 1239 8 c 0,38,39
 1315 131 1315 131 1336.5 255 c 128,-1,40
 1358 379 1358 379 1358 514 c 0,41,42
 1358 600 1358 600 1355 682 c 128,-1,43
 1352 764 1352 764 1341 850 c 1,44,45
 1335 866 1335 866 1336 890.5 c 128,-1,46
 1337 915 1337 915 1345.5 939 c 128,-1,47
 1354 963 1354 963 1365 980 c 128,-1,48
 1376 997 1376 997 1393 1001 c 1,49,50
 1411 967 1411 967 1448 961.5 c 128,-1,51
 1485 956 1485 956 1520 961 c 1,52,53
 1573 1038 1573 1038 1636.5 1111 c 128,-1,54
 1700 1184 1700 1184 1767 1253 c 0,55,56
 1810 1296 1810 1296 1871.5 1333 c 128,-1,57
 1933 1370 1933 1370 1997 1370 c 0,58,59
 2062 1370 2062 1370 2094 1323 c 128,-1,60
 2126 1276 2126 1276 2120 1217 c 0,61,62
 2107 1098 2107 1098 2049 991.5 c 128,-1,63
 1991 885 1991 885 1905 813 c 1,64,65
 1810 735 1810 735 1691.5 699.5 c 128,-1,66
 1573 664 1573 664 1454 653 c 1,67,68
 1450 614 1450 614 1446 570 c 128,-1,69
 1442 526 1442 526 1438 482 c 128,-1,70
 1434 438 1434 438 1427.5 396 c 128,-1,71
 1421 354 1421 354 1413 322 c 1,72,73
 1395 225 1395 225 1362 115.5 c 128,-1,74
 1329 6 1329 6 1281 -101.5 c 128,-1,75
 1233 -209 1233 -209 1167.5 -307.5 c 128,-1,76
 1102 -406 1102 -406 1020 -481.5 c 128,-1,77
 938 -557 938 -557 836.5 -602 c 128,-1,78
 735 -647 735 -647 614 -647 c 0,79,80
 498 -647 498 -647 408.5 -593 c 128,-1,81
 319 -539 319 -539 261 -453 c 128,-1,82
 203 -367 203 -367 173 -260.5 c 128,-1,83
 143 -154 143 -154 143 -51 c 0,16,17
EndSplineSet
EndChar

StartChar: glyph85
Encoding: 65577 -1 82
Width: 598
GlyphClass: 2
Flags: W
AnchorPoint: "Anchor-38" 399 -194 basechar 0
AnchorPoint: "Anchor-37" 665 1576 basechar 0
LayerCount: 2
Fore
SplineSet
201 61 m 2,0,1
 203 61 203 61 231.5 77.5 c 128,-1,2
 260 94 260 94 297 116.5 c 128,-1,3
 334 139 334 139 371 161.5 c 128,-1,4
 408 184 408 184 430 199 c 0,5,6
 494 240 494 240 549 281 c 128,-1,7
 604 322 604 322 651 379 c 0,8,9
 672 406 672 406 673 435.5 c 128,-1,10
 674 465 674 465 659.5 489.5 c 128,-1,11
 645 514 645 514 620.5 530.5 c 128,-1,12
 596 547 596 547 563 547 c 0,13,14
 528 547 528 547 493.5 533.5 c 128,-1,15
 459 520 459 520 428 496.5 c 128,-1,16
 397 473 397 473 372.5 443.5 c 128,-1,17
 348 414 348 414 334 383 c 1,18,19
 289 299 289 299 251 214 c 128,-1,20
 213 129 213 129 178 51 c 1,21,-1
 201 61 l 2,0,1
129 31 m 1,22,23
 147 74 147 74 165.5 123 c 128,-1,24
 184 172 184 172 200.5 225.5 c 128,-1,25
 217 279 217 279 228.5 332 c 128,-1,26
 240 385 240 385 246 434 c 1,27,28
 254 618 254 618 260 798.5 c 128,-1,29
 266 979 266 979 272 1161 c 1,30,31
 274 1169 274 1169 275 1175.5 c 128,-1,32
 276 1182 276 1182 276 1188 c 1,33,34
 297 1251 297 1251 324.5 1318.5 c 128,-1,35
 352 1386 352 1386 389 1489 c 0,36,37
 399 1518 399 1518 402.5 1505.5 c 128,-1,38
 406 1493 406 1493 406 1468 c 0,39,40
 399 1270 399 1270 393 1074.5 c 128,-1,41
 387 879 387 879 379 680 c 0,42,43
 379 670 379 670 377 648.5 c 128,-1,44
 375 627 375 627 372 602.5 c 128,-1,45
 369 578 369 578 364.5 554 c 128,-1,46
 360 530 360 530 358 516 c 1,47,48
 383 545 383 545 408.5 574.5 c 128,-1,49
 434 604 434 604 461.5 627.5 c 128,-1,50
 489 651 489 651 523 666.5 c 128,-1,51
 557 682 557 682 598 682 c 0,52,53
 670 682 670 682 706.5 632 c 128,-1,54
 743 582 743 582 743 514 c 0,55,56
 743 463 743 463 713.5 391 c 128,-1,57
 684 319 684 319 641 248.5 c 128,-1,58
 598 178 598 178 548 117.5 c 128,-1,59
 498 57 498 57 457 31 c 1,60,61
 444 20 444 20 417.5 12 c 128,-1,62
 391 4 391 4 379 0 c 0,63,64
 268 -31 268 -31 156.5 -61.5 c 128,-1,65
 45 -92 45 -92 -66 -123 c 0,66,67
 -82 -127 -82 -127 -90 -124 c 128,-1,68
 -98 -121 -98 -121 -80 -104 c 0,69,70
 -66 -90 -66 -90 -34 -70.5 c 128,-1,71
 -2 -51 -2 -51 30.5 -32.5 c 128,-1,72
 63 -14 63 -14 91 2 c 128,-1,73
 119 18 119 18 129 31 c 1,22,23
EndSplineSet
EndChar

StartChar: glyph87
Encoding: 65579 -1 84
Width: 580
GlyphClass: 2
Flags: W
AnchorPoint: "Anchor-38" 911 -747 basechar 0
AnchorPoint: "Anchor-37" 430 1658 basechar 0
LayerCount: 2
Fore
SplineSet
535 756 m 2,0,1
 530 752 530 752 519 742.5 c 128,-1,2
 508 733 508 733 504 729 c 0,3,4
 440 668 440 668 391 607.5 c 128,-1,5
 342 547 342 547 309 480.5 c 128,-1,6
 276 414 276 414 259 339 c 128,-1,7
 242 264 242 264 242 172 c 0,8,9
 242 74 242 74 269.5 -17.5 c 128,-1,10
 297 -109 297 -109 351.5 -178.5 c 128,-1,11
 406 -248 406 -248 485.5 -290 c 128,-1,12
 565 -332 565 -332 672 -332 c 0,13,14
 813 -332 813 -332 927.5 -275.5 c 128,-1,15
 1042 -219 1042 -219 1131.5 -127 c 128,-1,16
 1221 -35 1221 -35 1286.5 82 c 128,-1,17
 1352 199 1352 199 1395 319 c 1,18,19
 1405 336 1405 336 1408 329 c 128,-1,20
 1411 322 1411 322 1411 301 c 0,21,22
 1411 266 1411 266 1402 226 c 128,-1,23
 1393 186 1393 186 1379.5 143 c 128,-1,24
 1366 100 1366 100 1349.5 58 c 128,-1,25
 1333 16 1333 16 1319 -18 c 0,26,27
 1278 -119 1278 -119 1209.5 -228.5 c 128,-1,28
 1141 -338 1141 -338 1052 -429 c 128,-1,29
 963 -520 963 -520 854 -579.5 c 128,-1,30
 745 -639 745 -639 627 -639 c 0,31,32
 498 -639 498 -639 405.5 -588 c 128,-1,33
 313 -537 313 -537 254 -453 c 128,-1,34
 195 -369 195 -369 167 -259.5 c 128,-1,35
 139 -150 139 -150 141 -35 c 1,36,37
 141 82 141 82 163.5 199.5 c 128,-1,38
 186 317 186 317 229 428 c 128,-1,39
 272 539 272 539 334.5 640 c 128,-1,40
 397 741 397 741 477 825 c 1,41,42
 459 874 459 874 438.5 907 c 128,-1,43
 418 940 418 940 399 961 c 1,44,45
 371 983 371 983 352.5 994.5 c 128,-1,46
 334 1006 334 1006 316.5 1007 c 128,-1,47
 299 1008 299 1008 281.5 1003.5 c 128,-1,48
 264 999 264 999 251 995 c 128,-1,49
 238 991 238 991 231 991 c 0,50,51
 227 991 227 991 225 997.5 c 128,-1,52
 223 1004 223 1004 226 1015 c 128,-1,53
 229 1026 229 1026 244 1047 c 1,54,55
 303 1122 303 1122 373.5 1158 c 128,-1,56
 444 1194 444 1194 553 1202 c 1,57,58
 721 1210 721 1210 721 1042 c 0,59,60
 721 989 721 989 700.5 943 c 128,-1,61
 680 897 680 897 643 858 c 1,62,-1
 535 756 l 2,0,1
EndSplineSet
EndChar

StartChar: glyph89
Encoding: 65581 -1 86
Width: 2335
GlyphClass: 2
Flags: W
AnchorPoint: "Anchor-38" 1177 -337 basechar 0
AnchorPoint: "Anchor-37" 1187 1280 basechar 0
LayerCount: 2
Fore
SplineSet
1925 459 m 0,0,1
 1925 418 1925 418 1938.5 385 c 0,2,3
 1952 352 1952 352 1987 326 c 1,4,5
 2015 326 2015 326 2054 346.5 c 0,6,7
 2093 367 2093 367 2116 377 c 1,8,9
 2130 385 2130 385 2148.5 395.5 c 0,10,11
 2167 406 2167 406 2183.5 420 c 0,12,13
 2200 434 2200 434 2211 450.5 c 0,14,15
 2222 467 2222 467 2222 487 c 0,16,17
 2222 549 2222 549 2179 589 c 0,18,19
 2136 629 2136 629 2077 629 c 0,20,21
 2042 629 2042 629 2014.5 613.5 c 0,22,23
 1987 598 1987 598 1967.5 574.5 c 0,24,25
 1948 551 1948 551 1936.5 520 c 0,26,27
 1925 489 1925 489 1925 459 c 0,0,1
2175 287 m 1,28,29
 2146 240 2146 240 2110.5 205 c 0,30,31
 2075 170 2075 170 2038 139 c 1,32,33
 1964 80 1964 80 1845 33 c 0,34,35
 1726 -14 1726 -14 1574.5 -47 c 0,36,37
 1423 -80 1423 -80 1243 -97.5 c 0,38,39
 1063 -115 1063 -115 870 -115 c 1,40,41
 811 -113 811 -113 732 -111 c 0,42,43
 653 -109 653 -109 571 -100.5 c 0,44,45
 489 -92 489 -92 410.5 -72.5 c 0,46,47
 332 -53 332 -53 271.5 -15 c 0,48,49
 211 23 211 23 175 82 c 0,50,51
 139 141 139 141 143 231 c 1,52,53
 143 317 143 317 157.5 406.5 c 0,54,55
 172 496 172 496 201 578 c 0,56,57
 205 588 205 588 209 588 c 256,58,59
 213 588 213 588 215 578 c 1,60,-1
 215 444 l 2,61,62
 215 379 215 379 265 334 c 0,63,64
 315 289 315 289 391 260 c 0,65,66
 467 231 467 231 560 215 c 0,67,68
 653 199 653 199 742 191.5 c 0,69,70
 831 184 831 184 906 183 c 0,71,72
 981 182 981 182 1020 182 c 0,73,74
 1118 182 1118 182 1226.5 186 c 0,75,76
 1335 190 1335 190 1445.5 202.5 c 0,77,78
 1556 215 1556 215 1662.5 234.5 c 0,79,80
 1769 254 1769 254 1864 285 c 1,81,-1
 1864 287 l 1,82,83
 1853 332 1853 332 1853 381 c 256,84,85
 1853 430 1853 430 1874.5 495.5 c 0,86,87
 1896 561 1896 561 1935 620.5 c 0,88,89
 1974 680 1974 680 2025.5 721 c 0,90,91
 2077 762 2077 762 2136 762 c 0,92,93
 2177 762 2177 762 2203.5 742.5 c 0,94,95
 2230 723 2230 723 2245.5 693.5 c 0,96,97
 2261 664 2261 664 2267 627 c 0,98,99
 2273 590 2273 590 2273 557 c 0,100,101
 2273 483 2273 483 2241.5 415.5 c 0,102,103
 2210 348 2210 348 2175 287 c 1,28,29
EndSplineSet
Refer: 833 -1 N 1 0 0 1 1167 840 2
EndChar

StartChar: glyph90
Encoding: 65582 -1 87
Width: 1425
GlyphClass: 2
Flags: W
AnchorPoint: "Anchor-38" 1003 -737 basechar 0
AnchorPoint: "Anchor-37" 593 1771 basechar 0
AnchorPoint: "Cursive-3" 1464 225 entry 0
LayerCount: 2
Fore
SplineSet
268 1143 m 0,0,1
 256 1155 256 1155 268 1167 c 0,2,3
 319 1219 319 1219 368.5 1271 c 128,-1,4
 418 1323 418 1323 471 1376 c 0,5,6
 479 1384 479 1384 479 1380 c 0,7,8
 479 1378 479 1378 487 1368 c 0,9,10
 553 1274 553 1274 641 1206 c 1,11,12
 684 1251 684 1251 727 1295 c 128,-1,13
 770 1339 770 1339 813 1382 c 0,14,15
 823 1393 823 1393 825 1394 c 128,-1,16
 827 1395 827 1395 840 1382 c 0,17,18
 881 1341 881 1341 917.5 1303.5 c 128,-1,19
 954 1266 954 1266 995 1225 c 1,20,21
 1008 1217 1008 1217 997 1206 c 0,22,23
 952 1159 952 1159 908 1112 c 128,-1,24
 864 1065 864 1065 821 1018 c 0,25,26
 811 1008 811 1008 808 1007 c 128,-1,27
 805 1006 805 1006 795 1016 c 0,28,29
 776 1034 776 1034 754.5 1055.5 c 128,-1,30
 733 1077 733 1077 710.5 1098.5 c 128,-1,31
 688 1120 688 1120 668.5 1137.5 c 128,-1,32
 649 1155 649 1155 635 1165 c 1,33,34
 592 1120 592 1120 549 1076 c 128,-1,35
 506 1032 506 1032 461 987 c 1,36,37
 453 977 453 977 440 985 c 1,38,39
 399 1018 399 1018 350 1063 c 128,-1,40
 301 1108 301 1108 268 1143 c 0,0,1
1501 909 m 1,41,-1
 1419 668 l 1,42,43
 1415 647 1415 647 1414 626.5 c 128,-1,44
 1413 606 1413 606 1412 578.5 c 128,-1,45
 1411 551 1411 551 1410 521.5 c 128,-1,46
 1409 492 1409 492 1409 473 c 0,47,48
 1405 342 1405 342 1372 192.5 c 128,-1,49
 1339 43 1339 43 1275.5 -99.5 c 128,-1,50
 1212 -242 1212 -242 1117 -362.5 c 128,-1,51
 1022 -483 1022 -483 897 -555 c 1,52,53
 836 -592 836 -592 776.5 -612.5 c 128,-1,54
 717 -633 717 -633 645 -633 c 0,55,56
 518 -633 518 -633 425 -582.5 c 128,-1,57
 332 -532 332 -532 269.5 -449.5 c 128,-1,58
 207 -367 207 -367 176 -259.5 c 128,-1,59
 145 -152 145 -152 145 -35 c 1,60,61
 150 106 150 106 176.5 234 c 128,-1,62
 203 362 203 362 248 489 c 1,63,64
 248 492 248 492 256 510 c 128,-1,65
 264 528 264 528 273.5 553 c 128,-1,66
 283 578 283 578 293 603.5 c 128,-1,67
 303 629 303 629 309 643 c 0,68,69
 326 686 326 686 336 682 c 128,-1,70
 346 678 346 678 334 643 c 1,71,72
 299 526 299 526 270.5 419.5 c 128,-1,73
 242 313 242 313 242 190 c 0,74,75
 242 88 242 88 268.5 -6 c 128,-1,76
 295 -100 295 -100 350.5 -172 c 128,-1,77
 406 -244 406 -244 488.5 -287 c 128,-1,78
 571 -330 571 -330 686 -330 c 0,79,80
 782 -330 782 -330 866 -298 c 128,-1,81
 950 -266 950 -266 1021 -213 c 128,-1,82
 1092 -160 1092 -160 1150 -89 c 128,-1,83
 1208 -18 1208 -18 1255 59 c 1,84,85
 1296 131 1296 131 1319.5 196.5 c 128,-1,86
 1343 262 1343 262 1343 346 c 0,87,88
 1343 393 1343 393 1336 438 c 128,-1,89
 1329 483 1329 483 1292 520 c 1,90,91
 1280 530 1280 530 1270 530 c 0,92,93
 1247 530 1247 530 1227.5 517 c 128,-1,94
 1208 504 1208 504 1180 504 c 0,95,96
 1108 504 1108 504 1059 553 c 128,-1,97
 1010 602 1010 602 1010 672 c 2,98,-1
 1010 694 l 1,99,100
 1032 758 1032 758 1053.5 821.5 c 128,-1,101
 1075 885 1075 885 1098 950 c 0,102,103
 1110 985 1110 985 1135.5 1010.5 c 128,-1,104
 1161 1036 1161 1036 1200 1036 c 0,105,106
 1237 1036 1237 1036 1266.5 1015.5 c 128,-1,107
 1296 995 1296 995 1319.5 966.5 c 128,-1,108
 1343 938 1343 938 1359.5 903 c 128,-1,109
 1376 868 1376 868 1389 842 c 1,110,-1
 1393 842 l 2,111,112
 1413 842 1413 842 1425.5 864.5 c 128,-1,113
 1438 887 1438 887 1440 909 c 1,114,-1
 1501 909 l 1,41,-1
EndSplineSet
Substitution2: "Single Substitution lookup 110 subtable" uni0642.001
EndChar

StartChar: uni0642.001
Encoding: 65583 -1 88
Width: 1425
GlyphClass: 2
Flags: W
AnchorPoint: "Anchor-38" 972 -747 basechar 0
AnchorPoint: "Anchor-37" 686 1894 basechar 0
AnchorPoint: "Cursive-4" 1447 200 entry 0
LayerCount: 2
Fore
SplineSet
346 1184 m 0,0,1
 334 1196 334 1196 346 1208 c 0,2,3
 397 1260 397 1260 446.5 1312 c 128,-1,4
 496 1364 496 1364 549 1417 c 0,5,6
 557 1425 557 1425 557 1421 c 0,7,8
 557 1419 557 1419 565 1409 c 0,9,10
 631 1315 631 1315 719 1247 c 1,11,12
 762 1292 762 1292 805 1336 c 128,-1,13
 848 1380 848 1380 891 1423 c 0,14,15
 901 1434 901 1434 903 1435 c 128,-1,16
 905 1436 905 1436 918 1423 c 0,17,18
 958 1382 958 1382 995 1344.5 c 128,-1,19
 1032 1307 1032 1307 1073 1266 c 1,20,21
 1085 1257 1085 1257 1075 1247 c 0,22,23
 1030 1200 1030 1200 986 1153 c 128,-1,24
 942 1106 942 1106 899 1059 c 0,25,26
 889 1049 889 1049 886 1048 c 128,-1,27
 883 1047 883 1047 872 1057 c 0,28,29
 854 1075 854 1075 832.5 1096.5 c 128,-1,30
 811 1118 811 1118 788.5 1139.5 c 128,-1,31
 766 1161 766 1161 746.5 1178.5 c 128,-1,32
 727 1196 727 1196 713 1206 c 1,33,34
 670 1161 670 1161 627 1117 c 128,-1,35
 584 1073 584 1073 539 1028 c 0,36,37
 530 1018 530 1018 518 1026 c 1,38,39
 477 1059 477 1059 428 1104 c 128,-1,40
 379 1149 379 1149 346 1184 c 0,0,1
145 -37 m 1,41,42
 150 104 150 104 176.5 232 c 128,-1,43
 203 360 203 360 248 487 c 0,44,45
 248 489 248 489 256 507.5 c 128,-1,46
 264 526 264 526 273.5 550.5 c 128,-1,47
 283 575 283 575 293 601 c 128,-1,48
 303 627 303 627 309 641 c 0,49,50
 326 684 326 684 336 680 c 128,-1,51
 346 676 346 676 334 641 c 1,52,53
 299 524 299 524 270.5 417.5 c 128,-1,54
 242 311 242 311 242 188 c 0,55,56
 242 86 242 86 268.5 -8 c 128,-1,57
 295 -102 295 -102 350.5 -174 c 128,-1,58
 406 -246 406 -246 488.5 -289 c 128,-1,59
 571 -332 571 -332 686 -332 c 0,60,61
 782 -332 782 -332 866 -300 c 128,-1,62
 950 -268 950 -268 1021 -215 c 128,-1,63
 1092 -162 1092 -162 1150 -91 c 128,-1,64
 1208 -20 1208 -20 1255 57 c 1,65,66
 1296 129 1296 129 1319.5 194.5 c 128,-1,67
 1343 260 1343 260 1343 344 c 0,68,69
 1343 391 1343 391 1336 436 c 128,-1,70
 1329 481 1329 481 1292 518 c 1,71,72
 1280 528 1280 528 1270 528 c 0,73,74
 1247 528 1247 528 1227.5 515 c 128,-1,75
 1208 502 1208 502 1180 502 c 0,76,77
 1108 502 1108 502 1059 551 c 128,-1,78
 1010 600 1010 600 1010 670 c 2,79,-1
 1010 692 l 1,80,81
 1032 756 1032 756 1053.5 819.5 c 128,-1,82
 1075 883 1075 883 1098 948 c 0,83,84
 1110 983 1110 983 1135.5 1008.5 c 128,-1,85
 1161 1034 1161 1034 1200 1034 c 0,86,87
 1266 1034 1266 1034 1304.5 990 c 128,-1,88
 1343 946 1343 946 1366 884.5 c 128,-1,89
 1389 823 1389 823 1399 756.5 c 128,-1,90
 1409 690 1409 690 1412 667.5 c 128,-1,91
 1415 645 1415 645 1415 625 c 0,92,93
 1415 604 1415 604 1414 576.5 c 128,-1,94
 1413 549 1413 549 1412 519 c 128,-1,95
 1411 489 1411 489 1411 471 c 0,96,97
 1409 373 1409 373 1386.5 253 c 128,-1,98
 1364 133 1364 133 1321 10 c 128,-1,99
 1278 -113 1278 -113 1214.5 -229.5 c 128,-1,100
 1151 -346 1151 -346 1066 -436 c 128,-1,101
 981 -526 981 -526 875.5 -580.5 c 128,-1,102
 770 -635 770 -635 645 -635 c 0,103,104
 518 -635 518 -635 425 -585 c 128,-1,105
 332 -535 332 -535 269.5 -452 c 128,-1,106
 207 -369 207 -369 176 -261.5 c 128,-1,107
 145 -154 145 -154 145 -37 c 1,41,42
EndSplineSet
EndChar

StartChar: glyph92
Encoding: 65584 -1 89
Width: 2198
GlyphClass: 2
Flags: W
AnchorPoint: "Anchor-38" 1228 -337 basechar 0
AnchorPoint: "Anchor-37" 1208 1320 basechar 0
LayerCount: 2
Fore
SplineSet
2241 516 m 1,0,-1
 2128 371 l 1,1,2
 2077 244 2077 244 2000 161 c 128,-1,3
 1923 78 1923 78 1826 25.5 c 128,-1,4
 1729 -27 1729 -27 1614 -54.5 c 128,-1,5
 1499 -82 1499 -82 1370 -96 c 0,6,7
 1204 -113 1204 -113 1034 -122 c 128,-1,8
 864 -131 864 -131 705 -127 c 1,9,10
 618 -117 618 -117 519 -106.5 c 128,-1,11
 420 -96 420 -96 336 -64.5 c 128,-1,12
 252 -33 252 -33 196.5 30.5 c 128,-1,13
 141 94 141 94 141 211 c 1,14,15
 145 295 145 295 160.5 390 c 128,-1,16
 176 485 176 485 203 559 c 1,17,18
 211 573 211 573 216 570 c 128,-1,19
 221 567 221 567 219 545 c 0,20,21
 217 524 217 524 215 504.5 c 128,-1,22
 213 485 213 485 213 463 c 0,23,24
 213 356 213 356 301 289 c 0,25,26
 348 254 348 254 430 229.5 c 128,-1,27
 512 205 512 205 610.5 190.5 c 128,-1,28
 709 176 709 176 814.5 170 c 128,-1,29
 920 164 920 164 1012 164 c 0,30,31
 1092 164 1092 164 1179 167 c 128,-1,32
 1266 170 1266 170 1356 176 c 128,-1,33
 1446 182 1446 182 1535 193.5 c 128,-1,34
 1624 205 1624 205 1704 221 c 1,35,36
 1757 233 1757 233 1829 253.5 c 128,-1,37
 1901 274 1901 274 1966.5 311 c 128,-1,38
 2032 348 2032 348 2078 403.5 c 128,-1,39
 2124 459 2124 459 2124 539 c 1,40,41
 2134 692 2134 692 2146.5 843.5 c 128,-1,42
 2159 995 2159 995 2169 1149 c 0,43,44
 2169 1153 2169 1153 2189 1235 c 1,45,46
 2200 1272 2200 1272 2224.5 1337.5 c 128,-1,47
 2249 1403 2249 1403 2294 1481 c 1,48,49
 2343 1561 2343 1561 2410 1616 c 1,50,51
 2585 1774 2585 1774 2774 1904 c 128,-1,52
 2963 2034 2963 2034 3152 2169 c 0,53,54
 3185 2193 3185 2193 3206.5 2211.5 c 128,-1,55
 3228 2230 3228 2230 3248 2247 c 1,56,57
 3262 2257 3262 2257 3260 2247.5 c 128,-1,58
 3258 2238 3258 2238 3254 2224 c 1,59,60
 3228 2177 3228 2177 3191 2127 c 128,-1,61
 3154 2077 3154 2077 3112 2029.5 c 128,-1,62
 3070 1982 3070 1982 3026 1941.5 c 128,-1,63
 2982 1901 2982 1901 2943 1872 c 1,64,65
 2783 1759 2783 1759 2636.5 1649.5 c 128,-1,66
 2490 1540 2490 1540 2339 1411 c 0,67,68
 2322 1397 2322 1397 2307 1372.5 c 128,-1,69
 2292 1348 2292 1348 2288 1311 c 1,70,-1
 2245 678 l 1,71,72
 2241 637 2241 637 2241 596 c 2,73,-1
 2241 516 l 1,0,-1
EndSplineSet
EndChar

StartChar: glyph93
Encoding: 65585 -1 90
Width: 2198
GlyphClass: 2
Flags: W
AnchorPoint: "Anchor-38" 1249 -348 basechar 0
AnchorPoint: "Anchor-37" 1208 1290 basechar 0
LayerCount: 2
Fore
SplineSet
2388 1855 m 0,0,1
 2505 1946 2505 1946 2617.5 2028.5 c 0,2,3
 2730 2111 2730 2111 2847 2198 c 0,4,5
 2902 2238 2902 2238 2952 2270 c 0,6,7
 3002 2302 3002 2302 3043 2329 c 1,8,9
 3045 2333 3045 2333 3052 2333 c 0,10,11
 3056 2333 3056 2333 3052 2322 c 1,12,13
 3017 2269 3017 2269 2975 2216 c 0,14,15
 2933 2163 2933 2163 2886 2122 c 1,16,17
 2734 2013 2734 2013 2637 1939.5 c 0,18,19
 2540 1866 2540 1866 2473 1811.5 c 0,20,21
 2406 1757 2406 1757 2359 1717 c 0,22,23
 2312 1677 2312 1677 2287.5 1655.5 c 0,24,25
 2263 1634 2263 1634 2256 1629 c 0,26,27
 2249 1624 2249 1624 2243.5 1621 c 0,28,29
 2238 1618 2238 1618 2237 1623 c 0,30,31
 2236 1628 2236 1628 2249 1649 c 1,32,33
 2253 1659 2253 1659 2259 1673.5 c 0,34,35
 2265 1688 2265 1688 2269 1696 c 0,36,37
 2298 1749 2298 1749 2320.5 1785 c 0,38,39
 2343 1821 2343 1821 2388 1855 c 0,0,1
EndSplineSet
Refer: 89 -1 N 1 0 0 1 0 0 3
EndChar

StartChar: glyph94
Encoding: 65586 -1 91
Width: 1460
GlyphClass: 2
Flags: W
AnchorPoint: "Anchor-38" 983 -737 basechar 0
AnchorPoint: "Anchor-37" 747 1669 basechar 0
AnchorPoint: "Cursive-1" 1464 788 entry 0
LayerCount: 2
Fore
SplineSet
1485 895 m 1,0,1
 1483 885 1483 885 1481 866.5 c 128,-1,2
 1479 848 1479 848 1481 838 c 1,3,4
 1470 745 1470 745 1461 654 c 128,-1,5
 1452 563 1452 563 1442 471 c 1,6,7
 1442 461 1442 461 1436 429 c 128,-1,8
 1430 397 1430 397 1421.5 359.5 c 128,-1,9
 1413 322 1413 322 1405 286 c 128,-1,10
 1397 250 1397 250 1393 233 c 0,11,12
 1368 141 1368 141 1331 43 c 128,-1,13
 1294 -55 1294 -55 1245 -150.5 c 128,-1,14
 1196 -246 1196 -246 1132.5 -330 c 128,-1,15
 1069 -414 1069 -414 989 -478.5 c 128,-1,16
 909 -543 909 -543 815 -582 c 128,-1,17
 721 -621 721 -621 608 -623 c 1,18,19
 537 -623 537 -623 478.5 -602.5 c 128,-1,20
 420 -582 420 -582 371 -545 c 128,-1,21
 322 -508 322 -508 281 -458 c 128,-1,22
 240 -408 240 -408 205 -350 c 0,23,24
 162 -279 162 -279 152.5 -191.5 c 128,-1,25
 143 -104 143 -104 143 -23 c 0,26,27
 143 164 143 164 198.5 340 c 128,-1,28
 254 516 254 516 338 678 c 0,29,30
 338 680 338 680 342 683 c 128,-1,31
 346 686 346 686 348 686 c 0,32,33
 352 686 352 686 353 679 c 128,-1,34
 354 672 354 672 348 653 c 0,35,36
 311 543 311 543 290.5 465 c 128,-1,37
 270 387 270 387 260 333 c 128,-1,38
 250 279 250 279 248 245 c 128,-1,39
 246 211 246 211 246 188 c 0,40,41
 246 88 246 88 271.5 -3 c 128,-1,42
 297 -94 297 -94 349 -165 c 128,-1,43
 401 -236 401 -236 481 -277.5 c 128,-1,44
 561 -319 561 -319 672 -319 c 0,45,46
 838 -319 838 -319 966 -251.5 c 128,-1,47
 1094 -184 1094 -184 1194 -49 c 0,48,49
 1257 35 1257 35 1293 130 c 128,-1,50
 1329 225 1329 225 1348.5 325.5 c 128,-1,51
 1368 426 1368 426 1374 529.5 c 128,-1,52
 1380 633 1380 633 1386 735 c 0,53,54
 1386 745 1386 745 1386 784 c 0,55,56
 1386 825 1386 825 1386 870 c 0,57,58
 1386 918 1386 918 1387.5 956.5 c 128,-1,59
 1389 995 1389 995 1389 1006 c 0,60,61
 1389 1038 1389 1038 1389 1120 c 256,62,63
 1389 1202 1389 1202 1387.5 1294 c 128,-1,64
 1386 1386 1386 1386 1386 1468 c 256,65,66
 1386 1550 1386 1550 1386 1585 c 0,67,68
 1386 1597 1386 1597 1394.5 1626 c 128,-1,69
 1403 1655 1403 1655 1409 1671 c 1,70,71
 1415 1694 1415 1694 1420 1712.5 c 128,-1,72
 1425 1731 1425 1731 1430 1741 c 1,73,74
 1434 1755 1434 1755 1464.5 1829 c 128,-1,75
 1495 1903 1495 1903 1526 1989 c 1,76,77
 1532 1993 1532 1993 1532 1976 c 0,78,79
 1532 1960 1532 1960 1532 1950 c 0,80,81
 1526 1823 1526 1823 1521 1701 c 128,-1,82
 1516 1579 1516 1579 1516 1454 c 2,83,-1
 1516 1350 l 1,84,85
 1518 1348 1518 1348 1518 1346 c 2,86,-1
 1485 895 l 1,0,1
EndSplineSet
EndChar

StartChar: glyph95
Encoding: 65587 -1 92
Width: 881
GlyphClass: 2
Flags: W
AnchorPoint: "Anchor-38" 624 -1187 basechar 0
AnchorPoint: "Anchor-37" 368 1269 basechar 0
LayerCount: 2
Fore
SplineSet
182 -1513 m 1,0,1
 170 -1286 170 -1286 157.5 -1061 c 128,-1,2
 145 -836 145 -836 145 -608 c 0,3,4
 145 -434 145 -434 150.5 -259 c 128,-1,5
 156 -84 156 -84 203 84 c 0,6,7
 233 193 233 193 281.5 289 c 128,-1,8
 330 385 330 385 397.5 462 c 128,-1,9
 465 539 465 539 554 591 c 128,-1,10
 643 643 643 643 758 666 c 1,11,12
 745 678 745 678 729 682 c 128,-1,13
 713 686 713 686 721 709 c 1,14,15
 743 756 743 756 769 800 c 128,-1,16
 795 844 795 844 817 887 c 0,17,18
 827 907 827 907 838.5 928.5 c 128,-1,19
 850 950 850 950 866 950 c 0,20,21
 901 950 901 950 942 931.5 c 128,-1,22
 983 913 983 913 1018 882.5 c 128,-1,23
 1053 852 1053 852 1076.5 815 c 128,-1,24
 1100 778 1100 778 1100 741 c 0,25,26
 1100 707 1100 707 1089.5 676 c 128,-1,27
 1079 645 1079 645 1063 616 c 0,28,29
 1016 530 1016 530 932 479 c 128,-1,30
 848 428 848 428 752 412 c 1,31,32
 745 412 745 412 726 409 c 128,-1,33
 707 406 707 406 684.5 401.5 c 128,-1,34
 662 397 662 397 642.5 394 c 128,-1,35
 623 391 623 391 618 391 c 0,36,37
 563 381 563 381 506 355.5 c 128,-1,38
 449 330 449 330 398.5 291 c 128,-1,39
 348 252 348 252 313.5 201 c 128,-1,40
 279 150 279 150 270 88 c 1,41,42
 260 37 260 37 256 -11 c 128,-1,43
 252 -59 252 -59 250 -111 c 0,44,45
 250 -113 250 -113 249 -165 c 128,-1,46
 248 -217 248 -217 246 -289.5 c 128,-1,47
 244 -362 244 -362 242 -440 c 128,-1,48
 240 -518 240 -518 240 -567 c 0,49,50
 236 -809 236 -809 231.5 -1048.5 c 128,-1,51
 227 -1288 227 -1288 223 -1530 c 1,52,53
 221 -1552 221 -1552 219 -1578 c 128,-1,54
 217 -1604 217 -1604 213 -1626 c 1,55,-1
 209 -1622 l 1,56,57
 197 -1593 197 -1593 191.5 -1568.5 c 128,-1,58
 186 -1544 186 -1544 182 -1513 c 1,0,1
EndSplineSet
EndChar

StartChar: glyph97
Encoding: 65589 -1 94
Width: 1446
GlyphClass: 2
Flags: W
AnchorPoint: "Anchor-38" 1013 -768 basechar 0
AnchorPoint: "Anchor-37" 798 1269 basechar 0
LayerCount: 2
Fore
SplineSet
1513 819 m 1,0,-1
 1511 819 l 1,1,-1
 1497 680 l 2,2,3
 1481 514 1481 514 1455.5 351 c 128,-1,4
 1430 188 1430 188 1378 29 c 1,5,6
 1343 -84 1343 -84 1280 -203 c 128,-1,7
 1217 -322 1217 -322 1127.5 -420 c 128,-1,8
 1038 -518 1038 -518 925.5 -580.5 c 128,-1,9
 813 -643 813 -643 680 -643 c 0,10,11
 551 -643 551 -643 460 -585.5 c 128,-1,12
 369 -528 369 -528 311.5 -438 c 128,-1,13
 254 -348 254 -348 227.5 -235.5 c 128,-1,14
 201 -123 201 -123 201 -12 c 0,15,16
 201 59 201 59 206 127 c 128,-1,17
 211 195 211 195 223.5 262.5 c 128,-1,18
 236 330 236 330 255 398.5 c 128,-1,19
 274 467 274 467 303 543 c 0,20,21
 313 571 313 571 325.5 602 c 128,-1,22
 338 633 338 633 354 657 c 0,23,24
 362 668 362 668 371.5 662.5 c 128,-1,25
 381 657 381 657 371 629 c 1,26,27
 334 539 334 539 313.5 432.5 c 128,-1,28
 293 326 293 326 293 219 c 0,29,30
 293 113 293 113 314.5 12.5 c 128,-1,31
 336 -88 336 -88 383 -166 c 128,-1,32
 430 -244 430 -244 506 -291 c 128,-1,33
 582 -338 582 -338 688 -340 c 1,34,35
 864 -340 864 -340 997 -266.5 c 128,-1,36
 1130 -193 1130 -193 1219.5 -73 c 128,-1,37
 1309 47 1309 47 1354 200.5 c 128,-1,38
 1399 354 1399 354 1399 516 c 0,39,40
 1399 565 1399 565 1399 600 c 256,41,42
 1399 635 1399 635 1398 667.5 c 128,-1,43
 1397 700 1397 700 1395 735 c 128,-1,44
 1393 770 1393 770 1389 817 c 0,45,46
 1389 819 1389 819 1387.5 829.5 c 128,-1,47
 1386 840 1386 840 1386 850 c 0,48,49
 1386 862 1386 862 1385 872.5 c 128,-1,50
 1384 883 1384 883 1384 885 c 0,51,52
 1384 891 1384 891 1385 912.5 c 128,-1,53
 1386 934 1386 934 1390.5 958.5 c 128,-1,54
 1395 983 1395 983 1403 1002.5 c 128,-1,55
 1411 1022 1411 1022 1425 1022 c 0,56,57
 1432 1022 1432 1022 1437 1016 c 128,-1,58
 1442 1010 1442 1010 1448 1004 c 0,59,60
 1464 985 1464 985 1485 979 c 1,61,-1
 1513 819 l 1,0,-1
EndSplineSet
EndChar

StartChar: glyph98
Encoding: 65590 -1 95
Width: 535
GlyphClass: 2
Flags: W
AnchorPoint: "Anchor-38" 153 -276 basechar 0
AnchorPoint: "Anchor-37" 225 1218 basechar 0
AnchorPoint: "Cursive-23" 552 0 entry 0
LayerCount: 2
Fore
SplineSet
578 651 m 1,0,-1
 428 287 l 2,1,2
 399 217 399 217 368.5 158.5 c 128,-1,3
 338 100 338 100 295 25 c 1,4,5
 285 2 285 2 268 -2 c 0,6,7
 176 -29 176 -29 89 -55.5 c 128,-1,8
 2 -82 2 -82 -90 -111 c 0,9,10
 -98 -113 -98 -113 -98 -104 c 0,11,12
 -98 -96 -98 -96 -90 -94 c 1,13,14
 25 -8 25 -8 114 57.5 c 128,-1,15
 203 123 203 123 289 188 c 1,16,17
 342 231 342 231 357.5 257 c 128,-1,18
 373 283 373 283 371 289 c 1,19,20
 369 303 369 303 357.5 316.5 c 128,-1,21
 346 330 346 330 330 328 c 1,22,23
 293 305 293 305 249 306 c 128,-1,24
 205 307 205 307 167 327.5 c 128,-1,25
 129 348 129 348 103.5 384 c 128,-1,26
 78 420 78 420 78 465 c 0,27,28
 78 477 78 477 79 486.5 c 128,-1,29
 80 496 80 496 84 506 c 0,30,31
 90 520 90 520 104.5 555 c 128,-1,32
 119 590 119 590 135.5 629 c 128,-1,33
 152 668 152 668 166 702.5 c 128,-1,34
 180 737 180 737 186 752 c 0,35,36
 201 784 201 784 225.5 812 c 128,-1,37
 250 840 250 840 289 840 c 0,38,39
 332 840 332 840 366.5 807 c 128,-1,40
 401 774 401 774 426 734 c 128,-1,41
 451 694 451 694 465 661.5 c 128,-1,42
 479 629 479 629 481 629 c 2,43,-1
 483 629 l 1,44,45
 487 633 487 633 494.5 639 c 128,-1,46
 502 645 502 645 508 651 c 1,47,-1
 578 651 l 1,0,-1
EndSplineSet
Substitution2: "Single Substitution lookup 110 subtable" uni0648.001
EndChar

StartChar: uni0648.001
Encoding: 65591 -1 96
Width: 473
GlyphClass: 2
Flags: W
AnchorPoint: "Anchor-38" 153 -215 basechar 0
AnchorPoint: "Anchor-37" 215 1116 basechar 0
LayerCount: 2
Fore
SplineSet
293 29 m 1,0,1
 283 6 283 6 266 2 c 1,2,3
 180 -25 180 -25 95 -50.5 c 128,-1,4
 10 -76 10 -76 -82 -104 c 1,5,6
 -96 -104 -96 -104 -97 -99 c 128,-1,7
 -98 -94 -98 -94 -92 -88 c 128,-1,8
 -86 -82 -86 -82 -77 -75 c 128,-1,9
 -68 -68 -68 -68 -61 -63 c 0,10,11
 35 10 35 10 150.5 89 c 128,-1,12
 266 168 266 168 360 262 c 1,13,14
 377 293 377 293 360.5 310.5 c 128,-1,15
 344 328 344 328 317 332 c 1,16,17
 281 303 281 303 237 304 c 128,-1,18
 193 305 193 305 156 326.5 c 128,-1,19
 119 348 119 348 93.5 384 c 128,-1,20
 68 420 68 420 68 463 c 2,21,-1
 68 487 l 2,22,23
 68 492 68 492 69 497 c 128,-1,24
 70 502 70 502 72 510 c 0,25,26
 94 575 94 575 117.5 637.5 c 128,-1,27
 141 700 141 700 164 766 c 0,28,29
 174 795 174 795 201.5 816.5 c 128,-1,30
 229 838 229 838 262 838 c 0,31,32
 317 838 317 838 355 797 c 128,-1,33
 393 756 393 756 417.5 697.5 c 128,-1,34
 442 639 442 639 452.5 576.5 c 128,-1,35
 463 514 463 514 463 473 c 0,36,37
 463 440 463 440 460 408.5 c 128,-1,38
 457 377 457 377 446 346 c 0,39,40
 430 299 430 299 413.5 261 c 128,-1,41
 397 223 397 223 378.5 186.5 c 128,-1,42
 360 150 360 150 338.5 112 c 128,-1,43
 317 74 317 74 293 29 c 1,0,1
EndSplineSet
EndChar

StartChar: uni06C1.1
Encoding: 65592 -1 97
Width: 502
GlyphClass: 2
Flags: W
AnchorPoint: "Anchor-29" 299 520 basechar 0
AnchorPoint: "Anchor-38" 225 -593 basechar 0
AnchorPoint: "Anchor-37" 327 819 basechar 0
LayerCount: 2
Fore
SplineSet
477 -23 m 1,0,1
 432 -25 432 -25 387 -45.5 c 128,-1,2
 342 -66 342 -66 300 -95.5 c 128,-1,3
 258 -125 258 -125 224 -159 c 128,-1,4
 190 -193 190 -193 166 -219 c 0,5,6
 150 -236 150 -236 146.5 -233.5 c 128,-1,7
 143 -231 143 -231 147 -211 c 1,8,9
 168 -141 168 -141 213 -63.5 c 128,-1,10
 258 14 258 14 319.5 79.5 c 128,-1,11
 381 145 381 145 455.5 191.5 c 128,-1,12
 530 238 530 238 608 246 c 1,13,-1
 610 246 l 1,14,-1
 477 -23 l 1,0,1
EndSplineSet
Substitution2: "Single Substitution lookup 115 subtable" uni06C1.3
EndChar

StartChar: uni06C1.2
Encoding: 65593 -1 98
Width: 502
GlyphClass: 2
Flags: W
AnchorPoint: "Anchor-38" 225 -593 basechar 0
AnchorPoint: "Anchor-37" 276 993 basechar 0
LayerCount: 2
Fore
SplineSet
610 246 m 1,0,-1
 477 -23 l 1,1,2
 430 -25 430 -25 385 -46.5 c 0,3,4
 340 -68 340 -68 299 -96.5 c 0,5,6
 258 -125 258 -125 224 -159 c 0,7,8
 190 -193 190 -193 166 -219 c 0,9,10
 150 -236 150 -236 146.5 -233.5 c 0,11,12
 143 -231 143 -231 147 -211 c 1,13,14
 168 -141 168 -141 213 -63.5 c 0,15,16
 258 14 258 14 319.5 79.5 c 0,17,18
 381 145 381 145 454.5 191.5 c 0,19,20
 528 238 528 238 608 246 c 1,21,-1
 610 246 l 1,0,-1
EndSplineSet
Refer: 834 -1 N 1 0 0 1 299 521 2
Substitution2: "Single Substitution lookup 115 subtable" uni06C1.4
Comment: "No longer used, using decomposed <base><mark> instead." 
Colour: ffff00
EndChar

StartChar: uni06C1.3
Encoding: 65594 -1 99
Width: 457
GlyphClass: 2
Flags: W
AnchorPoint: "Anchor-29" 555 639 basechar 0
AnchorPoint: "Anchor-38" 225 -593 basechar 0
AnchorPoint: "Anchor-37" 358 778 basechar 0
LayerCount: 2
Fore
SplineSet
463 -45 m 1,0,1
 406 -51 406 -51 352.5 -84 c 128,-1,2
 299 -117 299 -117 256 -147 c 0,3,4
 250 -152 250 -152 231.5 -169 c 128,-1,5
 213 -186 213 -186 194.5 -205.5 c 128,-1,6
 176 -225 176 -225 145 -256 c 0,7,8
 143 -258 143 -258 143 -256 c 0,9,10
 143 -252 143 -252 144 -240.5 c 128,-1,11
 145 -229 145 -229 147 -225 c 0,12,13
 168 -162 168 -162 208 -83 c 128,-1,14
 248 -4 248 -4 304 65.5 c 128,-1,15
 360 135 360 135 429 184 c 128,-1,16
 498 233 498 233 578 236 c 1,17,-1
 463 -45 l 1,0,1
EndSplineSet
EndChar

StartChar: uni06C1.4
Encoding: 65595 -1 100
Width: 457
GlyphClass: 2
Flags: W
AnchorPoint: "Anchor-38" 225 -593 basechar 0
AnchorPoint: "Anchor-37" 532 1085 basechar 0
LayerCount: 2
Fore
SplineSet
578 236 m 1,0,-1
 463 -45 l 1,1,2
 406 -51 406 -51 352.5 -84 c 0,3,4
 299 -117 299 -117 256 -147 c 1,5,6
 242 -158 242 -158 214 -186.5 c 0,7,8
 186 -215 186 -215 145 -256 c 0,9,10
 143 -258 143 -258 143 -256 c 0,11,12
 143 -252 143 -252 144 -240.5 c 0,13,14
 145 -229 145 -229 147 -225 c 0,15,16
 168 -162 168 -162 208 -83 c 0,17,18
 248 -4 248 -4 303 65.5 c 0,19,20
 358 135 358 135 428 184 c 0,21,22
 498 233 498 233 578 236 c 1,0,-1
EndSplineSet
Refer: 834 -1 N 1 0 0 1 555 639 2
Comment: "No longer used, using decomposed <base><mark> instead." 
Colour: ffff00
EndChar

StartChar: uni06BE.1
Encoding: 65596 -1 101
Width: 530
GlyphClass: 2
Flags: W
AnchorPoint: "Anchor-38" 143 -307 basechar 0
AnchorPoint: "Anchor-37" 184 952 basechar 0
AnchorPoint: "Cursive-23" 563 30 entry 0
LayerCount: 2
Fore
SplineSet
606 289 m 0,0,1
 567 289 567 289 532.5 266.5 c 128,-1,2
 498 244 498 244 475 213 c 1,3,4
 436 164 436 164 399 116 c 128,-1,5
 362 68 362 68 324 18 c 1,6,7
 354 27 354 27 414.5 41 c 128,-1,8
 475 55 475 55 536.5 77.5 c 128,-1,9
 598 100 598 100 647 134 c 128,-1,10
 696 168 696 168 702 215 c 1,11,12
 702 256 702 256 670.5 272.5 c 128,-1,13
 639 289 639 289 606 289 c 0,0,1
385 367 m 1,14,15
 338 358 338 358 294 312 c 128,-1,16
 250 266 250 266 211 204.5 c 128,-1,17
 172 143 172 143 139 79.5 c 128,-1,18
 106 16 106 16 82 -23 c 1,19,20
 94 -16 94 -16 122 1 c 128,-1,21
 150 18 150 18 179.5 36.5 c 128,-1,22
 209 55 209 55 234.5 72.5 c 128,-1,23
 260 90 260 90 272 96 c 1,24,25
 289 109 289 109 321.5 131.5 c 128,-1,26
 354 154 354 154 386 181.5 c 128,-1,27
 418 209 418 209 442.5 238.5 c 128,-1,28
 467 268 467 268 467 297 c 0,29,30
 467 334 467 334 443.5 350.5 c 128,-1,31
 420 367 420 367 385 367 c 1,14,15
430 537 m 1,32,33
 492 537 492 537 519.5 495 c 128,-1,34
 547 453 547 453 549 393 c 1,35,-1
 551 393 l 1,36,37
 578 406 578 406 608.5 426 c 128,-1,38
 639 446 639 446 684 446 c 0,39,40
 737 446 737 446 767 406.5 c 128,-1,41
 797 367 797 367 793 317 c 0,42,43
 786 240 786 240 738 169 c 128,-1,44
 690 98 690 98 637 31 c 0,45,46
 612 0 612 0 581.5 -25.5 c 128,-1,47
 551 -51 551 -51 516 -61 c 1,48,49
 375 -86 375 -86 236.5 -111.5 c 128,-1,50
 98 -137 98 -137 -43 -162 c 0,51,52
 -51 -164 -51 -164 -76.5 -168 c 128,-1,53
 -102 -172 -102 -172 -123 -172 c 0,54,55
 -141 -172 -141 -172 -150.5 -167 c 128,-1,56
 -160 -162 -160 -162 -137 -147 c 1,57,58
 -109 -123 -109 -123 -75 -107.5 c 128,-1,59
 -41 -92 -41 -92 -10 -72 c 1,60,61
 49 27 49 27 99.5 126 c 128,-1,62
 150 225 150 225 211 324 c 0,63,64
 229 354 229 354 250.5 390 c 128,-1,65
 272 426 272 426 299 457.5 c 128,-1,66
 326 489 326 489 357.5 512 c 128,-1,67
 389 535 389 535 430 537 c 1,32,33
EndSplineSet
EndChar

StartChar: glyph105
Encoding: 65597 -1 102
Width: 698
GlyphClass: 3
Flags: W
AnchorPoint: "Anchor-40" 450 -307 baselig 0
AnchorPoint: "Anchor-39" 358 1617 baselig 0
AnchorPoint: "Cursive-1" 695 122 entry 0
AnchorPoint: "Anchor-39" 358 1617 baselig 1
AnchorPoint: "Anchor-40" 450 -307 baselig 1
LayerCount: 2
Fore
SplineSet
737 694 m 1,0,1
 737 623 737 623 748.5 560.5 c 128,-1,2
 760 498 760 498 782 457 c 1,3,4
 735 383 735 383 707.5 323.5 c 128,-1,5
 680 264 680 264 649 199 c 1,6,-1
 649 201 l 1,7,8
 635 164 635 164 604 109.5 c 128,-1,9
 573 55 573 55 533.5 6 c 128,-1,10
 494 -43 494 -43 445.5 -77 c 128,-1,11
 397 -111 397 -111 348 -109 c 1,12,13
 303 -102 303 -102 265 -77.5 c 128,-1,14
 227 -53 227 -53 199.5 -20.5 c 128,-1,15
 172 12 172 12 152.5 46 c 128,-1,16
 133 80 133 80 125 102 c 1,17,18
 125 119 125 119 141 119 c 1,19,20
 160 113 160 113 177.5 101.5 c 128,-1,21
 195 90 195 90 217 88 c 1,22,-1
 223 88 l 1,23,24
 266 172 266 172 279.5 264 c 128,-1,25
 293 356 293 356 297 449 c 1,26,27
 307 614 307 614 306 778 c 128,-1,28
 305 942 305 942 313 1108 c 1,29,-1
 418 1425 l 2,30,31
 422 1440 422 1440 428 1430 c 1,32,33
 432 1231 432 1231 434 1035.5 c 128,-1,34
 436 840 436 840 422 637 c 1,35,36
 418 537 418 537 403.5 437.5 c 128,-1,37
 389 338 389 338 342 250 c 0,38,39
 336 240 336 240 321.5 216.5 c 128,-1,40
 307 193 307 193 291.5 166 c 128,-1,41
 276 139 276 139 263 115.5 c 128,-1,42
 250 92 250 92 246 82 c 1,43,44
 285 74 285 74 327 75 c 128,-1,45
 369 76 369 76 409 87 c 128,-1,46
 449 98 449 98 483.5 119.5 c 128,-1,47
 518 141 518 141 543 176 c 1,48,49
 551 184 551 184 557 194.5 c 128,-1,50
 563 205 563 205 568 225.5 c 128,-1,51
 573 246 573 246 578.5 278.5 c 128,-1,52
 584 311 584 311 590 365 c 1,53,54
 600 545 600 545 605 721 c 128,-1,55
 610 897 610 897 621 1077 c 1,56,-1
 621 1094 l 1,57,58
 618 1108 618 1108 620.5 1122.5 c 128,-1,59
 623 1137 623 1137 623 1151 c 2,60,-1
 623 1208 l 1,61,-1
 729 1526 l 1,62,63
 733 1530 733 1530 735 1530 c 2,64,-1
 739 1530 l 1,65,66
 741 1419 741 1419 740 1313.5 c 128,-1,67
 739 1208 739 1208 735 1092 c 0,68,69
 735 1075 735 1075 734 1034 c 128,-1,70
 733 993 733 993 732 938 c 128,-1,71
 731 883 731 883 732 819.5 c 128,-1,72
 733 756 733 756 737 694 c 1,0,1
EndSplineSet
Ligature2: "'rlig' Required Ligatures in Arabic lookup 105 subtable" glyph743 glyph47
Ligature2: "'rlig' Required Ligatures in Arabic lookup 105 subtable" glyph742 glyph47
Ligature2: "'rlig' Required Ligatures in Arabic lookup 105 subtable" glyph741 glyph47
Ligature2: "'rlig' Required Ligatures in Arabic lookup 105 subtable" glyph740 glyph47
Ligature2: "'rlig' Required Ligatures in Arabic lookup 105 subtable" glyph739 glyph47
Ligature2: "'rlig' Required Ligatures in Arabic lookup 105 subtable" glyph738 glyph47
Ligature2: "'rlig' Required Ligatures in Arabic lookup 105 subtable" glyph737 glyph47
Ligature2: "'rlig' Required Ligatures in Arabic lookup 105 subtable" glyph736 glyph47
Ligature2: "'rlig' Required Ligatures in Arabic lookup 105 subtable" glyph735 glyph47
Ligature2: "'rlig' Required Ligatures in Arabic lookup 105 subtable" glyph734 glyph47
Ligature2: "'rlig' Required Ligatures in Arabic lookup 105 subtable" glyph733 glyph47
Ligature2: "'rlig' Required Ligatures in Arabic lookup 105 subtable" glyph732 glyph47
Ligature2: "'rlig' Required Ligatures in Arabic lookup 105 subtable" glyph731 glyph47
Ligature2: "'rlig' Required Ligatures in Arabic lookup 105 subtable" glyph730 glyph47
Ligature2: "'rlig' Required Ligatures in Arabic lookup 105 subtable" glyph729 glyph47
Ligature2: "'rlig' Required Ligatures in Arabic lookup 105 subtable" glyph728 glyph47
Ligature2: "'rlig' Required Ligatures in Arabic lookup 105 subtable" glyph727 glyph47
Ligature2: "'rlig' Required Ligatures in Arabic lookup 105 subtable" glyph726 glyph47
Ligature2: "'rlig' Required Ligatures in Arabic lookup 105 subtable" glyph725 glyph47
Ligature2: "'rlig' Required Ligatures in Arabic lookup 105 subtable" glyph724 glyph47
Ligature2: "'rlig' Required Ligatures in Arabic lookup 105 subtable" glyph723 glyph47
Ligature2: "'rlig' Required Ligatures in Arabic lookup 105 subtable" glyph722 glyph47
Ligature2: "'rlig' Required Ligatures in Arabic lookup 105 subtable" glyph721 glyph47
Ligature2: "'rlig' Required Ligatures in Arabic lookup 105 subtable" glyph720 glyph47
Ligature2: "'rlig' Required Ligatures in Arabic lookup 105 subtable" glyph719 glyph47
EndChar

StartChar: glyph106
Encoding: 65598 -1 103
Width: 1061
GlyphClass: 2
Flags: W
AnchorPoint: "Anchor-38" 808 -849 basechar 0
AnchorPoint: "Anchor-37" 809 1803 basechar 0
LayerCount: 2
Fore
SplineSet
1047 653 m 1,0,1
 1049 637 1049 637 1059 621 c 0,2,3
 1075 594 1075 594 1101.5 577.5 c 128,-1,4
 1128 561 1128 561 1160 551 c 128,-1,5
 1192 541 1192 541 1223.5 536.5 c 128,-1,6
 1255 532 1255 532 1282 530 c 1,7,8
 1327 479 1327 479 1345.5 416.5 c 128,-1,9
 1364 354 1364 354 1366 287.5 c 128,-1,10
 1368 221 1368 221 1354.5 155.5 c 128,-1,11
 1341 90 1341 90 1323 33 c 0,12,13
 1286 -78 1286 -78 1222.5 -195.5 c 128,-1,14
 1159 -313 1159 -313 1073 -411.5 c 128,-1,15
 987 -510 987 -510 876.5 -573.5 c 128,-1,16
 766 -637 766 -637 633 -637 c 0,17,18
 526 -637 526 -637 446.5 -599 c 128,-1,19
 367 -561 367 -561 310.5 -497.5 c 128,-1,20
 254 -434 254 -434 218 -351 c 128,-1,21
 182 -268 182 -268 164 -178 c 1,22,23
 115 51 115 51 163 291.5 c 128,-1,24
 211 532 211 532 322 768 c 1,25,26
 334 801 334 801 348 807 c 128,-1,27
 362 813 362 813 354 772 c 1,28,29
 338 715 338 715 317.5 640 c 128,-1,30
 297 565 297 565 279.5 486.5 c 128,-1,31
 262 408 262 408 250 330 c 128,-1,32
 238 252 238 252 238 190 c 0,33,34
 238 98 238 98 263.5 4 c 128,-1,35
 289 -90 289 -90 341 -165 c 128,-1,36
 393 -240 393 -240 472 -287 c 128,-1,37
 551 -334 551 -334 655 -334 c 0,38,39
 836 -334 836 -334 966 -246 c 128,-1,40
 1096 -158 1096 -158 1196 -16 c 1,41,42
 1210 6 1210 6 1236 47 c 128,-1,43
 1262 88 1262 88 1276 127 c 128,-1,44
 1290 166 1290 166 1282 194.5 c 128,-1,45
 1274 223 1274 223 1225 223 c 1,46,47
 1171 225 1171 225 1123 237.5 c 128,-1,48
 1075 250 1075 250 1039.5 277.5 c 128,-1,49
 1004 305 1004 305 982.5 349 c 128,-1,50
 961 393 961 393 961 459 c 0,51,52
 961 508 961 508 966 557 c 128,-1,53
 971 606 971 606 981 653 c 1,54,-1
 1047 653 l 1,0,1
EndSplineSet
Substitution2: "Single Substitution lookup 116 subtable" glyph107
EndChar

StartChar: glyph107
Encoding: 65599 -1 104
Width: 1135
GlyphClass: 2
Flags: W
AnchorPoint: "Anchor-38" 757 -819 basechar 0
AnchorPoint: "Anchor-37" 908 1797 basechar 0
LayerCount: 2
Fore
SplineSet
168 -168 m 1,0,1
 119 61 119 61 167 302 c 128,-1,2
 215 543 215 543 326 778 c 1,3,4
 338 811 338 811 352.5 817 c 128,-1,5
 367 823 367 823 358 782 c 1,6,7
 342 725 342 725 321.5 650 c 128,-1,8
 301 575 301 575 283.5 496.5 c 128,-1,9
 266 418 266 418 254 340 c 128,-1,10
 242 262 242 262 242 201 c 0,11,12
 242 109 242 109 267.5 14.5 c 128,-1,13
 293 -80 293 -80 345 -154.5 c 128,-1,14
 397 -229 397 -229 476 -276.5 c 128,-1,15
 555 -324 555 -324 659 -324 c 0,16,17
 840 -324 840 -324 970 -235.5 c 128,-1,18
 1100 -147 1100 -147 1200 -6 c 0,19,20
 1212 12 1212 12 1229.5 40 c 128,-1,21
 1247 68 1247 68 1263.5 99.5 c 128,-1,22
 1280 131 1280 131 1291.5 163 c 128,-1,23
 1303 195 1303 195 1303 221 c 0,24,25
 1303 246 1303 246 1289.5 269.5 c 128,-1,26
 1276 293 1276 293 1255.5 315.5 c 128,-1,27
 1235 338 1235 338 1213.5 355.5 c 128,-1,28
 1192 373 1192 373 1174 385 c 0,29,30
 1167 389 1167 389 1151 400.5 c 128,-1,31
 1135 412 1135 412 1115.5 424 c 128,-1,32
 1096 436 1096 436 1079.5 447.5 c 128,-1,33
 1063 459 1063 459 1057 463 c 0,34,35
 1022 485 1022 485 1021 525 c 128,-1,36
 1020 565 1020 565 1030 600 c 1,37,38
 1032 614 1032 614 1044.5 646 c 128,-1,39
 1057 678 1057 678 1072 713 c 128,-1,40
 1087 748 1087 748 1101.5 780.5 c 128,-1,41
 1116 813 1116 813 1124 831 c 1,42,-1
 1182 809 l 1,43,44
 1176 793 1176 793 1172.5 787.5 c 128,-1,45
 1169 782 1169 782 1174 770 c 1,46,47
 1206 729 1206 729 1246 695.5 c 128,-1,48
 1286 662 1286 662 1321 626 c 128,-1,49
 1356 590 1356 590 1380.5 547 c 128,-1,50
 1405 504 1405 504 1405 442 c 0,51,52
 1405 344 1405 344 1381.5 227.5 c 128,-1,53
 1358 111 1358 111 1313 -8 c 128,-1,54
 1268 -127 1268 -127 1201.5 -238.5 c 128,-1,55
 1135 -350 1135 -350 1050 -436 c 128,-1,56
 965 -522 965 -522 861.5 -574.5 c 128,-1,57
 758 -627 758 -627 637 -627 c 0,58,59
 530 -627 530 -627 450.5 -589 c 128,-1,60
 371 -551 371 -551 314.5 -487.5 c 128,-1,61
 258 -424 258 -424 222 -341 c 128,-1,62
 186 -258 186 -258 168 -168 c 1,0,1
EndSplineSet
EndChar

StartChar: glyph108
Encoding: 65600 -1 105
Width: 2705
GlyphClass: 2
Flags: W
AnchorPoint: "Anchor-38" 409 -378 basechar 0
AnchorPoint: "Anchor-37" 256 1546 basechar 0
AnchorPoint: "Cursive-0" 266 0 entry 0
LayerCount: 2
Fore
SplineSet
340 342 m 1,0,-1
 397 342 l 1,1,2
 387 332 387 332 372.5 322.5 c 128,-1,3
 358 313 358 313 358 297 c 0,4,5
 358 293 358 293 369 276 c 1,6,7
 403 233 403 233 463.5 207.5 c 128,-1,8
 524 182 524 182 593 168 c 128,-1,9
 662 154 662 154 730.5 147.5 c 128,-1,10
 799 141 799 141 850 139 c 1,11,12
 1030 127 1030 127 1204 122 c 128,-1,13
 1378 117 1378 117 1559 117 c 2,14,-1
 1597 117 l 2,15,16
 1628 117 1628 117 1687.5 119 c 128,-1,17
 1747 121 1747 121 1851.5 127 c 128,-1,18
 1956 133 1956 133 2115.5 143.5 c 128,-1,19
 2275 154 2275 154 2509 170 c 1,20,21
 2540 174 2540 174 2550 172 c 128,-1,22
 2560 170 2560 170 2560 166 c 0,23,24
 2560 164 2560 164 2550 154 c 1,25,26
 2410 39 2410 39 2255.5 -10 c 128,-1,27
 2101 -59 2101 -59 1925 -82 c 1,28,29
 1677 -98 1677 -98 1431.5 -102 c 128,-1,30
 1186 -106 1186 -106 938 -106 c 1,31,32
 784 -109 784 -109 630.5 -96.5 c 128,-1,33
 477 -84 477 -84 348 -55 c 0,34,35
 324 -49 324 -49 288 -39 c 128,-1,36
 252 -29 252 -29 220 -11.5 c 128,-1,37
 188 6 188 6 165.5 30.5 c 128,-1,38
 143 55 143 55 143 90 c 1,39,40
 150 115 150 115 165 138.5 c 128,-1,41
 180 162 180 162 204.5 189.5 c 128,-1,42
 229 217 229 217 263 254 c 128,-1,43
 297 291 297 291 340 342 c 1,0,-1
EndSplineSet
EndChar

StartChar: glyph109
Encoding: 65601 -1 106
Width: 592
GlyphClass: 2
Flags: W
AnchorPoint: "Anchor-191" 215 -296 basechar 0
AnchorPoint: "Anchor-190" 286 -348 basechar 0
AnchorPoint: "Anchor-185" 204 -1024 basechar 0
AnchorPoint: "Anchor-184" 204 -1024 basechar 0
AnchorPoint: "Anchor-154" 0 0 basechar 0
AnchorPoint: "Anchor-153" 204 -1228 basechar 0
AnchorPoint: "Anchor-152" 204 -1228 basechar 0
AnchorPoint: "Anchor-151" 204 -819 basechar 0
AnchorPoint: "Anchor-150" 204 -819 basechar 0
AnchorPoint: "Anchor-148" 266 -890 basechar 0
AnchorPoint: "Anchor-147" 153 -890 basechar 0
AnchorPoint: "Anchor-136" 266 -788 basechar 0
AnchorPoint: "Anchor-135" 327 -460 basechar 0
AnchorPoint: "Anchor-134" 368 -952 basechar 0
AnchorPoint: "Anchor-133" 256 -952 basechar 0
AnchorPoint: "Anchor-108" 450 -307 basechar 0
AnchorPoint: "Anchor-107" 368 -307 basechar 0
AnchorPoint: "Anchor-88" 512 1228 basechar 0
AnchorPoint: "Anchor-87" 450 1064 basechar 0
AnchorPoint: "Anchor-78" 450 1658 basechar 0
AnchorPoint: "Anchor-77" 512 1699 basechar 0
AnchorPoint: "Anchor-76" 368 1617 basechar 0
AnchorPoint: "Anchor-42" 532 1126 basechar 0
AnchorPoint: "Anchor-41" 348 1126 basechar 0
AnchorPoint: "Anchor-36" 184 -460 basechar 0
AnchorPoint: "Anchor-35" 153 -460 basechar 0
AnchorPoint: "Anchor-28" 184 -378 basechar 0
AnchorPoint: "Anchor-27" 451 963 basechar 0
AnchorPoint: "Anchor-26" 451 963 basechar 0
AnchorPoint: "Anchor-25" 451 963 basechar 0
AnchorPoint: "Anchor-24" 451 963 basechar 0
AnchorPoint: "Cursive-2" 0 0 exit 0
AnchorPoint: "Cursive-1" 0 0 exit 0
LayerCount: 2
Fore
SplineSet
444 356 m 0,0,1
 432 291 432 291 408.5 221.5 c 128,-1,2
 385 152 385 152 348 93.5 c 128,-1,3
 311 35 311 35 262 -2 c 128,-1,4
 213 -39 213 -39 150 -37 c 1,5,6
 96 -33 96 -33 57 -4 c 128,-1,7
 18 25 18 25 -18 80 c 1,8,9
 -49 135 -49 135 -60.5 200.5 c 128,-1,10
 -72 266 -72 266 -68 322 c 0,11,12
 -68 330 -68 330 -67 354.5 c 128,-1,13
 -66 379 -66 379 -66 387 c 1,14,15
 -47 442 -47 442 -20.5 515 c 128,-1,16
 6 588 6 588 47 637 c 1,17,-1
 47 627 l 2,18,19
 47 582 47 582 49 523.5 c 128,-1,20
 51 465 51 465 68 418 c 1,21,22
 76 391 76 391 93.5 363.5 c 128,-1,23
 111 336 111 336 135.5 313.5 c 128,-1,24
 160 291 160 291 189.5 277.5 c 128,-1,25
 219 264 219 264 254 266 c 1,26,27
 291 266 291 266 317.5 279.5 c 128,-1,28
 344 293 344 293 362.5 313.5 c 128,-1,29
 381 334 381 334 393.5 360.5 c 128,-1,30
 406 387 406 387 412 412 c 0,31,32
 426 471 426 471 434 478 c 128,-1,33
 442 485 442 485 446.5 465.5 c 128,-1,34
 451 446 451 446 450 412.5 c 128,-1,35
 449 379 449 379 444 356 c 0,0,1
EndSplineSet
Substitution2: "Single Substitution lookup 209 subtable" glyph110
Substitution2: "Single Substitution lookup 207 subtable" glyph110
Substitution2: "Single Substitution lookup 206 subtable" glyph111
Substitution2: "Single Substitution lookup 204 subtable" glyph131
Substitution2: "Single Substitution lookup 203 subtable" glyph130
Substitution2: "Single Substitution lookup 202 subtable" glyph129
Substitution2: "Single Substitution lookup 200 subtable" glyph128
Substitution2: "Single Substitution lookup 199 subtable" glyph134
Substitution2: "Single Substitution lookup 188 subtable" glyph132
Substitution2: "Single Substitution lookup 187 subtable" glyph115
Substitution2: "Single Substitution lookup 186 subtable" glyph127
Substitution2: "Single Substitution lookup 185 subtable" glyph126
Substitution2: "Single Substitution lookup 184 subtable" glyph125
Substitution2: "Single Substitution lookup 183 subtable" glyph124
Substitution2: "Single Substitution lookup 182 subtable" uni0628.3
Substitution2: "Single Substitution lookup 181 subtable" glyph111
Substitution2: "Single Substitution lookup 180 subtable" uni0628.2
Substitution2: "Single Substitution lookup 179 subtable" glyph121
Substitution2: "Single Substitution lookup 178 subtable" glyph120
Substitution2: "Single Substitution lookup 177 subtable" glyph119
Substitution2: "Single Substitution lookup 176 subtable" glyph118
Substitution2: "Single Substitution lookup 175 subtable" glyph117
Substitution2: "Single Substitution lookup 174 subtable" glyph116
Substitution2: "Single Substitution lookup 173 subtable" glyph115
Substitution2: "Single Substitution lookup 172 subtable" glyph114
Substitution2: "Single Substitution lookup 171 subtable" uni0628.1
Substitution2: "Single Substitution lookup 170 subtable" glyph112
Substitution2: "Single Substitution lookup 169 subtable" glyph111
Position2: "Single Positioning lookup 130 subtable" dx=0 dy=0 dh=184 dv=0
Position2: "Single Positioning lookup 129 subtable" dx=0 dy=0 dh=675 dv=0
Position2: "Single Positioning lookup 127 subtable" dx=0 dy=0 dh=552 dv=0
Position2: "Single Positioning lookup 123 subtable" dx=0 dy=0 dh=512 dv=0
Position2: "Single Positioning lookup 122 subtable" dx=0 dy=0 dh=737 dv=0
Position2: "Single Positioning lookup 121 subtable" dx=0 dy=0 dh=737 dv=0
Position2: "Single Positioning lookup 120 subtable" dx=0 dy=0 dh=1126 dv=0
EndChar

StartChar: glyph110
Encoding: 65602 -1 107
Width: 616
GlyphClass: 2
Flags: W
AnchorPoint: "Anchor-191" 194 -696 basechar 0
AnchorPoint: "Anchor-190" 194 20 basechar 0
AnchorPoint: "Anchor-183" 778 -778 basechar 0
AnchorPoint: "Anchor-182" 307 122 basechar 0
AnchorPoint: "Anchor-159" 0 0 basechar 0
AnchorPoint: "Anchor-158" 276 -778 basechar 0
AnchorPoint: "Anchor-157" 307 122 basechar 0
AnchorPoint: "Anchor-123" 532 124 basechar 0
AnchorPoint: "Anchor-122" 532 124 basechar 0
AnchorPoint: "Anchor-90" 645 1208 basechar 0
AnchorPoint: "Anchor-89" 552 1208 basechar 0
AnchorPoint: "Anchor-36" 286 63 basechar 0
AnchorPoint: "Anchor-35" 409 81 basechar 0
AnchorPoint: "Anchor-29" 542 1341 basechar 0
AnchorPoint: "Cursive-21" 0 0 exit 0
AnchorPoint: "Cursive-18" 0 0 exit 0
LayerCount: 2
Fore
SplineSet
180 750 m 1,0,1
 203 739 203 739 226.5 731 c 128,-1,2
 250 723 250 723 276 723 c 0,3,4
 342 723 342 723 381 768 c 128,-1,5
 420 813 420 813 434 868 c 0,6,7
 449 928 449 928 457 935 c 128,-1,8
 465 942 465 942 469 922.5 c 128,-1,9
 473 903 473 903 472 869.5 c 128,-1,10
 471 836 471 836 467 813 c 0,11,12
 457 756 457 756 434.5 686 c 128,-1,13
 412 616 412 616 377 557 c 128,-1,14
 342 498 342 498 291 458 c 128,-1,15
 240 418 240 418 172 420 c 0,16,17
 119 422 119 422 80 451 c 1,18,19
 51 471 51 471 27.5 499.5 c 128,-1,20
 4 528 4 528 -12 559 c 1,21,22
 -14 557 -14 557 -22.5 554 c 128,-1,23
 -31 551 -31 551 -78 547 c 1,24,25
 -70 561 -70 561 -70 584 c 0,26,27
 -70 610 -70 610 -68 621 c 1,28,29
 -63 692 -63 692 -62 759.5 c 128,-1,30
 -61 827 -61 827 -49 897 c 1,31,32
 -25 958 -25 958 3 1024 c 128,-1,33
 31 1090 31 1090 57 1147 c 1,34,35
 61 1163 61 1163 70.5 1167 c 128,-1,36
 80 1171 80 1171 80 1149 c 0,37,38
 80 1096 80 1096 76 1040.5 c 128,-1,39
 72 985 72 985 78 933 c 128,-1,40
 84 881 84 881 106.5 833.5 c 128,-1,41
 129 786 129 786 180 750 c 1,0,1
EndSplineSet
Position2: "Single Positioning lookup 131 subtable" dx=0 dy=0 dh=512 dv=0
Position2: "Single Positioning lookup 130 subtable" dx=0 dy=0 dh=368 dv=0
Position2: "Single Positioning lookup 123 subtable" dx=0 dy=0 dh=512 dv=0
Position2: "Single Positioning lookup 121 subtable" dx=0 dy=0 dh=737 dv=0
EndChar

StartChar: glyph111
Encoding: 65603 -1 108
Width: 567
GlyphClass: 2
Flags: W
AnchorPoint: "Anchor-191" 430 51 basechar 0
AnchorPoint: "Anchor-190" 409 -51 basechar 0
AnchorPoint: "Anchor-161" 276 -655 basechar 0
AnchorPoint: "Anchor-160" 256 -655 basechar 0
AnchorPoint: "Anchor-126" 399 0 basechar 0
AnchorPoint: "Anchor-125" 399 0 basechar 0
AnchorPoint: "Anchor-124" 296 0 basechar 0
AnchorPoint: "Anchor-69" 512 1495 basechar 0
AnchorPoint: "Anchor-68" 614 1433 basechar 0
AnchorPoint: "Anchor-67" 491 1351 basechar 0
AnchorPoint: "Anchor-66" 399 1331 basechar 0
AnchorPoint: "Anchor-65" 399 1075 basechar 0
AnchorPoint: "Anchor-36" 276 -92 basechar 0
AnchorPoint: "Anchor-35" 256 -61 basechar 0
AnchorPoint: "Anchor-29" 419 1024 basechar 0
AnchorPoint: "Cursive-20" 0 0 exit 0
AnchorPoint: "Cursive-19" 0 0 exit 0
LayerCount: 2
Fore
SplineSet
221 334 m 1,0,1
 186 336 186 336 154.5 355.5 c 128,-1,2
 123 375 123 375 86 375 c 0,3,4
 61 375 61 375 42 360.5 c 128,-1,5
 23 346 23 346 5.5 324.5 c 128,-1,6
 -12 303 -12 303 -27.5 275.5 c 128,-1,7
 -43 248 -43 248 -57 223 c 1,8,-1
 -55 365 l 1,9,10
 -35 387 -35 387 -21.5 401.5 c 128,-1,11
 -8 416 -8 416 8 438 c 0,12,13
 39 479 39 479 77 509 c 128,-1,14
 115 539 115 539 168 539 c 0,15,16
 195 539 195 539 218.5 525.5 c 128,-1,17
 242 512 242 512 268 512 c 0,18,19
 315 512 315 512 346 555 c 128,-1,20
 377 598 377 598 399 641 c 0,21,22
 406 655 406 655 415 659.5 c 128,-1,23
 424 664 424 664 420 637 c 1,24,25
 414 608 414 608 400.5 573.5 c 128,-1,26
 387 539 387 539 369.5 503 c 128,-1,27
 352 467 352 467 330.5 433 c 128,-1,28
 309 399 309 399 287 375 c 1,29,30
 250 330 250 330 221 334 c 1,0,1
EndSplineSet
Position2: "Single Positioning lookup 130 subtable" dx=0 dy=0 dh=307 dv=0
Position2: "Single Positioning lookup 127 subtable" dx=0 dy=0 dh=614 dv=0
EndChar

StartChar: glyph112
Encoding: 65604 -1 109
Width: 905
GlyphClass: 2
Flags: W
AnchorPoint: "Anchor-143" 911 1269 basechar 0
AnchorPoint: "Anchor-142" 911 1269 basechar 0
AnchorPoint: "Anchor-141" 727 1259 basechar 0
AnchorPoint: "Anchor-64" 860 2109 basechar 0
AnchorPoint: "Anchor-63" 880 2109 basechar 0
AnchorPoint: "Anchor-62" 737 2068 basechar 0
AnchorPoint: "Anchor-36" 921 1261 basechar 0
AnchorPoint: "Anchor-35" 778 1239 basechar 0
AnchorPoint: "Anchor-29" 655 2109 basechar 0
AnchorPoint: "Cursive-5" 0 0 exit 0
LayerCount: 2
Fore
SplineSet
215 1393 m 1,0,1
 233 1413 233 1413 279.5 1448 c 128,-1,2
 326 1483 326 1483 377 1519.5 c 128,-1,3
 428 1556 428 1556 474 1588 c 128,-1,4
 520 1620 520 1620 539 1634 c 1,5,6
 575 1657 575 1657 619.5 1685.5 c 128,-1,7
 664 1714 664 1714 708 1744 c 128,-1,8
 752 1774 752 1774 793 1802.5 c 128,-1,9
 834 1831 834 1831 862 1853 c 1,10,11
 872 1853 872 1853 866 1839 c 1,12,13
 809 1755 809 1755 749.5 1665 c 128,-1,14
 690 1575 690 1575 614 1516 c 1,15,16
 516 1450 516 1450 415.5 1383.5 c 128,-1,17
 315 1317 315 1317 211 1239 c 1,18,19
 141 1182 141 1182 75.5 1117.5 c 128,-1,20
 10 1053 10 1053 -35 965 c 0,21,22
 -41 954 -41 954 -51 940 c 128,-1,23
 -61 926 -61 926 -69.5 917.5 c 128,-1,24
 -78 909 -78 909 -82 913.5 c 128,-1,25
 -86 918 -86 918 -82 942 c 0,26,27
 -80 952 -80 952 -75 969.5 c 128,-1,28
 -70 987 -70 987 -63.5 1003.5 c 128,-1,29
 -57 1020 -57 1020 -51 1034.5 c 128,-1,30
 -45 1049 -45 1049 -41 1055 c 1,31,32
 0 1159 0 1159 64.5 1240 c 128,-1,33
 129 1321 129 1321 215 1393 c 1,0,1
EndSplineSet
Position2: "Single Positioning lookup 129 subtable" dx=0 dy=0 dh=450 dv=0
Position2: "Single Positioning lookup 127 subtable" dx=0 dy=0 dh=450 dv=0
Position2: "Single Positioning lookup 126 subtable" dx=0 dy=0 dh=737 dv=0
Position2: "Single Positioning lookup 123 subtable" dx=0 dy=0 dh=532 dv=0
Position2: "Single Positioning lookup 122 subtable" dx=0 dy=0 dh=921 dv=0
Position2: "Single Positioning lookup 121 subtable" dx=0 dy=0 dh=737 dv=0
Position2: "Single Positioning lookup 120 subtable" dx=0 dy=0 dh=1228 dv=0
Position2: "Single Positioning lookup 118 subtable" dx=0 dy=0 dh=368 dv=0
Position2: "Single Positioning lookup 117 subtable" dx=0 dy=0 dh=512 dv=0
EndChar

StartChar: uni0628.1
Encoding: 65605 -1 110
Width: 547
GlyphClass: 2
Flags: W
AnchorPoint: "Anchor-48" 256 1228 basechar 0
AnchorPoint: "Anchor-47" 307 1228 basechar 0
AnchorPoint: "Anchor-36" 30 -378 basechar 0
AnchorPoint: "Anchor-35" 61 -348 basechar 0
AnchorPoint: "Anchor-29" 235 1228 basechar 0
LayerCount: 2
Fore
SplineSet
399 834 m 1,0,1
 403 778 403 778 390 729 c 128,-1,2
 377 680 377 680 350 627 c 1,3,4
 328 580 328 580 300 532.5 c 128,-1,5
 272 485 272 485 236 451 c 1,6,7
 195 408 195 408 146.5 381 c 128,-1,8
 98 354 98 354 63 326 c 1,9,10
 41 307 41 307 34 294 c 128,-1,11
 27 281 27 281 14 262 c 0,12,13
 12 258 12 258 4 257 c 128,-1,14
 -4 256 -4 256 -10 256 c 0,15,16
 -18 256 -18 256 -24.5 257 c 128,-1,17
 -31 258 -31 258 -29 262 c 2,18,-1
 -27 266 l 2,19,20
 -27 268 -27 268 -23 279 c 1,21,22
 -10 330 -10 330 1 378 c 128,-1,23
 12 426 12 426 28.5 470 c 128,-1,24
 45 514 45 514 70.5 552 c 128,-1,25
 96 590 96 590 141 623 c 0,26,27
 180 651 180 651 222 670.5 c 128,-1,28
 264 690 264 690 305 719 c 0,29,30
 326 735 326 735 337 748.5 c 128,-1,31
 348 762 348 762 354 775 c 128,-1,32
 360 788 360 788 365.5 802.5 c 128,-1,33
 371 817 371 817 377 836 c 1,34,35
 381 844 381 844 388 847 c 128,-1,36
 395 850 395 850 399 834 c 1,0,1
EndSplineSet
EndChar

StartChar: glyph114
Encoding: 65606 -1 111
Width: 449
GlyphClass: 2
Flags: W
AnchorPoint: "Anchor-171" 409 716 basechar 0
AnchorPoint: "Anchor-170" 163 532 basechar 0
AnchorPoint: "Anchor-151" 0 -327 basechar 0
AnchorPoint: "Anchor-150" 0 -327 basechar 0
AnchorPoint: "Anchor-140" -71 -143 basechar 0
AnchorPoint: "Anchor-139" 0 -215 basechar 0
AnchorPoint: "Anchor-108" 286 614 basechar 0
AnchorPoint: "Anchor-107" 163 522 basechar 0
AnchorPoint: "Anchor-36" 81 409 basechar 0
AnchorPoint: "Anchor-35" 71 409 basechar 0
AnchorPoint: "Anchor-29" 327 2201 basechar 0
AnchorPoint: "Cursive-6" 0 0 exit 0
LayerCount: 2
Fore
SplineSet
12 1042 m 0,0,1
 59 1047 59 1047 89 1063 c 128,-1,2
 119 1079 119 1079 135.5 1103.5 c 128,-1,3
 152 1128 152 1128 158 1159 c 128,-1,4
 164 1190 164 1190 164 1223 c 0,5,6
 162 1300 162 1300 161 1378 c 128,-1,7
 160 1456 160 1456 164 1534 c 1,8,9
 168 1556 168 1556 176 1581 c 0,10,11
 178 1589 178 1589 191.5 1619 c 128,-1,12
 205 1649 205 1649 221.5 1687.5 c 128,-1,13
 238 1726 238 1726 253 1765 c 128,-1,14
 268 1804 268 1804 279 1831 c 0,15,16
 283 1841 283 1841 291 1849.5 c 128,-1,17
 299 1858 299 1858 301 1835 c 1,18,19
 299 1731 299 1731 302 1623.5 c 128,-1,20
 305 1516 305 1516 295 1411 c 1,21,22
 285 1319 285 1319 268.5 1253.5 c 128,-1,23
 252 1188 252 1188 223.5 1134.5 c 128,-1,24
 195 1081 195 1081 150.5 1034 c 128,-1,25
 106 987 106 987 43 936 c 1,26,27
 6 913 6 913 -30 895 c 128,-1,28
 -66 877 -66 877 -100 877 c 1,29,30
 -98 889 -98 889 -94 913.5 c 128,-1,31
 -90 938 -90 938 -83 965.5 c 128,-1,32
 -76 993 -76 993 -64.5 1020 c 128,-1,33
 -53 1047 -53 1047 -37 1063 c 1,34,35
 -29 1053 -29 1053 -18.5 1046.5 c 128,-1,36
 -8 1040 -8 1040 12 1042 c 0,0,1
EndSplineSet
Position2: "Single Positioning lookup 130 subtable" dx=0 dy=0 dh=491 dv=0
Position2: "Single Positioning lookup 128 subtable" dx=0 dy=0 dh=307 dv=0
Position2: "Single Positioning lookup 127 subtable" dx=0 dy=0 dh=389 dv=0
Position2: "Single Positioning lookup 122 subtable" dx=0 dy=0 dh=0 dv=0
Position2: "Single Positioning lookup 121 subtable" dx=0 dy=0 dh=696 dv=0
Position2: "Single Positioning lookup 120 subtable" dx=0 dy=0 dh=921 dv=0
EndChar

StartChar: glyph115
Encoding: 65607 -1 112
Width: 844
GlyphClass: 2
Flags: W
AnchorPoint: "Anchor-191" 256 -552 basechar 0
AnchorPoint: "Anchor-190" 512 409 basechar 0
AnchorPoint: "Anchor-169" 0 0 basechar 0
AnchorPoint: "Anchor-168" 348 61 basechar 0
AnchorPoint: "Anchor-167" 348 61 basechar 0
AnchorPoint: "Anchor-151" 348 -327 basechar 0
AnchorPoint: "Anchor-150" 348 -327 basechar 0
AnchorPoint: "Anchor-140" 71 -215 basechar 0
AnchorPoint: "Anchor-139" 143 -215 basechar 0
AnchorPoint: "Anchor-64" 952 2140 basechar 0
AnchorPoint: "Anchor-63" 952 2140 basechar 0
AnchorPoint: "Anchor-62" 819 2150 basechar 0
AnchorPoint: "Anchor-36" 256 296 basechar 0
AnchorPoint: "Anchor-35" 348 296 basechar 0
AnchorPoint: "Anchor-29" 665 2263 basechar 0
AnchorPoint: "Cursive-7" 0 0 exit 0
LayerCount: 2
Fore
SplineSet
-72 682 m 1,0,1
 -102 680 -102 680 -100 688 c 128,-1,2
 -98 696 -98 696 -92 707 c 0,3,4
 -86 719 -86 719 -78 728 c 128,-1,5
 -70 737 -70 737 -59 739 c 0,6,7
 20 758 20 758 118.5 794.5 c 128,-1,8
 217 831 217 831 309 886.5 c 128,-1,9
 401 942 401 942 476 1013.5 c 128,-1,10
 551 1085 551 1085 582 1176 c 1,11,12
 586 1241 586 1241 582 1299.5 c 128,-1,13
 578 1358 578 1358 578 1421 c 0,14,15
 578 1454 578 1454 579 1483.5 c 128,-1,16
 580 1513 580 1513 584 1542 c 1,17,18
 584 1602 584 1602 616.5 1678.5 c 128,-1,19
 649 1755 649 1755 680 1858 c 0,20,21
 684 1868 684 1868 687 1864 c 128,-1,22
 690 1860 690 1860 691 1850.5 c 128,-1,23
 692 1841 692 1841 693 1832 c 128,-1,24
 694 1823 694 1823 694 1821 c 0,25,26
 694 1786 694 1786 695 1746 c 128,-1,27
 696 1706 696 1706 697 1665 c 128,-1,28
 698 1624 698 1624 699 1584 c 128,-1,29
 700 1544 700 1544 700 1513 c 0,30,31
 700 1366 700 1366 661.5 1232 c 128,-1,32
 623 1098 623 1098 543 989.5 c 128,-1,33
 463 881 463 881 342 805 c 128,-1,34
 221 729 221 729 59 698 c 0,35,36
 33 694 33 694 -8 688 c 128,-1,37
 -49 682 -49 682 -72 682 c 1,0,1
EndSplineSet
Position2: "Single Positioning lookup 130 subtable" dx=0 dy=0 dh=327 dv=0
Position2: "Single Positioning lookup 122 subtable" dx=0 dy=0 dh=368 dv=0
Position2: "Single Positioning lookup 120 subtable" dx=0 dy=0 dh=512 dv=0
EndChar

StartChar: glyph116
Encoding: 65608 -1 113
Width: 645
GlyphClass: 2
Flags: W
AnchorPoint: "Anchor-92" 471 1464 basechar 0
AnchorPoint: "Anchor-91" 471 1464 basechar 0
AnchorPoint: "Anchor-36" 184 -327 basechar 0
AnchorPoint: "Anchor-35" 184 -337 basechar 0
AnchorPoint: "Anchor-29" 348 1484 basechar 0
LayerCount: 2
Fore
SplineSet
-612 -74 m 1,0,1
 -590 -63 -590 -63 -562.5 -40.5 c 128,-1,2
 -535 -18 -535 -18 -500 -8 c 0,3,4
 -389 27 -389 27 -275.5 59.5 c 128,-1,5
 -162 92 -162 92 -53.5 134 c 128,-1,6
 55 176 55 176 153.5 233.5 c 128,-1,7
 252 291 252 291 332 373 c 1,8,9
 338 401 338 401 345 422.5 c 128,-1,10
 352 444 352 444 357 468 c 128,-1,11
 362 492 362 492 366.5 519.5 c 128,-1,12
 371 547 371 547 371 588 c 0,13,14
 371 635 371 635 372 676 c 128,-1,15
 373 717 373 717 373 733 c 0,16,17
 373 768 373 768 376 802 c 128,-1,18
 379 836 379 836 393 866 c 1,19,20
 416 920 416 920 447.5 987.5 c 128,-1,21
 479 1055 479 1055 496 1102 c 1,22,23
 496 1090 496 1090 497 1058 c 128,-1,24
 498 1026 498 1026 499 990 c 128,-1,25
 500 954 500 954 501 921.5 c 128,-1,26
 502 889 502 889 502 877 c 2,27,-1
 502 793 l 2,28,29
 502 715 502 715 488.5 639 c 128,-1,30
 475 563 475 563 455 487 c 0,31,32
 430 391 430 391 371.5 321.5 c 128,-1,33
 313 252 313 252 236.5 199.5 c 128,-1,34
 160 147 160 147 72 109.5 c 128,-1,35
 -16 72 -16 72 -98 41 c 1,36,37
 -211 4 -211 4 -340 -33 c 128,-1,38
 -469 -70 -469 -70 -606 -92 c 0,39,40
 -614 -94 -614 -94 -618.5 -86 c 128,-1,41
 -623 -78 -623 -78 -612 -74 c 1,0,1
EndSplineSet
EndChar

StartChar: glyph117
Encoding: 65609 -1 114
Width: 627
GlyphClass: 2
Flags: W
AnchorPoint: "Anchor-151" 143 -737 basechar 0
AnchorPoint: "Anchor-150" 143 -737 basechar 0
AnchorPoint: "Anchor-36" 165 0 basechar 0
AnchorPoint: "Anchor-35" 337 225 basechar 0
AnchorPoint: "Anchor-29" 471 1935 basechar 0
AnchorPoint: "Cursive-8" 0 0 exit 0
LayerCount: 2
Fore
SplineSet
477 1583 m 1,0,1
 477 1571 477 1571 478 1539 c 128,-1,2
 479 1507 479 1507 480 1471.5 c 128,-1,3
 481 1436 481 1436 482 1403 c 128,-1,4
 483 1370 483 1370 483 1358 c 2,5,-1
 483 1274 l 2,6,7
 483 1196 483 1196 470 1120 c 128,-1,8
 457 1044 457 1044 436 969 c 1,9,10
 416 903 416 903 383 840 c 1,11,12
 268 645 268 645 93 510 c 128,-1,13
 -82 375 -82 375 -299 303 c 0,14,15
 -340 289 -340 289 -380 275.5 c 128,-1,16
 -420 262 -420 262 -461 252 c 1,17,-1
 -352 340 l 1,18,19
 -317 354 -317 354 -284.5 368.5 c 128,-1,20
 -252 383 -252 383 -219 399 c 0,21,22
 -150 432 -150 432 -62.5 491.5 c 128,-1,23
 25 551 25 551 104.5 620.5 c 128,-1,24
 184 690 184 690 245.5 760.5 c 128,-1,25
 307 831 307 831 324 887 c 0,26,27
 328 901 328 901 333 945 c 128,-1,28
 338 989 338 989 343 1040.5 c 128,-1,29
 348 1092 348 1092 351 1141 c 128,-1,30
 354 1190 354 1190 354 1214 c 0,31,32
 354 1249 354 1249 357 1283 c 128,-1,33
 360 1317 360 1317 375 1348 c 1,34,35
 397 1401 397 1401 429 1468.5 c 128,-1,36
 461 1536 461 1536 477 1583 c 1,0,1
EndSplineSet
Position2: "Single Positioning lookup 126 subtable" dx=0 dy=0 dh=614 dv=0
Position2: "Single Positioning lookup 125 subtable" dx=0 dy=0 dh=256 dv=0
Position2: "Single Positioning lookup 122 subtable" dx=0 dy=0 dh=655 dv=0
Position2: "Single Positioning lookup 121 subtable" dx=0 dy=0 dh=512 dv=0
Position2: "Single Positioning lookup 120 subtable" dx=0 dy=0 dh=1024 dv=0
EndChar

StartChar: glyph118
Encoding: 65610 -1 115
Width: 684
GlyphClass: 2
Flags: W
AnchorPoint: "Anchor-151" 266 -409 basechar 0
AnchorPoint: "Anchor-150" 266 -409 basechar 0
AnchorPoint: "Anchor-36" 329 350 basechar 0
AnchorPoint: "Anchor-35" 327 286 basechar 0
AnchorPoint: "Anchor-29" 501 2007 basechar 0
AnchorPoint: "Cursive-9" 0 0 exit 0
LayerCount: 2
Fore
SplineSet
125 672 m 1,0,1
 92 672 92 672 38 695.5 c 128,-1,2
 -16 719 -16 719 -57 772 c 1,3,4
 -55 778 -55 778 -48 790.5 c 128,-1,5
 -41 803 -41 803 -32 816 c 128,-1,6
 -23 829 -23 829 -13.5 841.5 c 128,-1,7
 -4 854 -4 854 0 858 c 1,8,9
 31 846 31 846 60.5 832.5 c 128,-1,10
 90 819 90 819 131 821 c 0,11,12
 168 823 168 823 206 839.5 c 128,-1,13
 244 856 244 856 278.5 880.5 c 128,-1,14
 313 905 313 905 341 938 c 128,-1,15
 369 971 369 971 383 1006 c 0,16,17
 385 1010 385 1010 389 1028.5 c 128,-1,18
 393 1047 393 1047 393 1051 c 0,19,20
 403 1143 403 1143 402 1232 c 128,-1,21
 401 1321 401 1321 406 1413 c 1,22,23
 428 1481 428 1481 461 1547.5 c 128,-1,24
 494 1614 494 1614 522 1692 c 0,25,26
 530 1712 530 1712 535.5 1711 c 128,-1,27
 541 1710 541 1710 541 1692 c 2,28,-1
 541 1632 l 2,29,30
 541 1608 541 1608 540 1578 c 128,-1,31
 539 1548 539 1548 539 1522 c 0,32,33
 539 1497 539 1497 538 1475.5 c 128,-1,34
 537 1454 537 1454 537 1446 c 0,35,36
 537 1436 537 1436 534.5 1405 c 128,-1,37
 532 1374 532 1374 529 1339.5 c 128,-1,38
 526 1305 526 1305 524 1272 c 128,-1,39
 522 1239 522 1239 522 1225 c 0,40,41
 518 1153 518 1153 485.5 1060 c 128,-1,42
 453 967 453 967 399.5 882 c 128,-1,43
 346 797 346 797 275.5 736.5 c 128,-1,44
 205 676 205 676 125 672 c 1,0,1
EndSplineSet
Position2: "Single Positioning lookup 128 subtable" dx=0 dy=0 dh=389 dv=0
Position2: "Single Positioning lookup 127 subtable" dx=0 dy=0 dh=471 dv=0
Position2: "Single Positioning lookup 122 subtable" dx=0 dy=0 dh=757 dv=0
Position2: "Single Positioning lookup 121 subtable" dx=0 dy=0 dh=614 dv=0
Position2: "Single Positioning lookup 120 subtable" dx=0 dy=0 dh=1126 dv=0
Position2: "Single Positioning lookup 119 subtable" dx=0 dy=0 dh=307 dv=0
EndChar

StartChar: glyph119
Encoding: 65611 -1 116
Width: 428
GlyphClass: 2
Flags: W
AnchorPoint: "Anchor-151" -10 -880 basechar 0
AnchorPoint: "Anchor-150" -10 -880 basechar 0
AnchorPoint: "Anchor-36" -22 -215 basechar 0
AnchorPoint: "Anchor-35" -10 -245 basechar 0
AnchorPoint: "Anchor-29" 225 1720 basechar 0
AnchorPoint: "Cursive-10" 0 0 exit 0
LayerCount: 2
Fore
SplineSet
115 367 m 1,0,1
 49 266 49 266 -39 202.5 c 128,-1,2
 -127 139 -127 139 -256 137 c 0,3,4
 -289 137 -289 137 -332 143 c 1,5,6
 -332 154 -332 154 -323.5 175.5 c 128,-1,7
 -315 197 -315 197 -304 219.5 c 128,-1,8
 -293 242 -293 242 -282.5 260.5 c 128,-1,9
 -272 279 -272 279 -268 283 c 1,10,11
 -207 274 -207 274 -142.5 283.5 c 128,-1,12
 -78 293 -78 293 -23.5 322.5 c 128,-1,13
 31 352 31 352 68.5 404.5 c 128,-1,14
 106 457 106 457 115 537 c 1,15,16
 119 625 119 625 125 711 c 128,-1,17
 131 797 131 797 135 885 c 0,18,19
 135 891 135 891 142.5 911.5 c 128,-1,20
 150 932 150 932 152 936 c 0,21,22
 180 995 180 995 212 1064 c 128,-1,23
 244 1133 244 1133 268 1192 c 1,24,25
 272 1196 272 1196 276.5 1199 c 128,-1,26
 281 1202 281 1202 285 1192 c 1,27,28
 285 1044 285 1044 275.5 897 c 128,-1,29
 266 750 266 750 233 602 c 1,30,31
 217 539 217 539 184.5 479.5 c 128,-1,32
 152 420 152 420 115 367 c 1,0,1
EndSplineSet
Position2: "Single Positioning lookup 127 subtable" dx=0 dy=0 dh=491 dv=0
Position2: "Single Positioning lookup 125 subtable" dx=0 dy=0 dh=409 dv=0
Position2: "Single Positioning lookup 124 subtable" dx=0 dy=0 dh=491 dv=0
Position2: "Single Positioning lookup 122 subtable" dx=0 dy=0 dh=921 dv=0
Position2: "Single Positioning lookup 121 subtable" dx=0 dy=0 dh=655 dv=0
Position2: "Single Positioning lookup 120 subtable" dx=0 dy=0 dh=1187 dv=0
Position2: "Single Positioning lookup 118 subtable" dx=0 dy=0 dh=204 dv=0
EndChar

StartChar: glyph120
Encoding: 65612 -1 117
Width: 279
GlyphClass: 2
Flags: W
AnchorPoint: "Anchor-138" -204 -983 basechar 0
AnchorPoint: "Anchor-137" -204 -983 basechar 0
AnchorPoint: "Anchor-36" -174 -350 basechar 0
AnchorPoint: "Anchor-35" 163 102 basechar 0
AnchorPoint: "Anchor-29" 61 1792 basechar 0
AnchorPoint: "Cursive-3" 0 0 exit 0
LayerCount: 2
Fore
SplineSet
-207 485 m 1,0,1
 -188 500 -188 500 -172 512 c 128,-1,2
 -156 524 -156 524 -138.5 539.5 c 128,-1,3
 -121 555 -121 555 -100.5 574.5 c 128,-1,4
 -80 594 -80 594 -53 623 c 1,5,6
 -31 649 -31 649 -19.5 683 c 128,-1,7
 -8 717 -8 717 -5 754 c 128,-1,8
 -2 791 -2 791 -2 825 c 0,9,10
 -2 862 -2 862 -2 893 c 0,11,12
 -2 903 -2 903 -2 930 c 0,13,14
 -2 958 -2 958 -2 987 c 0,15,16
 -2 1018 -2 1018 -3 1045.5 c 128,-1,17
 -4 1073 -4 1073 -4 1083 c 1,18,19
 -2 1098 -2 1098 0 1106 c 128,-1,20
 2 1114 2 1114 8 1130 c 0,21,22
 14 1145 14 1145 29.5 1181 c 128,-1,23
 45 1217 45 1217 62.5 1255.5 c 128,-1,24
 80 1294 80 1294 93 1329 c 128,-1,25
 106 1364 106 1364 111 1380 c 1,26,27
 117 1395 117 1395 123 1399 c 128,-1,28
 129 1403 129 1403 133 1380 c 1,29,30
 131 1292 131 1292 133 1203 c 128,-1,31
 135 1114 135 1114 130 1025 c 128,-1,32
 125 936 125 936 110.5 849 c 128,-1,33
 96 762 96 762 59 678 c 1,34,35
 53 668 53 668 39 642 c 128,-1,36
 25 616 25 616 8.5 586.5 c 128,-1,37
 -8 557 -8 557 -22.5 530.5 c 128,-1,38
 -37 504 -37 504 -43 494 c 0,39,40
 -45 489 -45 489 -51 480 c 128,-1,41
 -57 471 -57 471 -64.5 460 c 128,-1,42
 -72 449 -72 449 -79 437.5 c 128,-1,43
 -86 426 -86 426 -88 422 c 0,44,45
 -94 412 -94 412 -106.5 396.5 c 128,-1,46
 -119 381 -119 381 -135 362 c 1,47,-1
 -207 485 l 1,0,1
EndSplineSet
EndChar

StartChar: glyph121
Encoding: 65613 -1 118
Width: 707
GlyphClass: 2
Flags: W
AnchorPoint: "Anchor-146" 266 61 basechar 0
AnchorPoint: "Anchor-145" 481 890 basechar 0
AnchorPoint: "Anchor-36" 256 51 basechar 0
AnchorPoint: "Anchor-35" 481 890 basechar 0
AnchorPoint: "Anchor-29" 448 2004 basechar 0
LayerCount: 2
Fore
SplineSet
563 1559 m 2,0,1
 586 1581 586 1581 588 1574 c 128,-1,2
 590 1567 590 1567 580 1550 c 1,3,-1
 389 1274 l 1,4,5
 385 1270 385 1270 373.5 1255.5 c 128,-1,6
 362 1241 362 1241 354 1233 c 1,7,8
 342 1223 342 1223 314.5 1200.5 c 128,-1,9
 287 1178 287 1178 255 1152 c 128,-1,10
 223 1126 223 1126 194.5 1103.5 c 128,-1,11
 166 1081 166 1081 154 1073 c 1,12,13
 150 1069 150 1069 131.5 1053.5 c 128,-1,14
 113 1038 113 1038 109 1032 c 1,15,16
 104 1030 104 1030 90 1017 c 128,-1,17
 76 1004 76 1004 57.5 985.5 c 128,-1,18
 39 967 39 967 21.5 948.5 c 128,-1,19
 4 930 4 930 -4 920 c 0,20,21
 -12 911 -12 911 -21.5 900 c 128,-1,22
 -31 889 -31 889 -45 868 c 0,23,24
 -68 834 -68 834 -73 848 c 128,-1,25
 -78 862 -78 862 -61 895 c 0,26,27
 -20 971 -20 971 27 1056 c 128,-1,28
 74 1141 74 1141 143 1202 c 0,29,30
 242 1288 242 1288 335 1366 c 128,-1,31
 428 1444 428 1444 522 1520 c 1,32,-1
 563 1559 l 2,0,1
EndSplineSet
Substitution2: "Single Substitution lookup 191 subtable" glyph133
EndChar

StartChar: uni0628.2
Encoding: 65614 -1 119
Width: 455
GlyphClass: 2
Flags: W
AnchorPoint: "Anchor-36" 301 -225 basechar 0
AnchorPoint: "Anchor-35" 286 -307 basechar 0
AnchorPoint: "Anchor-29" 163 1617 basechar 0
LayerCount: 2
Fore
SplineSet
-51 786 m 1,0,1
 -51 797 -51 797 -52 805 c 128,-1,2
 -53 813 -53 813 -53 823 c 0,3,4
 -53 825 -53 825 -54 835.5 c 128,-1,5
 -55 846 -55 846 -55 856 c 256,6,7
 -55 866 -55 866 -56 876.5 c 128,-1,8
 -57 887 -57 887 -57 889 c 0,9,10
 -57 895 -57 895 -56 917.5 c 128,-1,11
 -55 940 -55 940 -51 964.5 c 128,-1,12
 -47 989 -47 989 -40 1008.5 c 128,-1,13
 -33 1028 -33 1028 -18 1028 c 0,14,15
 -10 1028 -10 1028 -5 1022 c 128,-1,16
 0 1016 0 1016 6 1008 c 0,17,18
 20 991 20 991 33.5 986 c 128,-1,19
 47 981 47 981 78 981 c 0,20,21
 125 981 125 981 162 999.5 c 128,-1,22
 199 1018 199 1018 226.5 1048.5 c 128,-1,23
 254 1079 254 1079 272.5 1119 c 128,-1,24
 291 1159 291 1159 303 1202 c 0,25,26
 305 1208 305 1208 310 1211 c 128,-1,27
 315 1214 315 1214 319 1202 c 1,28,-1
 319 1184 l 1,29,30
 317 1133 317 1133 300 1074.5 c 128,-1,31
 283 1016 283 1016 251 961.5 c 128,-1,32
 219 907 219 907 172 862 c 128,-1,33
 125 817 125 817 63 793 c 1,34,-1
 63 786 l 1,35,-1
 -51 786 l 1,0,1
EndSplineSet
EndChar

StartChar: uni0628.3
Encoding: 65615 -1 120
Width: 752
GlyphClass: 2
Flags: W
AnchorPoint: "Anchor-36" 133 -501 basechar 0
AnchorPoint: "Anchor-35" 122 -614 basechar 0
AnchorPoint: "Anchor-29" 149 690 basechar 0
LayerCount: 2
Fore
SplineSet
23 225 m 1,0,1
 25 225 25 225 27 226 c 128,-1,2
 29 227 29 227 31 227 c 0,3,4
 63 240 63 240 96 244 c 1,5,6
 129 246 129 246 146.5 236.5 c 128,-1,7
 164 227 164 227 193 211 c 0,8,9
 227 193 227 193 253 184.5 c 128,-1,10
 279 176 279 176 317 176 c 0,11,12
 397 176 397 176 459.5 227.5 c 128,-1,13
 522 279 522 279 565 340 c 1,14,15
 590 381 590 381 599 387 c 128,-1,16
 608 393 608 393 607 380 c 128,-1,17
 606 367 606 367 599 341 c 128,-1,18
 592 315 592 315 586 293 c 0,19,20
 567 229 567 229 534.5 161.5 c 128,-1,21
 502 94 502 94 455 39 c 128,-1,22
 408 -16 408 -16 346.5 -51 c 128,-1,23
 285 -86 285 -86 209 -86 c 0,24,25
 178 -86 178 -86 151.5 -76 c 128,-1,26
 125 -66 125 -66 98.5 -54.5 c 128,-1,27
 72 -43 72 -43 46 -33 c 128,-1,28
 20 -23 20 -23 -10 -23 c 2,29,-1
 -27 -23 l 1,30,-1
 -29 -25 l 1,31,32
 -41 -25 -41 -25 -54.5 -27 c 128,-1,33
 -68 -29 -68 -29 -82 -33 c 1,34,-1
 23 225 l 1,0,1
EndSplineSet
EndChar

StartChar: glyph124
Encoding: 65616 -1 121
Width: 688
GlyphClass: 2
Flags: W
AnchorPoint: "Anchor-191" 430 -40 basechar 0
AnchorPoint: "Anchor-190" 286 -163 basechar 0
AnchorPoint: "Anchor-185" 40 -778 basechar 0
AnchorPoint: "Anchor-184" 40 -778 basechar 0
AnchorPoint: "Anchor-175" 40 -983 basechar 0
AnchorPoint: "Anchor-174" 419 20 basechar 0
AnchorPoint: "Anchor-151" 40 -778 basechar 0
AnchorPoint: "Anchor-150" 40 -778 basechar 0
AnchorPoint: "Anchor-101" 38 -491 basechar 0
AnchorPoint: "Anchor-100" 368 61 basechar 0
AnchorPoint: "Anchor-36" 327 -268 basechar 0
AnchorPoint: "Anchor-35" 389 0 basechar 0
AnchorPoint: "Anchor-29" 194 1218 basechar 0
AnchorPoint: "Cursive-12" 0 0 exit 0
LayerCount: 2
Fore
SplineSet
369 571 m 1,0,1
 311 561 311 561 256 530.5 c 128,-1,2
 201 500 201 500 155 456 c 128,-1,3
 109 412 109 412 76 356.5 c 128,-1,4
 43 301 43 301 33 244 c 1,5,6
 31 240 31 240 27 221.5 c 128,-1,7
 23 203 23 203 17.5 178.5 c 128,-1,8
 12 154 12 154 7 128 c 128,-1,9
 2 102 2 102 0 84 c 0,10,11
 -2 72 -2 72 -7 56.5 c 128,-1,12
 -12 41 -12 41 -17.5 33 c 128,-1,13
 -23 25 -23 25 -27 28 c 128,-1,14
 -31 31 -31 31 -31 57 c 0,15,16
 -31 137 -31 137 -17.5 230.5 c 128,-1,17
 -4 324 -4 324 29 412 c 0,18,19
 57 487 57 487 99 563 c 128,-1,20
 141 639 141 639 196.5 700.5 c 128,-1,21
 252 762 252 762 321.5 805 c 128,-1,22
 391 848 391 848 477 860 c 1,23,24
 489 860 489 860 492 862 c 1,25,26
 506 866 506 866 524.5 865 c 128,-1,27
 543 864 543 864 543 856 c 0,28,29
 541 838 541 838 530.5 807 c 128,-1,30
 520 776 520 776 496.5 719 c 128,-1,31
 473 662 473 662 428 567 c 1,32,33
 412 569 412 569 404.5 570 c 128,-1,34
 397 571 397 571 369 571 c 1,0,1
EndSplineSet
Position2: "Single Positioning lookup 130 subtable" dx=0 dy=0 dh=389 dv=0
Position2: "Single Positioning lookup 127 subtable" dx=0 dy=0 dh=368 dv=0
Position2: "Single Positioning lookup 122 subtable" dx=0 dy=0 dh=737 dv=0
Position2: "Single Positioning lookup 121 subtable" dx=0 dy=0 dh=409 dv=0
Position2: "Single Positioning lookup 120 subtable" dx=0 dy=0 dh=921 dv=0
EndChar

StartChar: glyph125
Encoding: 65617 -1 122
Width: 774
GlyphClass: 2
Flags: W
AnchorPoint: "Anchor-189" 532 -102 basechar 0
AnchorPoint: "Anchor-185" 0 -880 basechar 0
AnchorPoint: "Anchor-184" 460 0 basechar 0
AnchorPoint: "Anchor-177" 563 -102 basechar 0
AnchorPoint: "Anchor-176" 460 0 basechar 0
AnchorPoint: "Anchor-151" 0 -1167 basechar 0
AnchorPoint: "Anchor-150" 0 -1167 basechar 0
AnchorPoint: "Anchor-36" 204 -399 basechar 0
AnchorPoint: "Anchor-35" 307 -307 basechar 0
AnchorPoint: "Anchor-29" 286 1249 basechar 0
AnchorPoint: "Cursive-13" 0 0 exit 0
LayerCount: 2
Fore
SplineSet
-49 291 m 1,0,1
 -41 313 -41 313 -32 334.5 c 128,-1,2
 -23 356 -23 356 -16 369 c 0,3,4
 25 459 25 459 78 548 c 128,-1,5
 131 637 131 637 205 707.5 c 128,-1,6
 279 778 279 778 376 820 c 128,-1,7
 473 862 473 862 600 856 c 1,8,9
 604 854 604 854 616 854 c 0,10,11
 631 854 631 854 631 850 c 256,12,13
 631 846 631 846 620.5 828.5 c 128,-1,14
 610 811 610 811 608 809 c 0,15,16
 571 748 571 748 535.5 691.5 c 128,-1,17
 500 635 500 635 465 573 c 1,18,19
 465 567 465 567 459 567 c 1,20,21
 444 571 444 571 430 575.5 c 128,-1,22
 416 580 416 580 399 580 c 0,23,24
 330 578 330 578 259 546 c 128,-1,25
 188 514 188 514 127 465 c 1,26,27
 80 424 80 424 48 381 c 128,-1,28
 16 338 16 338 -27 276 c 1,29,30
 -45 248 -45 248 -55.5 249 c 128,-1,31
 -66 250 -66 250 -49 291 c 1,0,1
EndSplineSet
Position2: "Single Positioning lookup 130 subtable" dx=0 dy=0 dh=266 dv=0
Position2: "Single Positioning lookup 128 subtable" dx=0 dy=0 dh=143 dv=0
Position2: "Single Positioning lookup 127 subtable" dx=0 dy=0 dh=327 dv=0
Position2: "Single Positioning lookup 122 subtable" dx=0 dy=0 dh=552 dv=0
Position2: "Single Positioning lookup 121 subtable" dx=0 dy=0 dh=368 dv=0
Position2: "Single Positioning lookup 120 subtable" dx=0 dy=0 dh=716 dv=0
EndChar

StartChar: glyph126
Encoding: 65618 -1 123
Width: 426
GlyphClass: 2
Flags: W
AnchorPoint: "Anchor-36" -102 -870 basechar 0
AnchorPoint: "Anchor-35" -40 -862 basechar 0
AnchorPoint: "Anchor-29" -71 2088 basechar 0
LayerCount: 2
Fore
SplineSet
147 1067 m 0,0,1
 113 952 113 952 66.5 852 c 128,-1,2
 20 752 20 752 -37 643 c 0,3,4
 -66 588 -66 588 -84 596 c 128,-1,5
 -102 604 -102 604 -82 657 c 1,6,7
 -41 758 -41 758 -12.5 821.5 c 128,-1,8
 16 885 16 885 33.5 934 c 128,-1,9
 51 983 51 983 59.5 1029 c 128,-1,10
 68 1075 68 1075 68 1141 c 0,11,12
 68 1239 68 1239 8.5 1312.5 c 128,-1,13
 -51 1386 -51 1386 -131 1434 c 1,14,15
 -104 1505 -104 1505 -78.5 1572.5 c 128,-1,16
 -53 1640 -53 1640 -31 1712 c 1,17,18
 18 1688 18 1688 60 1647 c 128,-1,19
 102 1606 102 1606 133 1555.5 c 128,-1,20
 164 1505 164 1505 181.5 1448 c 128,-1,21
 199 1391 199 1391 199 1329 c 0,22,23
 199 1260 199 1260 183.5 1197.5 c 128,-1,24
 168 1135 168 1135 147 1067 c 0,0,1
EndSplineSet
EndChar

StartChar: glyph127
Encoding: 65619 -1 124
Width: 0
GlyphClass: 2
Flags: W
AnchorPoint: "Anchor-36" -1546 -491 basechar 0
AnchorPoint: "Anchor-35" -1546 -491 basechar 0
AnchorPoint: "Anchor-29" -1720 1775 basechar 0
LayerCount: 2
Fore
SplineSet
-1884 604 m 1,0,1
 -1851 618 -1851 618 -1827.5 642 c 128,-1,2
 -1804 666 -1804 666 -1796 700 c 1,3,4
 -1788 799 -1788 799 -1794 904.5 c 128,-1,5
 -1800 1010 -1800 1010 -1788 1108 c 1,6,7
 -1772 1165 -1772 1165 -1745 1223.5 c 128,-1,8
 -1718 1282 -1718 1282 -1690 1372 c 0,9,10
 -1686 1384 -1686 1384 -1679.5 1390.5 c 128,-1,11
 -1673 1397 -1673 1397 -1669 1382 c 1,12,13
 -1667 1327 -1667 1327 -1665 1252.5 c 128,-1,14
 -1663 1178 -1663 1178 -1663 1126 c 0,15,16
 -1663 1028 -1663 1028 -1670 924.5 c 128,-1,17
 -1677 821 -1677 821 -1709 728 c 128,-1,18
 -1741 635 -1741 635 -1804.5 559 c 128,-1,19
 -1868 483 -1868 483 -1980 440 c 1,20,21
 -1995 436 -1995 436 -2029.5 426 c 128,-1,22
 -2064 416 -2064 416 -2103 405.5 c 128,-1,23
 -2142 395 -2142 395 -2177 386 c 128,-1,24
 -2212 377 -2212 377 -2226 373 c 0,25,26
 -2296 356 -2296 356 -2329 326 c 0,27,28
 -2355 303 -2355 303 -2372.5 289.5 c 128,-1,29
 -2390 276 -2390 276 -2406 254 c 1,30,31
 -2417 250 -2417 250 -2439.5 230.5 c 128,-1,32
 -2462 211 -2462 211 -2478 209 c 1,33,34
 -2417 311 -2417 311 -2332 396 c 128,-1,35
 -2247 481 -2247 481 -2130 522 c 1,36,-1
 -1884 604 l 1,0,1
EndSplineSet
EndChar

StartChar: glyph128
Encoding: 65620 -1 125
Width: 424
GlyphClass: 2
Flags: W
AnchorPoint: "Anchor-191" 348 788 basechar 0
AnchorPoint: "Anchor-190" 81 665 basechar 0
AnchorPoint: "Anchor-183" 634 -92 basechar 0
AnchorPoint: "Anchor-182" 532 -92 basechar 0
AnchorPoint: "Anchor-173" 481 778 basechar 0
AnchorPoint: "Anchor-172" 276 737 basechar 0
AnchorPoint: "Anchor-151" 204 -92 basechar 0
AnchorPoint: "Anchor-150" 204 -92 basechar 0
AnchorPoint: "Anchor-143" 532 972 basechar 0
AnchorPoint: "Anchor-142" 532 972 basechar 0
AnchorPoint: "Anchor-141" 399 911 basechar 0
AnchorPoint: "Anchor-113" 368 819 basechar 0
AnchorPoint: "Anchor-112" 307 757 basechar 0
AnchorPoint: "Anchor-108" 409 819 basechar 0
AnchorPoint: "Anchor-107" 368 880 basechar 0
AnchorPoint: "Anchor-71" 409 1843 basechar 0
AnchorPoint: "Anchor-70" 286 1792 basechar 0
AnchorPoint: "Anchor-46" 512 1894 basechar 0
AnchorPoint: "Anchor-45" 368 1843 basechar 0
AnchorPoint: "Anchor-44" 307 2048 basechar 0
AnchorPoint: "Anchor-43" 276 1792 basechar 0
AnchorPoint: "Anchor-36" 204 675 basechar 0
AnchorPoint: "Anchor-35" 184 686 basechar 0
AnchorPoint: "Anchor-29" 296 1699 basechar 0
AnchorPoint: "Cursive-16" 0 0 exit 0
LayerCount: 2
Fore
SplineSet
0 1264 m 1,0,1
 25 1262 25 1262 40 1255.5 c 128,-1,2
 55 1249 55 1249 68.5 1242 c 128,-1,3
 82 1235 82 1235 94 1229 c 128,-1,4
 106 1223 106 1223 123 1223 c 0,5,6
 150 1223 150 1223 170 1238 c 128,-1,7
 190 1253 190 1253 205.5 1273.5 c 128,-1,8
 221 1294 221 1294 234.5 1314.5 c 128,-1,9
 248 1335 248 1335 258 1348 c 0,10,11
 272 1368 272 1368 276.5 1366 c 128,-1,12
 281 1364 281 1364 277.5 1348.5 c 128,-1,13
 274 1333 274 1333 267 1310.5 c 128,-1,14
 260 1288 260 1288 252 1270 c 0,15,16
 242 1247 242 1247 220.5 1209 c 128,-1,17
 199 1171 199 1171 171 1135.5 c 128,-1,18
 143 1100 143 1100 111.5 1073.5 c 128,-1,19
 80 1047 80 1047 53 1047 c 0,20,21
 37 1047 37 1047 25.5 1053 c 128,-1,22
 14 1059 14 1059 0 1067 c 1,23,-1
 0 1264 l 1,0,1
EndSplineSet
Position2: "Single Positioning lookup 131 subtable" dx=0 dy=0 dh=491 dv=0
Position2: "Single Positioning lookup 130 subtable" dx=0 dy=0 dh=307 dv=0
Position2: "Single Positioning lookup 129 subtable" dx=0 dy=0 dh=532 dv=0
Position2: "Single Positioning lookup 128 subtable" dx=0 dy=0 dh=614 dv=0
Position2: "Single Positioning lookup 126 subtable" dx=0 dy=0 dh=819 dv=0
Position2: "Single Positioning lookup 122 subtable" dx=0 dy=0 dh=1167 dv=0
Position2: "Single Positioning lookup 120 subtable" dx=0 dy=0 dh=1228 dv=0
Position2: "Single Positioning lookup 118 subtable" dx=0 dy=0 dh=471 dv=0
EndChar

StartChar: glyph129
Encoding: 65621 -1 126
Width: 436
GlyphClass: 2
Flags: W
AnchorPoint: "Anchor-52" 307 1351 basechar 0
AnchorPoint: "Anchor-51" 409 1515 basechar 0
AnchorPoint: "Anchor-50" 307 1351 basechar 0
AnchorPoint: "Anchor-49" 307 1515 basechar 0
AnchorPoint: "Anchor-36" 112 -227 basechar 0
AnchorPoint: "Anchor-35" 20 -286 basechar 0
AnchorPoint: "Anchor-29" 276 1054 basechar 0
LayerCount: 2
Fore
SplineSet
86 496 m 0,0,1
 129 496 129 496 164 523.5 c 128,-1,2
 199 551 199 551 224.5 582.5 c 128,-1,3
 250 614 250 614 265.5 642 c 128,-1,4
 281 670 281 670 285 670 c 0,5,6
 293 670 293 670 293 664 c 0,7,8
 293 657 293 657 293 653 c 0,9,10
 293 610 293 610 263 534.5 c 128,-1,11
 233 459 233 459 187 384 c 128,-1,12
 141 309 141 309 86 254 c 128,-1,13
 31 199 31 199 -20 199 c 0,14,15
 -59 199 -59 199 -77.5 248 c 128,-1,16
 -96 297 -96 297 -97 355.5 c 128,-1,17
 -98 414 -98 414 -86 463 c 128,-1,18
 -74 512 -74 512 -49 512 c 0,19,20
 -14 512 -14 512 18.5 504 c 128,-1,21
 51 496 51 496 86 496 c 0,0,1
EndSplineSet
EndChar

StartChar: glyph130
Encoding: 65622 -1 127
Width: 565
GlyphClass: 2
Flags: W
AnchorPoint: "Anchor-36" 245 245 basechar 0
AnchorPoint: "Anchor-35" 204 174 basechar 0
AnchorPoint: "Anchor-29" 440 1556 basechar 0
LayerCount: 2
Fore
SplineSet
-102 995 m 0,0,1
 -98 1010 -98 1010 -86 1044.5 c 128,-1,2
 -74 1079 -74 1079 -59.5 1118 c 128,-1,3
 -45 1157 -45 1157 -32.5 1192 c 128,-1,4
 -20 1227 -20 1227 -16 1241 c 0,5,6
 -14 1247 -14 1247 -7 1263.5 c 128,-1,7
 0 1280 0 1280 8 1298.5 c 128,-1,8
 16 1317 16 1317 23.5 1332.5 c 128,-1,9
 31 1348 31 1348 35 1354 c 1,10,11
 39 1358 39 1358 43 1358 c 0,12,13
 53 1358 53 1358 52 1347.5 c 128,-1,14
 51 1337 51 1337 51 1333 c 0,15,16
 41 1276 41 1276 30.5 1222.5 c 128,-1,17
 20 1169 20 1169 20 1112 c 0,18,19
 20 1067 20 1067 33.5 1020 c 128,-1,20
 47 973 47 973 72.5 934 c 128,-1,21
 98 895 98 895 137 868.5 c 128,-1,22
 176 842 176 842 225 838 c 1,23,24
 262 838 262 838 288.5 851 c 128,-1,25
 315 864 315 864 333.5 884.5 c 128,-1,26
 352 905 352 905 364.5 931.5 c 128,-1,27
 377 958 377 958 383 983 c 0,28,29
 397 1042 397 1042 405.5 1049.5 c 128,-1,30
 414 1057 414 1057 418 1037.5 c 128,-1,31
 422 1018 422 1018 421 984 c 128,-1,32
 420 950 420 950 416 928 c 0,33,34
 403 864 403 864 379.5 794.5 c 128,-1,35
 356 725 356 725 320.5 667.5 c 128,-1,36
 285 610 285 610 235.5 572.5 c 128,-1,37
 186 535 186 535 123 535 c 0,38,39
 63 535 63 535 18 564.5 c 128,-1,40
 -27 594 -27 594 -57.5 640 c 128,-1,41
 -88 686 -88 686 -103.5 740.5 c 128,-1,42
 -119 795 -119 795 -119 846 c 0,43,44
 -119 883 -119 883 -116 920.5 c 128,-1,45
 -113 958 -113 958 -102 995 c 0,0,1
EndSplineSet
EndChar

StartChar: glyph132
Encoding: 65624 -1 129
Width: 618
GlyphClass: 2
Flags: W
AnchorPoint: "Anchor-36" 133 -399 basechar 0
AnchorPoint: "Anchor-35" 522 133 basechar 0
AnchorPoint: "Anchor-29" 491 1280 basechar 0
AnchorPoint: "Cursive-14" 0 0 exit 0
LayerCount: 2
Fore
SplineSet
201 700 m 0,0,1
 248 731 248 731 298 758.5 c 128,-1,2
 348 786 348 786 395 821 c 0,3,4
 459 870 459 870 465 874.5 c 128,-1,5
 471 879 471 879 440 821 c 1,6,7
 408 774 408 774 372 730 c 128,-1,8
 336 686 336 686 293 647 c 1,9,10
 272 631 272 631 244.5 609.5 c 128,-1,11
 217 588 217 588 186.5 566.5 c 128,-1,12
 156 545 156 545 126 523.5 c 128,-1,13
 96 502 96 502 72 483 c 1,14,15
 55 471 55 471 32.5 451.5 c 128,-1,16
 10 432 10 432 12 406 c 1,17,18
 -10 401 -10 401 -21.5 398 c 128,-1,19
 -33 395 -33 395 -43 391 c 1,20,21
 -10 485 -10 485 49.5 563 c 128,-1,22
 109 641 109 641 201 700 c 0,0,1
EndSplineSet
Position2: "Single Positioning lookup 127 subtable" dx=0 dy=0 dh=696 dv=0
EndChar

StartChar: glyph133
Encoding: 65625 -1 130
Width: 350
GlyphClass: 2
Flags: W
AnchorPoint: "Anchor-151" -61 -368 basechar 0
AnchorPoint: "Anchor-150" -61 -368 basechar 0
AnchorPoint: "Anchor-36" 0 184 basechar 0
AnchorPoint: "Anchor-35" -61 61 basechar 0
AnchorPoint: "Anchor-29" 112 2048 basechar 0
AnchorPoint: "Cursive-11" -112 256 exit 0
LayerCount: 2
Fore
SplineSet
-160 1112 m 1,0,1
 -160 1178 -160 1178 -138.5 1239 c 128,-1,2
 -117 1300 -117 1300 -82 1355.5 c 128,-1,3
 -47 1411 -47 1411 -4 1461 c 128,-1,4
 39 1511 39 1511 82 1554 c 0,5,6
 98 1571 98 1571 104.5 1566 c 128,-1,7
 111 1561 111 1561 96 1540 c 0,8,9
 55 1485 55 1485 17.5 1417.5 c 128,-1,10
 -20 1350 -20 1350 -25 1274 c 1,11,12
 -25 1237 -25 1237 -14.5 1201 c 128,-1,13
 -4 1165 -4 1165 9.5 1131.5 c 128,-1,14
 23 1098 23 1098 33 1065 c 128,-1,15
 43 1032 43 1032 41 1001 c 1,16,-1
 41 973 l 1,17,18
 35 963 35 963 21.5 942.5 c 128,-1,19
 8 922 8 922 -9.5 898 c 128,-1,20
 -27 874 -27 874 -46.5 855 c 128,-1,21
 -66 836 -66 836 -82 829 c 1,22,23
 -98 862 -98 862 -111.5 893 c 128,-1,24
 -125 924 -125 924 -135 956.5 c 128,-1,25
 -145 989 -145 989 -151.5 1026 c 128,-1,26
 -158 1063 -158 1063 -160 1112 c 1,0,1
EndSplineSet
Position2: "Single Positioning lookup 130 subtable" dx=0 dy=0 dh=163 dv=0
Position2: "Single Positioning lookup 127 subtable" dx=0 dy=0 dh=532 dv=0
Position2: "Single Positioning lookup 125 subtable" dx=0 dy=0 dh=563 dv=0
Position2: "Single Positioning lookup 122 subtable" dx=0 dy=0 dh=1126 dv=0
Position2: "Single Positioning lookup 121 subtable" dx=0 dy=0 dh=614 dv=0
Position2: "Single Positioning lookup 120 subtable" dx=0 dy=0 dh=1228 dv=0
Position2: "Single Positioning lookup 118 subtable" dx=0 dy=0 dh=409 dv=0
EndChar

StartChar: glyph134
Encoding: 65626 -1 131
Width: 682
GlyphClass: 2
Flags: W
AnchorPoint: "Anchor-166" 327 -512 basechar 0
AnchorPoint: "Anchor-165" 245 389 basechar 0
AnchorPoint: "Anchor-36" 296 368 basechar 0
AnchorPoint: "Anchor-35" 327 368 basechar 0
AnchorPoint: "Anchor-29" 512 1372 basechar 0
AnchorPoint: "Cursive-15" 0 0 exit 0
LayerCount: 2
Fore
SplineSet
-25 1073 m 1,0,1
 -8 1065 -8 1065 22.5 1042.5 c 128,-1,2
 53 1020 53 1020 85 994.5 c 128,-1,3
 117 969 117 969 147.5 944.5 c 128,-1,4
 178 920 178 920 195 907 c 1,5,6
 221 891 221 891 248.5 892 c 128,-1,7
 276 893 276 893 303 904 c 128,-1,8
 330 915 330 915 354.5 931.5 c 128,-1,9
 379 948 379 948 399 965 c 1,10,11
 403 967 403 967 420.5 980 c 128,-1,12
 438 993 438 993 456.5 1007.5 c 128,-1,13
 475 1022 475 1022 491.5 1034.5 c 128,-1,14
 508 1047 508 1047 512 1051 c 0,15,16
 535 1067 535 1067 537 1060 c 128,-1,17
 539 1053 539 1053 526 1028 c 0,18,19
 506 991 506 991 482.5 961.5 c 128,-1,20
 459 932 459 932 430 897 c 0,21,22
 412 874 412 874 387 846.5 c 128,-1,23
 362 819 362 819 334.5 794.5 c 128,-1,24
 307 770 307 770 275.5 753.5 c 128,-1,25
 244 737 244 737 211 737 c 0,26,27
 174 737 174 737 147.5 754.5 c 128,-1,28
 121 772 121 772 92 795 c 0,29,30
 88 797 88 797 73.5 809 c 128,-1,31
 59 821 59 821 43 835.5 c 128,-1,32
 27 850 27 850 10.5 864.5 c 128,-1,33
 -6 879 -6 879 -14 887 c 1,34,35
 -18 889 -18 889 -25 897 c 1,36,-1
 -25 1073 l 1,0,1
EndSplineSet
Position2: "Single Positioning lookup 130 subtable" dx=0 dy=0 dh=348 dv=0
Position2: "Single Positioning lookup 129 subtable" dx=0 dy=0 dh=368 dv=0
Position2: "Single Positioning lookup 122 subtable" dx=0 dy=0 dh=819 dv=0
Position2: "Single Positioning lookup 121 subtable" dx=0 dy=0 dh=675 dv=0
EndChar

StartChar: glyph135
Encoding: 65627 -1 132
Width: 862
GlyphClass: 2
Flags: W
AnchorPoint: "Anchor-185" 276 -1024 basechar 0
AnchorPoint: "Anchor-184" 276 -993 basechar 0
AnchorPoint: "Anchor-154" 0 0 basechar 0
AnchorPoint: "Anchor-153" 276 -1105 basechar 0
AnchorPoint: "Anchor-152" 706 -184 basechar 0
AnchorPoint: "Anchor-151" 276 -819 basechar 0
AnchorPoint: "Anchor-150" 276 -819 basechar 0
AnchorPoint: "Anchor-148" 266 -890 basechar 0
AnchorPoint: "Anchor-147" 266 -819 basechar 0
AnchorPoint: "Anchor-136" 532 -460 basechar 0
AnchorPoint: "Anchor-135" 409 -460 basechar 0
AnchorPoint: "Anchor-134" 368 -952 basechar 0
AnchorPoint: "Anchor-133" 256 -952 basechar 0
AnchorPoint: "Anchor-42" 0 0 basechar 0
AnchorPoint: "Anchor-41" 460 1054 basechar 0
AnchorPoint: "Anchor-36" 286 -389 basechar 0
AnchorPoint: "Anchor-35" 276 -389 basechar 0
AnchorPoint: "Anchor-30" 471 1024 basechar 0
AnchorPoint: "Cursive-2" 0 0 exit 0
AnchorPoint: "Cursive-1" 0 0 exit 0
LayerCount: 2
Fore
SplineSet
471 504 m 1,0,1
 418 504 418 504 386 473 c 128,-1,2
 354 442 354 442 334 395 c 1,3,4
 326 373 326 373 314.5 346 c 128,-1,5
 303 319 303 319 289 266 c 1,6,7
 348 266 348 266 415.5 295 c 128,-1,8
 483 324 483 324 528 360 c 0,9,10
 539 369 539 369 555 383 c 128,-1,11
 571 397 571 397 585.5 412.5 c 128,-1,12
 600 428 600 428 610.5 439.5 c 128,-1,13
 621 451 621 451 621 453 c 2,14,-1
 621 457 l 1,15,16
 584 473 584 473 546 487.5 c 128,-1,17
 508 502 508 502 471 504 c 1,0,1
668 446 m 1,18,19
 633 379 633 379 589 296 c 128,-1,20
 545 213 545 213 487.5 139.5 c 128,-1,21
 430 66 430 66 357.5 15.5 c 128,-1,22
 285 -35 285 -35 195 -35 c 1,23,24
 123 -37 123 -37 74 -11.5 c 128,-1,25
 25 14 25 14 -18 80 c 1,26,27
 -49 135 -49 135 -60.5 200.5 c 128,-1,28
 -72 266 -72 266 -68 322 c 0,29,30
 -68 330 -68 330 -67 354.5 c 128,-1,31
 -66 379 -66 379 -66 387 c 1,32,33
 -47 442 -47 442 -20.5 515 c 128,-1,34
 6 588 6 588 47 637 c 1,35,-1
 47 627 l 2,36,37
 47 582 47 582 49 523.5 c 128,-1,38
 51 465 51 465 68 418 c 1,39,40
 78 381 78 381 109.5 341 c 128,-1,41
 141 301 141 301 182 281 c 1,42,43
 197 276 197 276 211 272 c 128,-1,44
 225 268 225 268 250 268 c 0,45,46
 258 268 258 268 258 270 c 0,47,48
 266 305 266 305 277.5 350 c 128,-1,49
 289 395 289 395 305.5 440 c 128,-1,50
 322 485 322 485 344.5 524 c 128,-1,51
 367 563 367 563 401 588 c 0,52,53
 434 612 434 612 481 612 c 0,54,55
 502 612 502 612 519.5 605 c 128,-1,56
 537 598 537 598 553 591 c 128,-1,57
 569 584 569 584 586.5 576.5 c 128,-1,58
 604 569 604 569 625 569 c 0,59,60
 647 569 647 569 662.5 582.5 c 128,-1,61
 678 596 678 596 700 596 c 2,62,-1
 713 596 l 1,63,64
 719 590 719 590 719 575 c 0,65,66
 719 543 719 543 700.5 509 c 128,-1,67
 682 475 682 475 668 446 c 1,18,19
EndSplineSet
Substitution2: "Single Substitution lookup 209 subtable" glyph158
Substitution2: "Single Substitution lookup 207 subtable" glyph136
Substitution2: "Single Substitution lookup 206 subtable" glyph138
Substitution2: "Single Substitution lookup 204 subtable" glyph158
Substitution2: "Single Substitution lookup 203 subtable" glyph157
Substitution2: "Single Substitution lookup 202 subtable" glyph156
Substitution2: "Single Substitution lookup 200 subtable" glyph155
Substitution2: "Single Substitution lookup 199 subtable" glyph160
Substitution2: "Single Substitution lookup 188 subtable" glyph159
Substitution2: "Single Substitution lookup 187 subtable" glyph142
Substitution2: "Single Substitution lookup 186 subtable" glyph154
Substitution2: "Single Substitution lookup 185 subtable" glyph153
Substitution2: "Single Substitution lookup 184 subtable" glyph152
Substitution2: "Single Substitution lookup 183 subtable" glyph151
Substitution2: "Single Substitution lookup 182 subtable" glyph150
Substitution2: "Single Substitution lookup 180 subtable" glyph149
Substitution2: "Single Substitution lookup 179 subtable" glyph148
Substitution2: "Single Substitution lookup 178 subtable" glyph147
Substitution2: "Single Substitution lookup 177 subtable" glyph146
Substitution2: "Single Substitution lookup 176 subtable" glyph145
Substitution2: "Single Substitution lookup 175 subtable" glyph144
Substitution2: "Single Substitution lookup 174 subtable" glyph143
Substitution2: "Single Substitution lookup 173 subtable" glyph142
Substitution2: "Single Substitution lookup 172 subtable" glyph141
Substitution2: "Single Substitution lookup 171 subtable" glyph140
Substitution2: "Single Substitution lookup 170 subtable" glyph139
Substitution2: "Single Substitution lookup 169 subtable" glyph137
Position2: "Single Positioning lookup 127 subtable" dx=0 dy=0 dh=409 dv=0
Position2: "Single Positioning lookup 126 subtable" dx=0 dy=0 dh=532 dv=0
Position2: "Single Positioning lookup 123 subtable" dx=0 dy=0 dh=368 dv=0
Position2: "Single Positioning lookup 122 subtable" dx=0 dy=0 dh=614 dv=0
Position2: "Single Positioning lookup 121 subtable" dx=0 dy=0 dh=573 dv=0
Position2: "Single Positioning lookup 120 subtable" dx=0 dy=0 dh=819 dv=0
EndChar

StartChar: glyph136
Encoding: 65628 -1 133
Width: 883
GlyphClass: 2
Flags: W
AnchorPoint: "Anchor-188" 890 339 basechar 0
AnchorPoint: "Anchor-159" 0 0 basechar 0
AnchorPoint: "Anchor-158" 901 430 basechar 0
AnchorPoint: "Anchor-157" 778 286 basechar 0
AnchorPoint: "Anchor-123" 532 124 basechar 0
AnchorPoint: "Anchor-122" 0 0 basechar 0
AnchorPoint: "Anchor-90" 0 0 basechar 0
AnchorPoint: "Anchor-89" 593 1372 basechar 0
AnchorPoint: "Anchor-36" 419 73 basechar 0
AnchorPoint: "Anchor-35" 440 81 basechar 0
AnchorPoint: "Anchor-30" 501 1433 basechar 0
AnchorPoint: "Cursive-21" 0 0 exit 0
LayerCount: 2
Fore
SplineSet
492 952 m 0,0,1
 438 952 438 952 406.5 921.5 c 128,-1,2
 375 891 375 891 354 844 c 1,3,4
 346 821 346 821 335 793.5 c 128,-1,5
 324 766 324 766 309 715 c 1,6,7
 369 715 369 715 436.5 743.5 c 128,-1,8
 504 772 504 772 549 809 c 0,9,10
 559 817 559 817 575.5 831.5 c 128,-1,11
 592 846 592 846 606.5 861.5 c 128,-1,12
 621 877 621 877 631 888 c 128,-1,13
 641 899 641 899 641 901 c 2,14,-1
 641 905 l 1,15,16
 592 926 592 926 563.5 936 c 128,-1,17
 535 946 535 946 519.5 950 c 128,-1,18
 504 954 504 954 499 953 c 128,-1,19
 494 952 494 952 492 952 c 0,0,1
-49 897 m 1,20,21
 -25 958 -25 958 3 1024 c 128,-1,22
 31 1090 31 1090 57 1147 c 1,23,24
 61 1163 61 1163 70.5 1167 c 128,-1,25
 80 1171 80 1171 80 1149 c 0,26,27
 80 1092 80 1092 73 1028.5 c 128,-1,28
 66 965 66 965 80 907 c 0,29,30
 84 889 84 889 90 868.5 c 128,-1,31
 96 848 96 848 106 831 c 0,32,33
 133 784 133 784 170 749.5 c 128,-1,34
 207 715 207 715 262 715 c 2,35,-1
 270 715 l 1,36,37
 283 752 283 752 295 796 c 128,-1,38
 307 840 307 840 323.5 884 c 128,-1,39
 340 928 340 928 362.5 967 c 128,-1,40
 385 1006 385 1006 418 1034 c 0,41,42
 451 1061 451 1061 502 1061 c 0,43,44
 522 1061 522 1061 539.5 1054 c 128,-1,45
 557 1047 557 1047 573.5 1039.5 c 128,-1,46
 590 1032 590 1032 607.5 1025 c 128,-1,47
 625 1018 625 1018 645 1018 c 0,48,49
 668 1018 668 1018 683 1031 c 128,-1,50
 698 1044 698 1044 721 1044 c 2,51,-1
 733 1044 l 1,52,53
 739 1038 739 1038 739 1024 c 0,54,55
 739 991 739 991 720.5 957.5 c 128,-1,56
 702 924 702 924 688 895 c 0,57,58
 653 827 653 827 609 744.5 c 128,-1,59
 565 662 565 662 508 588 c 128,-1,60
 451 514 451 514 378 464 c 128,-1,61
 305 414 305 414 215 414 c 0,62,63
 129 414 129 414 73.5 455 c 128,-1,64
 18 496 18 496 -12 559 c 1,65,66
 -14 557 -14 557 -22.5 554 c 128,-1,67
 -31 551 -31 551 -78 547 c 1,68,69
 -70 561 -70 561 -70 584 c 0,70,71
 -70 610 -70 610 -68 621 c 1,72,73
 -63 692 -63 692 -62 759.5 c 128,-1,74
 -61 827 -61 827 -49 897 c 1,20,21
EndSplineSet
Position2: "Single Positioning lookup 123 subtable" dx=0 dy=0 dh=307 dv=0
Position2: "Single Positioning lookup 121 subtable" dx=0 dy=0 dh=573 dv=0
EndChar

StartChar: glyph137
Encoding: 65629 -1 134
Width: 901
GlyphClass: 2
Flags: W
AnchorPoint: "Anchor-36" 413 -206 basechar 0
AnchorPoint: "Anchor-35" 409 -204 basechar 0
AnchorPoint: "Anchor-30" 403 1359 basechar 0
LayerCount: 2
Fore
SplineSet
193 170 m 0,0,1
 164 170 164 170 127 185.5 c 128,-1,2
 90 201 90 201 52 222.5 c 128,-1,3
 14 244 14 244 -20.5 268.5 c 128,-1,4
 -55 293 -55 293 -80 311 c 1,5,-1
 -55 313 l 1,6,7
 133 324 133 324 307 401.5 c 128,-1,8
 481 479 481 479 604 625 c 1,9,10
 567 637 567 637 530.5 660.5 c 128,-1,11
 494 684 494 684 458 705.5 c 128,-1,12
 422 727 422 727 385 743.5 c 128,-1,13
 348 760 348 760 309 760 c 0,14,15
 268 760 268 760 239.5 742.5 c 128,-1,16
 211 725 211 725 180 696 c 0,17,18
 170 688 170 688 174 696 c 1,19,20
 186 731 186 731 206.5 765 c 128,-1,21
 227 799 227 799 255 826.5 c 128,-1,22
 283 854 283 854 317.5 870.5 c 128,-1,23
 352 887 352 887 393 887 c 256,24,25
 434 887 434 887 469 868.5 c 128,-1,26
 504 850 504 850 537.5 827.5 c 128,-1,27
 571 805 571 805 606 786.5 c 128,-1,28
 641 768 641 768 684 768 c 0,29,30
 700 768 700 768 712.5 771 c 128,-1,31
 725 774 725 774 741 774 c 0,32,33
 758 774 758 774 758 760 c 0,34,35
 758 748 758 748 748 737 c 0,36,37
 690 672 690 672 638 607.5 c 128,-1,38
 586 543 586 543 533.5 479.5 c 128,-1,39
 481 416 481 416 425 354.5 c 128,-1,40
 369 293 369 293 303 231 c 0,41,42
 281 211 281 211 253 190.5 c 128,-1,43
 225 170 225 170 193 170 c 0,0,1
EndSplineSet
EndChar

StartChar: glyph138
Encoding: 65630 -1 135
Width: 770
GlyphClass: 2
Flags: W
AnchorPoint: "Anchor-161" 419 -665 basechar 0
AnchorPoint: "Anchor-160" 706 276 basechar 0
AnchorPoint: "Anchor-126" 481 51 basechar 0
AnchorPoint: "Anchor-125" 0 0 basechar 0
AnchorPoint: "Anchor-124" 419 92 basechar 0
AnchorPoint: "Anchor-69" 0 0 basechar 0
AnchorPoint: "Anchor-68" 0 0 basechar 0
AnchorPoint: "Anchor-67" 552 1208 basechar 0
AnchorPoint: "Anchor-36" 419 -92 basechar 0
AnchorPoint: "Anchor-35" 430 -92 basechar 0
AnchorPoint: "Anchor-30" 430 1361 basechar 0
AnchorPoint: "Cursive-20" 0 0 exit 0
LayerCount: 2
Fore
SplineSet
528 719 m 0,0,1
 520 707 520 707 486.5 659.5 c 128,-1,2
 453 612 453 612 414 558 c 128,-1,3
 375 504 375 504 341 457 c 128,-1,4
 307 410 307 410 299 397 c 1,5,6
 285 379 285 379 266.5 354.5 c 128,-1,7
 248 330 248 330 223 330 c 0,8,9
 188 330 188 330 155.5 350.5 c 128,-1,10
 123 371 123 371 86 371 c 0,11,12
 57 371 57 371 36.5 356.5 c 128,-1,13
 16 342 16 342 0 320.5 c 128,-1,14
 -16 299 -16 299 -29.5 273.5 c 128,-1,15
 -43 248 -43 248 -57 225 c 1,16,-1
 -55 367 l 1,17,18
 -39 383 -39 383 -28.5 396.5 c 128,-1,19
 -18 410 -18 410 -8 423 c 128,-1,20
 2 436 2 436 14.5 450.5 c 128,-1,21
 27 465 27 465 45 483 c 0,22,23
 70 508 70 508 99.5 524.5 c 128,-1,24
 129 541 129 541 168 541 c 0,25,26
 197 541 197 541 220.5 527.5 c 128,-1,27
 244 514 244 514 272 514 c 0,28,29
 303 514 303 514 329.5 533.5 c 128,-1,30
 356 553 356 553 377.5 581.5 c 128,-1,31
 399 610 399 610 416.5 641 c 128,-1,32
 434 672 434 672 446 694 c 1,33,34
 451 698 451 698 454 706.5 c 128,-1,35
 457 715 457 715 453 719 c 1,36,37
 403 741 403 741 348 772 c 128,-1,38
 293 803 293 803 237.5 819.5 c 128,-1,39
 182 836 182 836 131 826.5 c 128,-1,40
 80 817 80 817 37 760 c 1,41,-1
 37 768 l 2,42,43
 37 784 37 784 46 801.5 c 128,-1,44
 55 819 55 819 63 831 c 1,45,46
 92 885 92 885 143.5 925 c 128,-1,47
 195 965 195 965 258 965 c 0,48,49
 297 965 297 965 332 947.5 c 128,-1,50
 367 930 367 930 400.5 910.5 c 128,-1,51
 434 891 434 891 468 873.5 c 128,-1,52
 502 856 502 856 543 856 c 0,53,54
 559 856 559 856 574.5 864 c 128,-1,55
 590 872 590 872 606 872 c 0,56,57
 627 872 627 872 621 848 c 1,58,59
 606 813 606 813 578.5 782.5 c 128,-1,60
 551 752 551 752 528 719 c 0,0,1
EndSplineSet
Position2: "Single Positioning lookup 127 subtable" dx=0 dy=0 dh=501 dv=0
EndChar

StartChar: glyph139
Encoding: 65631 -1 136
Width: 911
GlyphClass: 2
Flags: W
AnchorPoint: "Anchor-143" 952 1290 basechar 0
AnchorPoint: "Anchor-142" 0 0 basechar 0
AnchorPoint: "Anchor-141" 757 1259 basechar 0
AnchorPoint: "Anchor-36" 942 1288 basechar 0
AnchorPoint: "Anchor-35" 757 1280 basechar 0
AnchorPoint: "Anchor-30" 409 2291 basechar 0
AnchorPoint: "Cursive-5" 0 0 exit 0
LayerCount: 2
Fore
SplineSet
-84 922 m 1,0,1
 -84 950 -84 950 -70.5 980 c 128,-1,2
 -57 1010 -57 1010 -47 1034 c 1,3,4
 -6 1120 -6 1120 57.5 1204 c 128,-1,5
 121 1288 121 1288 203 1341 c 1,6,7
 289 1399 289 1399 371 1448 c 128,-1,8
 453 1497 453 1497 537 1550 c 1,9,10
 557 1565 557 1565 585.5 1588.5 c 128,-1,11
 614 1612 614 1612 631 1634 c 1,12,13
 588 1632 588 1632 544 1635 c 128,-1,14
 500 1638 500 1638 455 1641.5 c 128,-1,15
 410 1645 410 1645 366 1643.5 c 128,-1,16
 322 1642 322 1642 281 1630 c 0,17,18
 233 1616 233 1616 194.5 1584 c 128,-1,19
 156 1552 156 1552 121 1505 c 1,20,21
 111 1495 111 1495 102.5 1500 c 128,-1,22
 94 1505 94 1505 100 1520 c 1,23,24
 115 1546 115 1546 133.5 1575 c 128,-1,25
 152 1604 152 1604 168 1628 c 1,26,27
 217 1696 217 1696 258 1731.5 c 128,-1,28
 299 1767 299 1767 344 1783.5 c 128,-1,29
 389 1800 389 1800 446.5 1803 c 128,-1,30
 504 1806 504 1806 588 1806 c 0,31,32
 604 1806 604 1806 634 1808 c 128,-1,33
 664 1810 664 1810 693.5 1808 c 128,-1,34
 723 1806 723 1806 745.5 1799 c 128,-1,35
 768 1792 768 1792 768 1774 c 1,36,37
 758 1737 758 1737 739.5 1699 c 128,-1,38
 721 1661 721 1661 705 1632 c 1,39,40
 637 1540 637 1540 567.5 1461 c 128,-1,41
 498 1382 498 1382 403 1321 c 1,42,43
 338 1282 338 1282 277.5 1252.5 c 128,-1,44
 217 1223 217 1223 147 1182 c 1,45,46
 39 1104 39 1104 -23 993 c 0,47,48
 -37 967 -37 967 -44 952.5 c 128,-1,49
 -51 938 -51 938 -61 920 c 1,50,51
 -68 911 -68 911 -74 906 c 128,-1,52
 -80 901 -80 901 -84 922 c 1,0,1
EndSplineSet
Position2: "Single Positioning lookup 127 subtable" dx=0 dy=0 dh=450 dv=0
Position2: "Single Positioning lookup 122 subtable" dx=0 dy=0 dh=921 dv=0
Position2: "Single Positioning lookup 121 subtable" dx=0 dy=0 dh=737 dv=0
Position2: "Single Positioning lookup 120 subtable" dx=0 dy=0 dh=1187 dv=0
Position2: "Single Positioning lookup 118 subtable" dx=0 dy=0 dh=204 dv=0
Position2: "Single Positioning lookup 117 subtable" dx=0 dy=0 dh=512 dv=0
EndChar

StartChar: glyph140
Encoding: 65632 -1 137
Width: 666
GlyphClass: 2
Flags: W
AnchorPoint: "Anchor-36" 421 92 basechar 0
AnchorPoint: "Anchor-35" 307 10 basechar 0
AnchorPoint: "Anchor-30" 258 1443 basechar 0
LayerCount: 2
Fore
SplineSet
373 811 m 1,0,1
 328 825 328 825 290 845.5 c 128,-1,2
 252 866 252 866 217 885.5 c 128,-1,3
 182 905 182 905 150.5 918.5 c 128,-1,4
 119 932 119 932 88 932 c 0,5,6
 47 932 47 932 27.5 911.5 c 128,-1,7
 8 891 8 891 -20 860 c 1,8,9
 -25 856 -25 856 -30 854 c 128,-1,10
 -35 852 -35 852 -33 860 c 0,11,12
 -12 934 -12 934 39 992.5 c 128,-1,13
 90 1051 90 1051 170 1051 c 0,14,15
 213 1051 213 1051 246 1035.5 c 128,-1,16
 279 1020 279 1020 306.5 1001.5 c 128,-1,17
 334 983 334 983 362.5 967.5 c 128,-1,18
 391 952 391 952 428 952 c 0,19,20
 449 952 449 952 468 957.5 c 128,-1,21
 487 963 487 963 506 971 c 1,22,23
 508 973 508 973 517 975 c 128,-1,24
 526 977 526 977 532 977 c 0,25,26
 541 977 541 977 544 972 c 128,-1,27
 547 967 547 967 541 956 c 0,28,29
 535 946 535 946 520.5 925.5 c 128,-1,30
 506 905 506 905 502 901 c 0,31,32
 467 854 467 854 439.5 817 c 128,-1,33
 412 780 412 780 389 727 c 1,34,35
 371 682 371 682 355.5 642 c 128,-1,36
 340 602 340 602 321.5 565 c 128,-1,37
 303 528 303 528 279.5 495.5 c 128,-1,38
 256 463 256 463 219 430 c 0,39,40
 195 408 195 408 165 390.5 c 128,-1,41
 135 373 135 373 106.5 354.5 c 128,-1,42
 78 336 78 336 53.5 314.5 c 128,-1,43
 29 293 29 293 12 260 c 1,44,-1
 -33 260 l 1,45,-1
 -31 266 l 2,46,47
 -29 270 -29 270 -21.5 299 c 128,-1,48
 -14 328 -14 328 -3 369 c 128,-1,49
 8 410 8 410 14 434 c 1,50,51
 31 487 31 487 64.5 534.5 c 128,-1,52
 98 582 98 582 143 614 c 1,53,54
 178 641 178 641 214 656.5 c 128,-1,55
 250 672 250 672 280.5 689.5 c 128,-1,56
 311 707 311 707 335.5 734.5 c 128,-1,57
 360 762 360 762 373 811 c 1,0,1
EndSplineSet
EndChar

StartChar: glyph141
Encoding: 65633 -1 138
Width: 449
GlyphClass: 2
Flags: W
AnchorPoint: "Anchor-171" 51 -327 basechar 0
AnchorPoint: "Anchor-170" 368 686 basechar 0
AnchorPoint: "Anchor-151" 51 -327 basechar 0
AnchorPoint: "Anchor-150" 51 -327 basechar 0
AnchorPoint: "Anchor-140" -71 -143 basechar 0
AnchorPoint: "Anchor-139" 0 -215 basechar 0
AnchorPoint: "Anchor-36" 73 442 basechar 0
AnchorPoint: "Anchor-35" 51 399 basechar 0
AnchorPoint: "Anchor-30" 266 1802 basechar 0
AnchorPoint: "Cursive-6" 0 0 exit 0
LayerCount: 2
Fore
SplineSet
129 1022 m 1,0,1
 119 1006 119 1006 93.5 979 c 128,-1,2
 68 952 68 952 43 936 c 0,3,4
 6 913 6 913 -30 895 c 128,-1,5
 -66 877 -66 877 -100 877 c 1,6,7
 -98 889 -98 889 -94 913.5 c 128,-1,8
 -90 938 -90 938 -83 965.5 c 128,-1,9
 -76 993 -76 993 -64.5 1020 c 128,-1,10
 -53 1047 -53 1047 -37 1063 c 1,11,12
 -29 1053 -29 1053 -18.5 1046.5 c 128,-1,13
 -8 1040 -8 1040 12 1042 c 1,14,15
 78 1053 78 1053 119 1095 c 128,-1,16
 160 1137 160 1137 190 1196 c 1,17,18
 190 1202 190 1202 186 1206 c 1,19,20
 164 1217 164 1217 134 1229 c 128,-1,21
 104 1241 104 1241 84 1253 c 0,22,23
 45 1276 45 1276 0 1305.5 c 128,-1,24
 -45 1335 -45 1335 -92 1335 c 256,25,26
 -139 1335 -139 1335 -174 1310.5 c 128,-1,27
 -209 1286 -209 1286 -240 1253 c 0,28,29
 -248 1245 -248 1245 -251 1247 c 128,-1,30
 -254 1249 -254 1249 -250 1257 c 0,31,32
 -236 1290 -236 1290 -214.5 1326 c 128,-1,33
 -193 1362 -193 1362 -163 1392.5 c 128,-1,34
 -133 1423 -133 1423 -98 1443.5 c 128,-1,35
 -63 1464 -63 1464 -23 1464 c 0,36,37
 10 1464 10 1464 40 1453 c 128,-1,38
 70 1442 70 1442 97.5 1425.5 c 128,-1,39
 125 1409 125 1409 150.5 1390.5 c 128,-1,40
 176 1372 176 1372 205 1356 c 1,41,42
 233 1339 233 1339 262 1348.5 c 128,-1,43
 291 1358 291 1358 319 1362 c 1,44,45
 332 1366 332 1366 343 1350.5 c 128,-1,46
 354 1335 354 1335 340 1319 c 0,47,48
 317 1294 317 1294 289.5 1256.5 c 128,-1,49
 262 1219 262 1219 233.5 1177 c 128,-1,50
 205 1135 205 1135 178.5 1094 c 128,-1,51
 152 1053 152 1053 129 1022 c 1,0,1
EndSplineSet
Position2: "Single Positioning lookup 128 subtable" dx=0 dy=0 dh=184 dv=0
Position2: "Single Positioning lookup 127 subtable" dx=0 dy=0 dh=389 dv=0
Position2: "Single Positioning lookup 122 subtable" dx=0 dy=0 dh=614 dv=0
Position2: "Single Positioning lookup 121 subtable" dx=0 dy=0 dh=696 dv=0
Position2: "Single Positioning lookup 120 subtable" dx=0 dy=0 dh=921 dv=0
EndChar

StartChar: glyph142
Encoding: 65634 -1 139
Width: 1087
GlyphClass: 2
Flags: W
AnchorPoint: "Anchor-188" 915 759 basechar 0
AnchorPoint: "Anchor-169" 0 0 basechar 0
AnchorPoint: "Anchor-168" 604 -163 basechar 0
AnchorPoint: "Anchor-167" 604 -327 basechar 0
AnchorPoint: "Anchor-151" 604 -327 basechar 0
AnchorPoint: "Anchor-150" 604 -327 basechar 0
AnchorPoint: "Anchor-140" 143 -102 basechar 0
AnchorPoint: "Anchor-139" 204 -184 basechar 0
AnchorPoint: "Anchor-36" 618 442 basechar 0
AnchorPoint: "Anchor-35" 604 409 basechar 0
AnchorPoint: "Anchor-30" 751 1916 basechar 0
AnchorPoint: "Cursive-7" 0 0 exit 0
LayerCount: 2
Fore
SplineSet
786 1327 m 1,0,1
 748 1337 748 1337 715 1358.5 c 128,-1,2
 682 1380 682 1380 649 1401.5 c 128,-1,3
 616 1423 616 1423 582.5 1439.5 c 128,-1,4
 549 1456 549 1456 510 1456 c 0,5,6
 467 1456 467 1456 442.5 1434.5 c 128,-1,7
 418 1413 418 1413 395 1380 c 1,8,9
 385 1370 385 1370 386 1380.5 c 128,-1,10
 387 1391 387 1391 389 1395 c 0,11,12
 410 1477 410 1477 468 1525 c 128,-1,13
 526 1573 526 1573 596 1573 c 0,14,15
 635 1573 635 1573 668.5 1555.5 c 128,-1,16
 702 1538 702 1538 735 1516.5 c 128,-1,17
 768 1495 768 1495 803 1477.5 c 128,-1,18
 838 1460 838 1460 879 1460 c 1,19,20
 891 1462 891 1462 904.5 1465 c 128,-1,21
 918 1468 918 1468 926 1468 c 0,22,23
 948 1468 948 1468 940 1440 c 1,24,25
 872 1348 872 1348 806.5 1247.5 c 128,-1,26
 741 1147 741 1147 659 1067 c 0,27,28
 588 997 588 997 514 937 c 128,-1,29
 440 877 440 877 365 829 c 1,30,31
 289 782 289 782 221.5 755.5 c 128,-1,32
 154 729 154 729 104 719 c 0,33,34
 57 709 57 709 29.5 703.5 c 128,-1,35
 2 698 2 698 -4 696 c 0,36,37
 -20 692 -20 692 -49 689 c 128,-1,38
 -78 686 -78 686 -94 682 c 1,39,40
 -102 682 -102 682 -98 689 c 128,-1,41
 -94 696 -94 696 -85 705.5 c 128,-1,42
 -76 715 -76 715 -64.5 723 c 128,-1,43
 -53 731 -53 731 -47 733 c 0,44,45
 6 756 6 756 59.5 773.5 c 128,-1,46
 113 791 113 791 165 811 c 128,-1,47
 217 831 217 831 269.5 856 c 128,-1,48
 322 881 322 881 373 918 c 0,49,50
 477 993 477 993 567 1075 c 128,-1,51
 657 1157 657 1157 735 1255 c 0,52,53
 739 1260 739 1260 747.5 1269 c 128,-1,54
 756 1278 756 1278 764 1289 c 128,-1,55
 772 1300 772 1300 778 1310.5 c 128,-1,56
 784 1321 784 1321 786 1327 c 1,0,1
EndSplineSet
Position2: "Single Positioning lookup 120 subtable" dx=0 dy=0 dh=204 dv=0
EndChar

StartChar: glyph143
Encoding: 65635 -1 140
Width: 881
GlyphClass: 2
Flags: W
AnchorPoint: "Anchor-36" 421 -163 basechar 0
AnchorPoint: "Anchor-35" 409 -184 basechar 0
AnchorPoint: "Anchor-30" 585 1392 basechar 0
LayerCount: 2
Fore
SplineSet
639 723 m 1,0,1
 582 631 582 631 523.5 553 c 128,-1,2
 465 475 465 475 393 391 c 0,3,4
 262 238 262 238 96 144.5 c 128,-1,5
 -70 51 -70 51 -256 -14 c 0,6,7
 -338 -43 -338 -43 -437.5 -63.5 c 128,-1,8
 -537 -84 -537 -84 -623 -104 c 1,9,10
 -623 -94 -623 -94 -587 -77.5 c 128,-1,11
 -551 -61 -551 -61 -505 -44 c 128,-1,12
 -459 -27 -459 -27 -414 -12.5 c 128,-1,13
 -369 2 -369 2 -348 6 c 1,14,15
 -152 80 -152 80 26.5 179.5 c 128,-1,16
 205 279 205 279 348 436 c 0,17,18
 410 504 410 504 473.5 580.5 c 128,-1,19
 537 657 537 657 580 741 c 1,20,21
 541 752 541 752 507 773.5 c 128,-1,22
 473 795 473 795 441.5 816.5 c 128,-1,23
 410 838 410 838 376 854 c 128,-1,24
 342 870 342 870 303 870 c 0,25,26
 260 870 260 870 234.5 848.5 c 128,-1,27
 209 827 209 827 186 793 c 1,28,29
 178 784 178 784 179 794.5 c 128,-1,30
 180 805 180 805 182 809 c 0,31,32
 203 891 203 891 260 939 c 128,-1,33
 317 987 317 987 387 987 c 0,34,35
 426 987 426 987 460 969.5 c 128,-1,36
 494 952 494 952 527.5 930.5 c 128,-1,37
 561 909 561 909 596 891.5 c 128,-1,38
 631 874 631 874 672 874 c 1,39,40
 684 877 684 877 697.5 880 c 128,-1,41
 711 883 711 883 719 883 c 0,42,43
 729 883 729 883 733 876.5 c 128,-1,44
 737 870 737 870 733 854 c 1,45,46
 711 823 711 823 686.5 790.5 c 128,-1,47
 662 758 662 758 639 723 c 1,0,1
EndSplineSet
EndChar

StartChar: glyph144
Encoding: 65636 -1 141
Width: 815
GlyphClass: 2
Flags: W
AnchorPoint: "Anchor-151" 829 563 basechar 0
AnchorPoint: "Anchor-150" 604 491 basechar 0
AnchorPoint: "Anchor-36" 319 143 basechar 0
AnchorPoint: "Anchor-35" 317 112 basechar 0
AnchorPoint: "Anchor-30" 380 1802 basechar 0
AnchorPoint: "Cursive-8" 0 0 exit 0
LayerCount: 2
Fore
SplineSet
121 1178 m 1,0,1
 113 1169 113 1169 114 1179.5 c 128,-1,2
 115 1190 115 1190 117 1194 c 0,3,4
 137 1276 137 1276 194.5 1324 c 128,-1,5
 252 1372 252 1372 322 1372 c 0,6,7
 360 1372 360 1372 394 1354.5 c 128,-1,8
 428 1337 428 1337 462 1315.5 c 128,-1,9
 496 1294 496 1294 530.5 1277 c 128,-1,10
 565 1260 565 1260 606 1260 c 1,11,12
 618 1262 618 1262 631.5 1265 c 128,-1,13
 645 1268 645 1268 653 1268 c 0,14,15
 676 1268 676 1268 668 1239 c 1,16,17
 645 1208 645 1208 619.5 1176.5 c 128,-1,18
 594 1145 594 1145 573 1108 c 0,19,20
 483 950 483 950 378.5 809 c 128,-1,21
 274 668 274 668 147 556 c 128,-1,22
 20 444 20 444 -130.5 364.5 c 128,-1,23
 -281 285 -281 285 -461 250 c 1,24,-1
 -352 344 l 1,25,26
 -205 412 -205 412 -85 491.5 c 128,-1,27
 35 571 35 571 136.5 667.5 c 128,-1,28
 238 764 238 764 325 878.5 c 128,-1,29
 412 993 412 993 496 1130 c 1,30,31
 457 1141 457 1141 426 1161.5 c 128,-1,32
 395 1182 395 1182 366.5 1203.5 c 128,-1,33
 338 1225 338 1225 307 1240 c 128,-1,34
 276 1255 276 1255 238 1255 c 0,35,36
 195 1255 195 1255 169 1233.5 c 128,-1,37
 143 1212 143 1212 121 1178 c 1,0,1
EndSplineSet
Position2: "Single Positioning lookup 122 subtable" dx=0 dy=0 dh=614 dv=0
Position2: "Single Positioning lookup 121 subtable" dx=0 dy=0 dh=471 dv=0
Position2: "Single Positioning lookup 120 subtable" dx=0 dy=0 dh=819 dv=0
EndChar

StartChar: glyph145
Encoding: 65637 -1 142
Width: 797
GlyphClass: 2
Flags: W
AnchorPoint: "Anchor-151" 266 -409 basechar 0
AnchorPoint: "Anchor-150" 266 -409 basechar 0
AnchorPoint: "Anchor-36" 335 378 basechar 0
AnchorPoint: "Anchor-35" 327 358 basechar 0
AnchorPoint: "Anchor-30" 468 1792 basechar 0
AnchorPoint: "Cursive-9" 0 0 exit 0
LayerCount: 2
Fore
SplineSet
-57 772 m 1,0,1
 -55 778 -55 778 -48 790.5 c 128,-1,2
 -41 803 -41 803 -32 816 c 128,-1,3
 -23 829 -23 829 -13.5 841.5 c 128,-1,4
 -4 854 -4 854 0 858 c 1,5,6
 31 846 31 846 60.5 832.5 c 128,-1,7
 90 819 90 819 131 821 c 1,8,9
 184 821 184 821 232.5 851 c 128,-1,10
 281 881 281 881 321.5 925 c 128,-1,11
 362 969 362 969 396 1018 c 128,-1,12
 430 1067 430 1067 453 1104 c 0,13,14
 457 1112 457 1112 464 1126.5 c 128,-1,15
 471 1141 471 1141 479 1156 c 128,-1,16
 487 1171 487 1171 493.5 1186.5 c 128,-1,17
 500 1202 500 1202 500 1212 c 1,18,19
 463 1221 463 1221 431 1239 c 128,-1,20
 399 1257 399 1257 368.5 1276.5 c 128,-1,21
 338 1296 338 1296 305 1310.5 c 128,-1,22
 272 1325 272 1325 236 1325 c 0,23,24
 182 1325 182 1325 151.5 1306.5 c 128,-1,25
 121 1288 121 1288 84 1247 c 1,26,27
 78 1243 78 1243 78 1247 c 0,28,29
 86 1282 86 1282 104.5 1321 c 128,-1,30
 123 1360 123 1360 149.5 1391.5 c 128,-1,31
 176 1423 176 1423 211 1443.5 c 128,-1,32
 246 1464 246 1464 287 1464 c 0,33,34
 346 1464 346 1464 394 1436.5 c 128,-1,35
 442 1409 442 1409 494 1380 c 0,36,37
 506 1374 506 1374 533.5 1365 c 128,-1,38
 561 1356 561 1356 637 1356 c 0,39,40
 647 1356 647 1356 651 1346.5 c 128,-1,41
 655 1337 655 1337 647 1325 c 1,42,43
 621 1294 621 1294 598 1262.5 c 128,-1,44
 575 1231 575 1231 555 1196 c 0,45,46
 547 1180 547 1180 524.5 1139 c 128,-1,47
 502 1098 502 1098 477.5 1053 c 128,-1,48
 453 1008 453 1008 431.5 967 c 128,-1,49
 410 926 410 926 401 909 c 1,50,51
 379 874 379 874 350.5 832.5 c 128,-1,52
 322 791 322 791 288 755 c 128,-1,53
 254 719 254 719 214 695.5 c 128,-1,54
 174 672 174 672 125 672 c 0,55,56
 92 672 92 672 38 695.5 c 128,-1,57
 -16 719 -16 719 -57 772 c 1,0,1
EndSplineSet
Position2: "Single Positioning lookup 127 subtable" dx=0 dy=0 dh=430 dv=0
Position2: "Single Positioning lookup 122 subtable" dx=0 dy=0 dh=716 dv=0
Position2: "Single Positioning lookup 121 subtable" dx=0 dy=0 dh=552 dv=0
Position2: "Single Positioning lookup 120 subtable" dx=0 dy=0 dh=1024 dv=0
Position2: "Single Positioning lookup 119 subtable" dx=0 dy=0 dh=225 dv=0
EndChar

StartChar: glyph146
Encoding: 65638 -1 143
Width: 680
GlyphClass: 2
Flags: W
AnchorPoint: "Anchor-151" 296 -880 basechar 0
AnchorPoint: "Anchor-150" 296 -880 basechar 0
AnchorPoint: "Anchor-36" 294 -102 basechar 0
AnchorPoint: "Anchor-35" 296 -112 basechar 0
AnchorPoint: "Anchor-30" 325 1372 basechar 0
AnchorPoint: "Cursive-10" 0 0 exit 0
LayerCount: 2
Fore
SplineSet
-268 283 m 1,0,1
 -174 266 -174 266 -96 291.5 c 128,-1,2
 -18 317 -18 317 47.5 368.5 c 128,-1,3
 113 420 113 420 169 488.5 c 128,-1,4
 225 557 225 557 274 629 c 0,5,6
 276 631 276 631 290.5 653.5 c 128,-1,7
 305 676 305 676 324.5 705.5 c 128,-1,8
 344 735 344 735 361.5 765 c 128,-1,9
 379 795 379 795 387 813 c 1,10,11
 332 836 332 836 287 865.5 c 128,-1,12
 242 895 242 895 188 930 c 0,13,14
 147 956 147 956 102 956 c 0,15,16
 59 956 59 956 33.5 934.5 c 128,-1,17
 8 913 8 913 -20 885 c 0,18,19
 -33 872 -33 872 -36 879.5 c 128,-1,20
 -39 887 -39 887 -33 899 c 0,21,22
 -18 930 -18 930 1 961.5 c 128,-1,23
 20 993 20 993 46 1017.5 c 128,-1,24
 72 1042 72 1042 103.5 1057.5 c 128,-1,25
 135 1073 135 1073 172 1073 c 0,26,27
 205 1073 205 1073 232.5 1064 c 128,-1,28
 260 1055 260 1055 286.5 1039.5 c 128,-1,29
 313 1024 313 1024 339 1006.5 c 128,-1,30
 365 989 365 989 393 971 c 1,31,32
 403 963 403 963 417.5 956.5 c 128,-1,33
 432 950 432 950 449 950 c 0,34,35
 465 950 465 950 480.5 955.5 c 128,-1,36
 496 961 496 961 512 961 c 0,37,38
 541 961 541 961 535.5 942.5 c 128,-1,39
 530 924 530 924 520 909 c 0,40,41
 516 903 516 903 505 888.5 c 128,-1,42
 494 874 494 874 481.5 858 c 128,-1,43
 469 842 469 842 459 827.5 c 128,-1,44
 449 813 449 813 444 807 c 1,45,46
 391 715 391 715 338 626 c 128,-1,47
 285 537 285 537 229 449 c 0,48,49
 193 393 193 393 140.5 338 c 128,-1,50
 88 283 88 283 23.5 239 c 128,-1,51
 -41 195 -41 195 -111.5 167 c 128,-1,52
 -182 139 -182 139 -256 137 c 0,53,54
 -289 137 -289 137 -332 143 c 1,55,56
 -332 154 -332 154 -323.5 175.5 c 128,-1,57
 -315 197 -315 197 -304 219.5 c 128,-1,58
 -293 242 -293 242 -282.5 260.5 c 128,-1,59
 -272 279 -272 279 -268 283 c 1,0,1
EndSplineSet
Position2: "Single Positioning lookup 127 subtable" dx=0 dy=0 dh=409 dv=0
Position2: "Single Positioning lookup 122 subtable" dx=0 dy=0 dh=614 dv=0
Position2: "Single Positioning lookup 121 subtable" dx=0 dy=0 dh=512 dv=0
Position2: "Single Positioning lookup 120 subtable" dx=0 dy=0 dh=819 dv=0
EndChar

StartChar: glyph147
Encoding: 65639 -1 144
Width: 479
GlyphClass: 2
Flags: W
AnchorPoint: "Anchor-138" 286 266 basechar 0
AnchorPoint: "Anchor-137" -204 -983 basechar 0
AnchorPoint: "Anchor-36" 235 -36 basechar 0
AnchorPoint: "Anchor-35" 296 266 basechar 0
AnchorPoint: "Anchor-30" 141 1550 basechar 0
AnchorPoint: "Cursive-3" 0 -30 exit 0
LayerCount: 2
Fore
SplineSet
168 924 m 1,0,1
 109 942 109 942 71 962.5 c 128,-1,2
 33 983 33 983 1 1000.5 c 128,-1,3
 -31 1018 -31 1018 -62.5 1029 c 128,-1,4
 -94 1040 -94 1040 -139 1040 c 0,5,6
 -168 1040 -168 1040 -192.5 1025 c 128,-1,7
 -217 1010 -217 1010 -238 989 c 0,8,9
 -248 979 -248 979 -252 978 c 128,-1,10
 -256 977 -256 977 -250 995 c 0,11,12
 -238 1028 -238 1028 -217.5 1060 c 128,-1,13
 -197 1092 -197 1092 -169 1116.5 c 128,-1,14
 -141 1141 -141 1141 -106.5 1155 c 128,-1,15
 -72 1169 -72 1169 -35 1169 c 0,16,17
 4 1169 4 1169 38 1154 c 128,-1,18
 72 1139 72 1139 103.5 1120.5 c 128,-1,19
 135 1102 135 1102 169 1086.5 c 128,-1,20
 203 1071 203 1071 242 1071 c 0,21,22
 250 1071 250 1071 269.5 1076 c 128,-1,23
 289 1081 289 1081 305.5 1083 c 128,-1,24
 322 1085 322 1085 329 1078 c 128,-1,25
 336 1071 336 1071 322 1047 c 1,26,27
 254 979 254 979 211 900 c 128,-1,28
 168 821 168 821 121 739 c 0,29,30
 115 727 115 727 96.5 693 c 128,-1,31
 78 659 78 659 56.5 622.5 c 128,-1,32
 35 586 35 586 15.5 553 c 128,-1,33
 -4 520 -4 520 -12 508 c 0,34,35
 -41 465 -41 465 -75 427 c 128,-1,36
 -109 389 -109 389 -156 371 c 1,37,-1
 -156 385 l 2,38,39
 -156 391 -156 391 -155 410.5 c 128,-1,40
 -154 430 -154 430 -153 452.5 c 128,-1,41
 -152 475 -152 475 -151 494.5 c 128,-1,42
 -150 514 -150 514 -150 518 c 0,43,44
 -150 535 -150 535 -145.5 542 c 128,-1,45
 -141 549 -141 549 -129 559 c 0,46,47
 -86 596 -86 596 -51 627.5 c 128,-1,48
 -16 659 -16 659 15.5 693 c 128,-1,49
 47 727 47 727 74.5 766 c 128,-1,50
 102 805 102 805 131 852 c 0,51,52
 139 866 139 866 148.5 881.5 c 128,-1,53
 158 897 158 897 168 924 c 1,0,1
EndSplineSet
EndChar

StartChar: glyph148
Encoding: 65640 -1 145
Width: 723
GlyphClass: 2
Flags: W
AnchorPoint: "Anchor-188" 573 645 basechar 0
AnchorPoint: "Anchor-181" 692 583 basechar 0
AnchorPoint: "Anchor-180" 512 798 basechar 0
AnchorPoint: "Anchor-151" 655 675 basechar 0
AnchorPoint: "Anchor-150" 512 675 basechar 0
AnchorPoint: "Anchor-146" 266 61 basechar 0
AnchorPoint: "Anchor-145" 481 819 basechar 0
AnchorPoint: "Anchor-143" 634 552 basechar 0
AnchorPoint: "Anchor-142" 0 0 basechar 0
AnchorPoint: "Anchor-141" 481 768 basechar 0
AnchorPoint: "Anchor-36" 323 204 basechar 0
AnchorPoint: "Anchor-35" 522 788 basechar 0
AnchorPoint: "Anchor-30" 313 1867 basechar 0
AnchorPoint: "Cursive-11" 0 0 exit 0
LayerCount: 2
Fore
SplineSet
451 1284 m 1,0,1
 397 1292 397 1292 344 1295 c 128,-1,2
 291 1298 291 1298 238 1298 c 1,3,4
 184 1300 184 1300 147.5 1297 c 128,-1,5
 111 1294 111 1294 82 1282 c 128,-1,6
 53 1270 53 1270 28.5 1247.5 c 128,-1,7
 4 1225 4 1225 -27 1188 c 1,8,9
 -41 1169 -41 1169 -56.5 1164 c 128,-1,10
 -72 1159 -72 1159 -59 1196 c 1,11,12
 -27 1255 -27 1255 6 1303.5 c 128,-1,13
 39 1352 39 1352 79 1383.5 c 128,-1,14
 119 1415 119 1415 171 1431.5 c 128,-1,15
 223 1448 223 1448 297 1444 c 1,16,-1
 354 1444 l 1,17,-1
 422 1444 l 1,18,-1
 494 1444 l 1,19,-1
 557 1444 l 2,20,21
 582 1444 582 1444 578.5 1425.5 c 128,-1,22
 575 1407 575 1407 567 1393 c 0,23,24
 563 1384 563 1384 549 1361.5 c 128,-1,25
 535 1339 535 1339 518.5 1314.5 c 128,-1,26
 502 1290 502 1290 486.5 1268.5 c 128,-1,27
 471 1247 471 1247 465 1239 c 0,28,29
 446 1214 446 1214 423.5 1187.5 c 128,-1,30
 401 1161 401 1161 373.5 1135.5 c 128,-1,31
 346 1110 346 1110 316.5 1088.5 c 128,-1,32
 287 1067 287 1067 256 1055 c 0,33,34
 244 1051 244 1051 218.5 1040.5 c 128,-1,35
 193 1030 193 1030 166 1020 c 128,-1,36
 139 1010 139 1010 117.5 1000.5 c 128,-1,37
 96 991 96 991 92 989 c 0,38,39
 41 967 41 967 11.5 935 c 128,-1,40
 -18 903 -18 903 -51 856 c 0,41,42
 -59 846 -59 846 -72.5 834.5 c 128,-1,43
 -86 823 -86 823 -82 840 c 1,44,45
 -70 868 -70 868 -56.5 894 c 128,-1,46
 -43 920 -43 920 -27 948 c 1,47,48
 0 999 0 999 40 1037 c 128,-1,49
 80 1075 80 1075 127 1105 c 128,-1,50
 174 1135 174 1135 224 1158.5 c 128,-1,51
 274 1182 274 1182 322 1204 c 1,52,53
 356 1221 356 1221 391 1238 c 128,-1,54
 426 1255 426 1255 451 1284 c 1,0,1
EndSplineSet
Position2: "Single Positioning lookup 127 subtable" dx=0 dy=0 dh=409 dv=0
Position2: "Single Positioning lookup 125 subtable" dx=0 dy=0 dh=204 dv=0
Position2: "Single Positioning lookup 122 subtable" dx=0 dy=0 dh=819 dv=0
Position2: "Single Positioning lookup 121 subtable" dx=0 dy=0 dh=409 dv=0
Position2: "Single Positioning lookup 120 subtable" dx=0 dy=0 dh=778 dv=0
EndChar

StartChar: glyph149
Encoding: 65641 -1 146
Width: 653
GlyphClass: 2
Flags: W
AnchorPoint: "Anchor-36" 368 10 basechar 0
AnchorPoint: "Anchor-35" 378 512 basechar 0
AnchorPoint: "Anchor-30" 237 1843 basechar 0
LayerCount: 2
Fore
SplineSet
-41 913 m 0,0,1
 -41 936 -41 936 -37 966.5 c 128,-1,2
 -33 997 -33 997 -10 1012 c 1,3,4
 23 987 23 987 61 987 c 0,5,6
 104 987 104 987 147 1005.5 c 128,-1,7
 190 1024 190 1024 227 1053.5 c 128,-1,8
 264 1083 264 1083 293 1120 c 128,-1,9
 322 1157 322 1157 338 1196 c 1,10,11
 299 1212 299 1212 263 1232.5 c 128,-1,12
 227 1253 227 1253 190 1274 c 1,13,14
 121 1309 121 1309 56.5 1290.5 c 128,-1,15
 -8 1272 -8 1272 -49 1202 c 0,16,17
 -61 1180 -61 1180 -63.5 1185 c 128,-1,18
 -66 1190 -66 1190 -64.5 1206.5 c 128,-1,19
 -63 1223 -63 1223 -58 1242.5 c 128,-1,20
 -53 1262 -53 1262 -49 1268 c 1,21,22
 -23 1331 -23 1331 27.5 1374 c 128,-1,23
 78 1417 78 1417 143 1417 c 0,24,25
 195 1417 195 1417 240 1397.5 c 128,-1,26
 285 1378 285 1378 334 1366 c 0,27,28
 375 1356 375 1356 412 1352 c 128,-1,29
 449 1348 449 1348 492 1350 c 1,30,31
 520 1350 520 1350 508 1328.5 c 128,-1,32
 496 1307 496 1307 481 1288 c 1,33,34
 446 1253 446 1253 408.5 1208 c 128,-1,35
 371 1163 371 1163 344 1120 c 0,36,37
 307 1063 307 1063 272.5 1007.5 c 128,-1,38
 238 952 238 952 198 907 c 128,-1,39
 158 862 158 862 106.5 831.5 c 128,-1,40
 55 801 55 801 -14 793 c 1,41,42
 -31 815 -31 815 -36 850 c 128,-1,43
 -41 885 -41 885 -41 913 c 0,0,1
EndSplineSet
EndChar

StartChar: glyph150
Encoding: 65642 -1 147
Width: 887
GlyphClass: 2
Flags: W
AnchorPoint: "Anchor-36" 296 -473 basechar 0
AnchorPoint: "Anchor-35" 296 -481 basechar 0
AnchorPoint: "Anchor-30" 491 1083 basechar 0
LayerCount: 2
Fore
SplineSet
-2 211 m 1,0,1
 2 213 2 213 6 215 c 128,-1,2
 10 217 10 217 14 219 c 0,3,4
 39 231 39 231 72 238 c 1,5,6
 82 242 82 242 92 243 c 128,-1,7
 102 244 102 244 113 246 c 1,8,9
 137 246 137 246 147.5 239.5 c 128,-1,10
 158 233 158 233 180 219 c 1,11,12
 201 209 201 209 215 202 c 128,-1,13
 229 195 229 195 243.5 189.5 c 128,-1,14
 258 184 258 184 274.5 181 c 128,-1,15
 291 178 291 178 313 178 c 1,16,17
 352 176 352 176 388 191.5 c 128,-1,18
 424 207 424 207 454.5 232.5 c 128,-1,19
 485 258 485 258 512 288.5 c 128,-1,20
 539 319 539 319 559 348 c 1,21,22
 563 352 563 352 574.5 371.5 c 128,-1,23
 586 391 586 391 584 399 c 1,24,25
 551 412 551 412 517 432.5 c 128,-1,26
 483 453 483 453 448.5 473.5 c 128,-1,27
 414 494 414 494 379 508 c 128,-1,28
 344 522 344 522 309 522 c 0,29,30
 256 522 256 522 215 489 c 1,31,32
 201 475 201 475 188.5 470 c 128,-1,33
 176 465 176 465 195 500 c 1,34,35
 223 559 223 559 274.5 605 c 128,-1,36
 326 651 326 651 391 651 c 0,37,38
 428 651 428 651 460 632.5 c 128,-1,39
 492 614 492 614 522.5 592.5 c 128,-1,40
 553 571 553 571 585.5 554 c 128,-1,41
 618 537 618 537 655 537 c 0,42,43
 672 537 672 537 688.5 543 c 128,-1,44
 705 549 705 549 721 549 c 1,45,46
 735 551 735 551 739 546 c 128,-1,47
 743 541 743 541 741 532.5 c 128,-1,48
 739 524 739 524 735 516 c 128,-1,49
 731 508 731 508 727 502 c 1,50,51
 723 498 723 498 710.5 482.5 c 128,-1,52
 698 467 698 467 685 448.5 c 128,-1,53
 672 430 672 430 659.5 413.5 c 128,-1,54
 647 397 647 397 645 393 c 0,55,56
 635 377 635 377 615.5 340 c 128,-1,57
 596 303 596 303 574.5 263 c 128,-1,58
 553 223 553 223 533.5 185 c 128,-1,59
 514 147 514 147 502 127 c 0,60,61
 403 -33 403 -33 292.5 -73 c 128,-1,62
 182 -113 182 -113 41 -31 c 1,63,64
 18 -23 18 -23 -18 -23 c 1,65,66
 -59 -27 -59 -27 -96 -41 c 1,67,68
 -104 -41 -104 -41 -106 -43 c 1,69,-1
 -2 211 l 1,0,1
EndSplineSet
EndChar

StartChar: glyph151
Encoding: 65643 -1 148
Width: 477
GlyphClass: 2
Flags: W
AnchorPoint: "Anchor-188" 499 38 basechar 0
AnchorPoint: "Anchor-175" 225 -778 basechar 0
AnchorPoint: "Anchor-174" 225 -778 basechar 0
AnchorPoint: "Anchor-151" 225 -778 basechar 0
AnchorPoint: "Anchor-150" 225 -778 basechar 0
AnchorPoint: "Anchor-101" 0 -491 basechar 0
AnchorPoint: "Anchor-100" 399 102 basechar 0
AnchorPoint: "Anchor-36" 38 -370 basechar 0
AnchorPoint: "Anchor-35" 225 -358 basechar 0
AnchorPoint: "Anchor-30" 90 1277 basechar 0
AnchorPoint: "Cursive-12" 0 0 exit 0
LayerCount: 2
Fore
SplineSet
-31 57 m 0,0,1
 -31 129 -31 129 -19.5 206 c 128,-1,2
 -8 283 -8 283 13.5 357.5 c 128,-1,3
 35 432 35 432 68.5 503.5 c 128,-1,4
 102 575 102 575 147 637 c 1,5,6
 147 639 147 639 131 648 c 128,-1,7
 115 657 115 657 92.5 669.5 c 128,-1,8
 70 682 70 682 45 694.5 c 128,-1,9
 20 707 20 707 4 715 c 0,10,11
 -18 725 -18 725 -46 732 c 128,-1,12
 -74 739 -74 739 -100 739 c 0,13,14
 -150 739 -150 739 -183.5 712.5 c 128,-1,15
 -217 686 -217 686 -246 653 c 1,16,17
 -254 655 -254 655 -252 662.5 c 128,-1,18
 -250 670 -250 670 -246 678 c 1,19,20
 -236 713 -236 713 -216.5 748.5 c 128,-1,21
 -197 784 -197 784 -169 813 c 128,-1,22
 -141 842 -141 842 -106.5 860.5 c 128,-1,23
 -72 879 -72 879 -31 879 c 0,24,25
 8 879 8 879 42 861.5 c 128,-1,26
 76 844 76 844 106.5 823.5 c 128,-1,27
 137 803 137 803 169 784.5 c 128,-1,28
 201 766 201 766 238 764 c 0,29,30
 250 764 250 764 266.5 768 c 128,-1,31
 283 772 283 772 298 774 c 128,-1,32
 313 776 313 776 323.5 771 c 128,-1,33
 334 766 334 766 332 745 c 1,34,35
 229 639 229 639 155.5 509 c 128,-1,36
 82 379 82 379 33 244 c 0,37,38
 31 240 31 240 27 221.5 c 128,-1,39
 23 203 23 203 17.5 178.5 c 128,-1,40
 12 154 12 154 7 128 c 128,-1,41
 2 102 2 102 0 84 c 0,42,43
 -2 72 -2 72 -7 56.5 c 128,-1,44
 -12 41 -12 41 -17.5 33 c 128,-1,45
 -23 25 -23 25 -27 28 c 128,-1,46
 -31 31 -31 31 -31 57 c 0,0,1
EndSplineSet
Position2: "Single Positioning lookup 127 subtable" dx=0 dy=0 dh=450 dv=0
Position2: "Single Positioning lookup 122 subtable" dx=0 dy=0 dh=921 dv=0
Position2: "Single Positioning lookup 121 subtable" dx=0 dy=0 dh=655 dv=0
Position2: "Single Positioning lookup 120 subtable" dx=0 dy=0 dh=1024 dv=0
EndChar

